<svg xmlns="http://www.w3.org/2000/svg" width="223.088" height="82.953" viewBox="0 0 223.088 82.953">
  <g id="_20_laks" data-name="20 laks" transform="translate(1.524 1.525)">
    <g id="Group_44956" data-name="Group 44956" transform="translate(19.383 25.451)" style="mix-blend-mode: normal;isolation: isolate">
      <path id="Path_106030" data-name="Path 106030" d="M754.208,877.82a1.53,1.53,0,0,1,1.4.881,4.511,4.511,0,0,1,.489,2.19,4.415,4.415,0,0,1-.525,2.225,1.6,1.6,0,0,1-1.438.915H736.739v-10.7a3.632,3.632,0,0,1,.752-2.2,7.017,7.017,0,0,1,2.06-1.805,10.924,10.924,0,0,1,3.073-1.215,16.158,16.158,0,0,1,3.792-.425,4.3,4.3,0,0,0,2.029-.39,1.21,1.21,0,0,0,.717-1.1v-7.734a1.21,1.21,0,0,0-.71-1.106,4.241,4.241,0,0,0-2-.389,3.931,3.931,0,0,0-1.842.391,1.219,1.219,0,0,0-.743,1.113V861.6a1.53,1.53,0,0,1-1.023,1.408,5.545,5.545,0,0,1-2.41.489,6.12,6.12,0,0,1-2.574-.489A1.536,1.536,0,0,1,736.8,861.6v-5.231a3.613,3.613,0,0,1,.752-2.19,7,7,0,0,1,2.06-1.8,10.888,10.888,0,0,1,3.075-1.21,16.149,16.149,0,0,1,3.792-.425,16.585,16.585,0,0,1,3.823.425,10.377,10.377,0,0,1,3.073,1.21,7.158,7.158,0,0,1,2.029,1.8,3.62,3.62,0,0,1,.752,2.19v11.966a3.613,3.613,0,0,1-.748,2.19,6.7,6.7,0,0,1-2.018,1.767,10.935,10.935,0,0,1-3.055,1.175,16.34,16.34,0,0,1-3.807.427,4.1,4.1,0,0,0-1.918.423,1.281,1.281,0,0,0-.814,1.146v2.354Z" transform="translate(-736.739 -850.75)" fill="#fff"/>
      <path id="Path_106031" data-name="Path 106031" d="M768.369,878.735a3.615,3.615,0,0,1-.752,2.19,7.129,7.129,0,0,1-2.027,1.8,10.373,10.373,0,0,1-3.073,1.209,16.6,16.6,0,0,1-3.825.427,16.148,16.148,0,0,1-3.792-.427,10.827,10.827,0,0,1-3.073-1.209,6.925,6.925,0,0,1-2.06-1.8,3.592,3.592,0,0,1-.752-2.19V856.371a3.6,3.6,0,0,1,.752-2.19,6.948,6.948,0,0,1,2.06-1.8,10.874,10.874,0,0,1,3.073-1.21,16.16,16.16,0,0,1,3.792-.425,16.613,16.613,0,0,1,3.825.425,10.416,10.416,0,0,1,3.073,1.21,7.153,7.153,0,0,1,2.027,1.8,3.623,3.623,0,0,1,.752,2.19Zm-7-20.27a1.22,1.22,0,0,0-.717-1.113,4.317,4.317,0,0,0-2.027-.391,4.014,4.014,0,0,0-1.863.391,1.217,1.217,0,0,0-.752,1.113v18.177a1.214,1.214,0,0,0,.752,1.112,4.013,4.013,0,0,0,1.863.392,4.315,4.315,0,0,0,2.027-.392,1.217,1.217,0,0,0,.717-1.112Z" transform="translate(-726.718 -850.75)" fill="#fff"/>
    </g>
    <g id="Group_44957" data-name="Group 44957" transform="translate(75.688 25.712)" style="mix-blend-mode: normal;isolation: isolate">
      <path id="Path_106032" data-name="Path 106032" d="M794.358,878.2V852.895a1.53,1.53,0,0,1,1.048-1.4,5.967,5.967,0,0,1,2.55-.49,5.429,5.429,0,0,1,2.386.49,1.533,1.533,0,0,1,1.013,1.406v29.62a1.531,1.531,0,0,1-1.013,1.406,5.429,5.429,0,0,1-2.386.49H773.371a5.418,5.418,0,0,1-2.387-.49,1.526,1.526,0,0,1-1.013-1.406V856.625a3.521,3.521,0,0,1,.783-2.191,7.36,7.36,0,0,1,2.125-1.8,11.424,11.424,0,0,1,3.14-1.209A16.878,16.878,0,0,1,779.91,851a16.585,16.585,0,0,1,3.825.425,11.414,11.414,0,0,1,3.139,1.209,7.363,7.363,0,0,1,2.125,1.8,3.521,3.521,0,0,1,.785,2.191v12.162a5.849,5.849,0,0,1-1.079,3.76,3.4,3.4,0,0,1-2.779,1.34h-8.96V878.2Zm-17.393-10.4h4.579a1.026,1.026,0,0,0,.881-.621,2.6,2.6,0,0,0,.362-1.34v-7.127a1.222,1.222,0,0,0-.85-1.112,5,5,0,0,0-2.094-.392,4.8,4.8,0,0,0-2.025.392,1.224,1.224,0,0,0-.852,1.112Z" transform="translate(-769.971 -850.806)" fill="#fff"/>
      <path id="Path_106033" data-name="Path 106033" d="M819.325,861.487h3.2a8.707,8.707,0,0,1,5.525,1.707,5.588,5.588,0,0,1,2.19,4.66v10.3a.134.134,0,0,1-.031.1.129.129,0,0,0-.034.1h14.387v-4.577a18.785,18.785,0,0,1-8.829-2.354,6.1,6.1,0,0,1-3.267-5.362v-9.546a3.7,3.7,0,0,1,.719-2.19,6.655,6.655,0,0,1,1.994-1.8,10.449,10.449,0,0,1,3.006-1.21,17.285,17.285,0,0,1,7.619,0,10.473,10.473,0,0,1,3.041,1.21,6.693,6.693,0,0,1,1.992,1.8,3.712,3.712,0,0,1,.721,2.19v10.658a5.406,5.406,0,0,0,1.992-.785,3.711,3.711,0,0,0,1.144-1.21,5,5,0,0,0,.556-1.471,12.656,12.656,0,0,0,.231-1.57v-9.154a1.53,1.53,0,0,1,1.013-1.406,5.418,5.418,0,0,1,2.385-.49,5.968,5.968,0,0,1,2.55.49,1.536,1.536,0,0,1,1.048,1.406v29.62a1.534,1.534,0,0,1-1.048,1.406,5.967,5.967,0,0,1-2.55.491H822.2a2.293,2.293,0,0,1-2.094-.916,3.917,3.917,0,0,1-.589-2.158,4.447,4.447,0,0,1,.492-2.191,1.461,1.461,0,0,1,1.469-.817q1.768,0,1.767-1.569v-7a2.15,2.15,0,0,0-.558-1.635,2.68,2.68,0,0,0-1.862-.523h-1.5v11.377a3.518,3.518,0,0,1-.785,2.19,7.334,7.334,0,0,1-2.125,1.8,11.353,11.353,0,0,1-3.139,1.209,16.6,16.6,0,0,1-3.825.425,16.344,16.344,0,0,1-4.317-.555,11.923,11.923,0,0,1-3.334-1.406,9.532,9.532,0,0,1-2.222,1.471,7.442,7.442,0,0,1-3.138.556,9.222,9.222,0,0,1-2.681-.394,6.79,6.79,0,0,1-4.056-3.311,6.066,6.066,0,0,1-.652-2.917V867.847a5.577,5.577,0,0,1,2.188-4.655,8.731,8.731,0,0,1,5.527-1.705h2.746v-4.808a3.484,3.484,0,0,1,.783-2.178,7.328,7.328,0,0,1,2.125-1.785,11.4,11.4,0,0,1,3.14-1.2,16.892,16.892,0,0,1,3.891-.423,16.607,16.607,0,0,1,3.825.423,11.4,11.4,0,0,1,3.139,1.2,7.354,7.354,0,0,1,2.125,1.785,3.488,3.488,0,0,1,.785,2.178Zm-21.512,17.066a1.372,1.372,0,0,0,1.013-.36,2.184,2.184,0,0,0,.523-.85,3.331,3.331,0,0,0,.164-1.046v-8.6h-1.048a2.674,2.674,0,0,0-1.862.523,2.144,2.144,0,0,0-.558,1.635v7.192C796.045,878.053,796.636,878.552,797.813,878.552Zm8.695-17.066h5.821v-2.7a1.208,1.208,0,0,0-.852-1.093,5.041,5.041,0,0,0-2.092-.387,4.848,4.848,0,0,0-2.025.387,1.205,1.205,0,0,0-.852,1.093Zm5.821,6.212h-5.821v9.285a1.22,1.22,0,0,0,.852,1.112,4.793,4.793,0,0,0,2.025.392,4.983,4.983,0,0,0,2.092-.392,1.222,1.222,0,0,0,.852-1.112Zm27.135-4.577a8.207,8.207,0,0,0,.162,1.733,2.7,2.7,0,0,0,.686,1.308,3.846,3.846,0,0,0,1.539.916,10.667,10.667,0,0,0,2.714.49V858.61q0-1.5-2.617-1.5-2.484,0-2.483,1.5Zm16.02,15.235v-7.062c-.612.351-1.233.687-1.864,1.014a11.668,11.668,0,0,1-2.06.817v5.231Z" transform="translate(-754.396 -850.894)" fill="#fff"/>
      <path id="Path_106034" data-name="Path 106034" d="M831.35,862.3a3.838,3.838,0,0,1,.689-2.194,6.18,6.18,0,0,1,1.892-1.771,10.124,10.124,0,0,1,2.912-1.181,15.543,15.543,0,0,1,3.792-.427,15.269,15.269,0,0,1,3.727.427,10.573,10.573,0,0,1,2.942,1.181,6.08,6.08,0,0,1,1.927,1.771,3.839,3.839,0,0,1,.688,2.194v12a3.849,3.849,0,0,1-.688,2.2,6.425,6.425,0,0,1-1.927,1.8,10.03,10.03,0,0,1-2.942,1.213,15.362,15.362,0,0,1-3.727.425,12.349,12.349,0,0,1-6.7-1.638,4.719,4.719,0,0,1-2.581-4Zm6.995,9.924q0,1.507,2.225,1.5,2.354,0,2.354-1.5v-7.781q0-1.5-2.354-1.5-2.226,0-2.225,1.5Z" transform="translate(-719.868 -846.134)" fill="#fff"/>
    </g>
    <path id="Path_106103" data-name="Path 106103" d="M-18470.143-23505.068s-40.742-3.68-69.135,4.789c-6.572,2.256-15,5.27-22.24,10.457s-8.523,9.91-9.139,11.754c-5.045,15.145,20.27,34.809,72.789,38.385,52.516,3.592,135.951-8.525,145.309-30.611s-33.541-34.625-62.021-42.082c-26.158-8.857-58.863-6.08-58.863-6.08" transform="translate(18571.287 23518.869)" fill="none" stroke="#fed637" stroke-linecap="round" stroke-width="3"/>
  </g>
</svg>
