<svg xmlns="http://www.w3.org/2000/svg" width="20" height="17.99" viewBox="0 0 20 17.99">
  <g id="Free_-_ground" data-name="Free - ground" transform="translate(0 -0.026)">
    <g id="Ways_of_payment" transform="translate(0 0.026)">
      <path id="Path_3" data-name="Path 3" d="M17.468,4.067l-1.292-2.4A3.2,3.2,0,0,0,11.852.415L5.2,4.015h-2A3.2,3.2,0,0,0,0,7.215v7.6a3.2,3.2,0,0,0,3.2,3.2H16.8a3.2,3.2,0,0,0,3.2-3.2v-7.6a3.2,3.2,0,0,0-2.532-3.148ZM12.8,2.159a1.172,1.172,0,0,1,.568-.144,1.2,1.2,0,0,1,1.052.624l.736,1.376H9.408ZM18,14.815a1.2,1.2,0,0,1-1.2,1.2H3.2a1.2,1.2,0,0,1-1.2-1.2v-7.6a1.2,1.2,0,0,1,1.2-1.2H16.8a1.2,1.2,0,0,1,1.2,1.2Z" transform="translate(0 -0.026)" fill="#15232e"/>
      <rect id="Rectangle_4" data-name="Rectangle 4" width="12" height="2" rx="1" transform="translate(4 7.974)" fill="#00c569"/>
    </g>
  </g>
</svg>
