<svg xmlns="http://www.w3.org/2000/svg" xmlns:xlink="http://www.w3.org/1999/xlink" width="296.635" height="199.5" viewBox="0 0 296.635 199.5">
  <defs>
    <clipPath id="clip-path">
      <rect id="Rectangle_17991" data-name="Rectangle 17991" width="272" height="193" rx="6" transform="translate(21347 -6406)" fill="#003c3c"/>
    </clipPath>
    <clipPath id="clip-path-2">
      <rect id="Rectangle_18088" data-name="Rectangle 18088" width="253" height="185" transform="translate(0 0)" fill="none"/>
    </clipPath>
    <filter id="Path_106116" x="0" y="94.5" width="296.635" height="105" filterUnits="userSpaceOnUse">
      <feOffset input="SourceAlpha"/>
      <feGaussianBlur stdDeviation="9.5" result="blur"/>
      <feFlood flood-opacity="0.161"/>
      <feComposite operator="in" in2="blur"/>
      <feComposite in="SourceGraphic"/>
    </filter>
  </defs>
  <g id="Group_45173" data-name="Group 45173" transform="translate(-12.5 -112)">
    <g id="Group_45164" data-name="Group 45164">
      <g id="Group_45171" data-name="Group 45171">
        <rect id="Rectangle_17990" data-name="Rectangle 17990" width="272" height="193" rx="6" transform="translate(25 112)" fill="#003c3c"/>
        <g id="Mask_Group_290" data-name="Mask Group 290" transform="translate(-21322 6518)" clip-path="url(#clip-path)">
          <path id="Path_106115" data-name="Path 106115" d="M102.155,0A102.155,102.155,0,1,1,0,102.155,102.155,102.155,0,0,1,102.155,0Z" transform="translate(21286.689 -6481.796)" fill="#0fa76f"/>
        </g>
        <g id="Group_45017" data-name="Group 45017" transform="translate(30 117)" opacity="0.229">
          <g id="graphic_element" data-name="graphic element" transform="translate(0 0)">
            <g id="Group_45156" data-name="Group 45156" transform="translate(0 0)" style="mix-blend-mode: color-dodge;isolation: isolate">
              <g id="Group_45155" data-name="Group 45155" clip-path="url(#clip-path-2)">
                <g id="Group_45154" data-name="Group 45154" transform="translate(-494.276 -185.005)">
                  <path id="Path_106383" data-name="Path 106383" d="M463.092,324.382h55.1l19.382-9.681h27.97l14.541,17.479h79.921l16.778-8.739H726.56" transform="translate(-28.806 -68.819)" fill="none" stroke="#707070" stroke-width="1.2" opacity="0.82"/>
                  <path id="Path_106384" data-name="Path 106384" d="M463.092,335.871h55.427l19.707-9.86,25.027.179,15.1,17.479h81.653l16.778-8.739h75.5" transform="translate(-28.806 -75.198)" fill="none" stroke="#707070" stroke-width="1.2" opacity="0.82"/>
                  <path id="Path_106385" data-name="Path 106385" d="M463.092,342.7h55.427l19.707-9.86,25.027.179,15.1,17.479h81.653" transform="translate(-28.806 -79.047)" fill="none" stroke="#707070" stroke-width="1.2"/>
                  <path id="Path_106386" data-name="Path 106386" d="M583.715,434.276h-75.5l-16.778,8.739H463.092" transform="translate(-28.806 -136.253)" fill="none" stroke="#707070" stroke-width="1.2"/>
                  <path id="Path_106387" data-name="Path 106387" d="M463.092,410.344h28.343l16.778-8.739h75.5l11.02-8.4H632.61l10.445,7.962h40.309" transform="translate(-28.806 -113.091)" fill="none" stroke="#707070" stroke-width="1.2" opacity="0.82"/>
                  <path id="Path_106388" data-name="Path 106388" d="M464.443,416.93h28.343l16.778-8.739h75.5l11.02-8.4h37.876l10.445,7.962" transform="translate(-29.547 -116.805)" fill="none" stroke="#707070" stroke-width="1.2" opacity="0.82"/>
                  <path id="Path_106389" data-name="Path 106389" d="M677.9,260.189h28.343l16.778-8.739h75.5l11.02-8.4" transform="translate(-146.633 -28.412)" fill="none" stroke="#707070" stroke-width="1.2" opacity="0.82"/>
                  <path id="Path_106390" data-name="Path 106390" d="M792.906,591.135h37.876l10.445,7.962" transform="translate(-209.715 -224.712)" fill="none" stroke="#707070" stroke-width="1.2"/>
                  <path id="Path_106391" data-name="Path 106391" d="M757.78,608.258h37.876L806.1,616.22" transform="translate(-190.448 -234.368)" fill="none" stroke="#707070" stroke-width="1.2"/>
                  <path id="Path_106392" data-name="Path 106392" d="M684.657,277.312H713l16.778-8.739h75.5l11.02-8.4" transform="translate(-150.338 -38.069)" fill="none" stroke="#707070" stroke-width="1.2"/>
                  <path id="Path_106393" data-name="Path 106393" d="M101.65,34.368V-28.471l-9.281-15.8v-71.1l-8.92-10.377" transform="translate(179.435 179.564)" fill="none" stroke="#707070" stroke-width="1.2"/>
                  <path id="Path_106394" data-name="Path 106394" d="M101.012-132.327l8.92,10.377v71.1l9.281,15.8V31.8" transform="translate(169.802 183.278)" fill="none" stroke="#707070" stroke-width="1.2"/>
                  <path id="Path_106395" data-name="Path 106395" d="M-171.357,658.571H-238.09l-16.778,8.739h-75.5l-11.02,8.4" transform="translate(412.467 -262.742)" fill="none" stroke="#707070" stroke-width="1.2"/>
                  <path id="Path_106396" data-name="Path 106396" d="M-348.144,658.588l11.02-8.4h75.5l16.778-8.739h71" transform="translate(416.172 -253.086)" fill="none" stroke="#707070" stroke-width="1.2"/>
                  <path id="Path_106397" data-name="Path 106397" d="M464.443,433.062h28.343l16.778-8.739h75.5" transform="translate(-29.547 -130.639)" fill="none" stroke="#707070" stroke-width="1.2"/>
                  <line id="Line_12378" data-name="Line 12378" x2="89.674" transform="translate(434.286 269.387)" fill="none" stroke="#707070" stroke-width="1.2"/>
                  <path id="Path_106398" data-name="Path 106398" d="M612.057,504.528h-75.5l-16.778-8.739H463.092" transform="translate(-28.806 -170.942)" fill="none" stroke="#707070" stroke-width="1.2"/>
                  <path id="Path_106399" data-name="Path 106399" d="M634.395,519.3H541.96l-16.778-8.739H468.5" transform="translate(-31.77 -179.273)" fill="none" stroke="#707070" stroke-width="1.2"/>
                  <path id="Path_106400" data-name="Path 106400" d="M736.037,536.424H541.96l-16.778-8.739H468.5" transform="translate(-31.77 -188.93)" fill="none" stroke="#707070" stroke-width="1.2" opacity="0.82"/>
                  <path id="Path_106401" data-name="Path 106401" d="M468.666,293.459H574.854l18.821,21.158" transform="translate(-31.863 -56.84)" fill="none" stroke="#707070" stroke-width="1.2"/>
                  <path id="Path_106402" data-name="Path 106402" d="M463.092,277.062H578.479L602,305.026h42.356" transform="translate(-28.806 -47.593)" fill="none" stroke="#707070" stroke-width="1.2"/>
                  <path id="Path_106403" data-name="Path 106403" d="M308.681,538.487h0v42.221l-18.915,22v77.608" transform="translate(66.266 -195.022)" fill="none" stroke="#707070" stroke-width="1.2"/>
                  <path id="Path_106404" data-name="Path 106404" d="M269.74,538.487h0v42.221l-18.915,22V664.54l-12.611,14.67v63.14" transform="translate(94.544 -195.022)" fill="none" stroke="#707070" stroke-width="1.2"/>
                  <path id="Path_106405" data-name="Path 106405" d="M242.918,538.487v38.622l-18.44,21.45v56.5L208.1,674.111l-1.544,53.23" transform="translate(111.909 -195.022)" fill="none" stroke="#707070" stroke-width="1.2"/>
                  <line id="Line_12379" data-name="Line 12379" y2="34.155" transform="translate(345.607 343.466)" fill="none" stroke="#707070" stroke-width="1.2"/>
                  <line id="Line_12380" data-name="Line 12380" y2="46.114" transform="translate(335.27 343.466)" fill="none" stroke="#707070" stroke-width="1.2"/>
                  <line id="Line_12381" data-name="Line 12381" x2="48.972" transform="translate(434.286 244.789)" fill="none" stroke="#707070" stroke-width="1.2"/>
                  <path id="Path_106406" data-name="Path 106406" d="M243.638-77.871v46.114l-7.319,18.265" transform="translate(95.583 152.568)" fill="none" stroke="#707070" stroke-width="1.2"/>
                  <line id="Line_12382" data-name="Line 12382" y1="56.528" transform="translate(331.902 96.522)" fill="none" stroke="#707070" stroke-width="1.2"/>
                  <path id="Path_106407" data-name="Path 106407" d="M224.145,10.409,214.7.173V-15.965" transform="translate(107.44 117.656)" fill="none" stroke="#707070" stroke-width="1.2"/>
                  <line id="Line_12383" data-name="Line 12383" y2="97.003" transform="translate(308.395 406.087)" fill="none" stroke="#707070" stroke-width="1.2"/>
                  <path id="Path_106408" data-name="Path 106408" d="M182.25,538.487v45.966l10.974,12.765V655.06" transform="translate(125.241 -195.022)" fill="none" stroke="#707070" stroke-width="1.2"/>
                  <path id="Path_106409" data-name="Path 106409" d="M201.478,538.487v36.035l11.628,13.526-.519,27.109" transform="translate(114.694 -195.022)" fill="none" stroke="#707070" stroke-width="1.2"/>
                  <line id="Line_12384" data-name="Line 12384" y2="25.05" transform="translate(326.053 343.466)" fill="none" stroke="#707070" stroke-width="1.2"/>
                  <path id="Path_106410" data-name="Path 106410" d="M221.429,52.145h0V-7.306l18.915-22v-77.608" transform="translate(103.751 168.948)" fill="none" stroke="#707070" stroke-width="1.2"/>
                  <path id="Path_106411" data-name="Path 106411" d="M245.048-28.077h0V-87.529l18.915-22V-171.36l12.611-14.67v-63.14" transform="translate(90.795 249.17)" fill="none" stroke="#707070" stroke-width="1.2"/>
                  <path id="Path_106412" data-name="Path 106412" d="M266-8.667V-64.519l18.44-21.45v-56.5l16.377-19.051,1.544-53.23" transform="translate(79.305 229.76)" fill="none" stroke="#707070" stroke-width="1.2"/>
                  <line id="Line_12385" data-name="Line 12385" y1="51.386" transform="translate(354.521 169.707)" fill="none" stroke="#707070" stroke-width="1.2"/>
                  <line id="Line_12386" data-name="Line 12386" y1="63.345" transform="translate(364.858 157.748)" fill="none" stroke="#707070" stroke-width="1.2"/>
                  <line id="Line_12387" data-name="Line 12387" y1="97.003" transform="translate(389.903 63.191)" fill="none" stroke="#707070" stroke-width="1.2"/>
                  <path id="Path_106413" data-name="Path 106413" d="M358.11,83.657V17L346.535,3.53V-57.483" transform="translate(35.128 141.07)" fill="none" stroke="#707070" stroke-width="1.2"/>
                  <path id="Path_106414" data-name="Path 106414" d="M337.486,136.417V83.151L325.859,69.625l.519-27.109" transform="translate(46.469 84.677)" fill="none" stroke="#707070" stroke-width="1.2"/>
                  <path id="Path_106415" data-name="Path 106415" d="M343.081,170.858V117.593l-11.628-13.526" transform="translate(43.4 49.965)" fill="none" stroke="#707070" stroke-width="1.2"/>
                  <line id="Line_12388" data-name="Line 12388" y1="42.281" transform="translate(371.635 174.217)" fill="none" stroke="#707070" stroke-width="1.2"/>
                  <line id="Line_12389" data-name="Line 12389" x2="26.603" transform="translate(434.286 286.573)" fill="none" stroke="#707070" stroke-width="1.2"/>
                  <line id="Line_12390" data-name="Line 12390" x2="26.603" transform="translate(519.442 314.01)" fill="none" stroke="#707070" stroke-width="1.2"/>
                  <line id="Line_12391" data-name="Line 12391" x2="80.535" transform="translate(434.286 278.144)" fill="none" stroke="#707070" stroke-width="1.2"/>
                  <path id="Path_106416" data-name="Path 106416" d="M463.092,479.262h71.894l6.859,5.228H648.13" transform="translate(-28.806 -161.622)" fill="none" stroke="#707070" stroke-width="1.2"/>
                  <path id="Path_106417" data-name="Path 106417" d="M463.092,457.182h48.972l12.927-6.49H602.2" transform="translate(-28.806 -145.511)" fill="none" stroke="#707070" stroke-width="1.2"/>
                  <path id="Path_106418" data-name="Path 106418" d="M-209.628,504.492h-55.427l-19.707,9.86-25.027-.18-15.1-17.479h-81.653l-16.778,8.739h-75.5" transform="translate(498.821 -171.453)" fill="none" stroke="#707070" stroke-width="1.2"/>
                  <path id="Path_106419" data-name="Path 106419" d="M-97.514,479.227h-55.427l-19.706,9.86-25.027-.18-15.1-17.479h-81.653" transform="translate(386.708 -157.205)" fill="none" stroke="#707070" stroke-width="1.2"/>
                  <path id="Path_106420" data-name="Path 106420" d="M-129.5,401.816H-54l16.778-8.739H-8.877" transform="translate(296.241 -113.019)" fill="none" stroke="#707070" stroke-width="1.2"/>
                  <path id="Path_106421" data-name="Path 106421" d="M-125.892,412.251h-28.343l-16.778,8.739h-75.5l-11.02,8.4H-295.41l-10.445-7.962h-40.309" transform="translate(415.086 -123.832)" fill="none" stroke="#707070" stroke-width="1.2"/>
                  <path id="Path_106422" data-name="Path 106422" d="M195.922,12.7V-75.628L187-86v-35.666l8.455-9.835v-37.957" transform="translate(122.635 204.22)" fill="none" stroke="#707070" stroke-width="1.2"/>
                  <path id="Path_106423" data-name="Path 106423" d="M201.326,61.786V-26.54l-8.92-10.377V-72.583l8.455-9.835" transform="translate(119.67 155.132)" fill="none" stroke="#707070" stroke-width="1.2"/>
                  <path id="Path_106424" data-name="Path 106424" d="M186.465,78.457V-9.869l-8.92-10.377V-55.912" transform="translate(127.822 140.184)" fill="none" stroke="#707070" stroke-width="1.2"/>
                  <path id="Path_106425" data-name="Path 106425" d="M368.2,85.065l8.455-9.835V37.273" transform="translate(23.243 87.634)" fill="none" stroke="#707070" stroke-width="1.2"/>
                  <path id="Path_106426" data-name="Path 106426" d="M250.665,35.013l8.455-9.835V-12.779" transform="translate(87.714 115.86)" fill="none" stroke="#707070" stroke-width="1.2"/>
                  <path id="Path_106427" data-name="Path 106427" d="M256.069,35.013l8.455-9.835V-12.779" transform="translate(84.75 115.86)" fill="none" stroke="#707070" stroke-width="1.2"/>
                  <path id="Path_106428" data-name="Path 106428" d="M306.056,11.414l8.455-9.835V-15.413" transform="translate(57.331 117.345)" fill="none" stroke="#707070" stroke-width="1.2"/>
                  <path id="Path_106429" data-name="Path 106429" d="M204.731-124.252l8.455-9.835V-151.08" transform="translate(112.91 193.853)" fill="none" stroke="#707070" stroke-width="1.2"/>
                  <path id="Path_106430" data-name="Path 106430" d="M185.98,74.638,177.525,64.8V47.81" transform="translate(127.833 81.691)" fill="none" stroke="#707070" stroke-width="1.2"/>
                  <path id="Path_106431" data-name="Path 106431" d="M168.068,535.156v48.121l8.92,10.377" transform="translate(133.02 -193.143)" fill="none" stroke="#707070" stroke-width="1.2"/>
                  <line id="Line_12392" data-name="Line 12392" x1="89.674" transform="translate(199.52 316.285)" fill="none" stroke="#707070" stroke-width="1.2"/>
                  <path id="Path_106432" data-name="Path 106432" d="M-199.031,327.613h75.5l16.778,8.739h56.685" transform="translate(334.381 -76.101)" fill="none" stroke="#707070" stroke-width="1.2"/>
                  <path id="Path_106433" data-name="Path 106433" d="M-323.65,5.854l75.993,49.552,8.51,16.179,46.6,30.388" transform="translate(402.737 105.352)" fill="none" stroke="#707070" stroke-width="1.2"/>
                  <path id="Path_106434" data-name="Path 106434" d="M-233.489,174.489l10.2,15.29,49.615,25.814" transform="translate(353.282 10.252)" fill="none" stroke="#707070" stroke-width="1.2"/>
                  <path id="Path_106435" data-name="Path 106435" d="M-95.331,159.961l42.495,27.709,7.5,17.294" transform="translate(277.499 18.445)" fill="none" stroke="#707070" stroke-width="1.2"/>
                  <path id="Path_106436" data-name="Path 106436" d="M-433.784,295.717h92.435l16.778,8.739h56.685" transform="translate(463.147 -58.114)" fill="none" stroke="#707070" stroke-width="1.2"/>
                  <line id="Line_12393" data-name="Line 12393" x1="26.603" transform="translate(262.591 299.099)" fill="none" stroke="#707070" stroke-width="1.2"/>
                  <line id="Line_12394" data-name="Line 12394" x1="26.603" transform="translate(262.591 244.495)" fill="none" stroke="#707070" stroke-width="1.2"/>
                  <line id="Line_12395" data-name="Line 12395" y1="25.05" transform="translate(341.767 195.786)" fill="none" stroke="#707070" stroke-width="1.2"/>
                  <line id="Line_12396" data-name="Line 12396" y1="18.684" x2="19.842" transform="translate(420.62 214.247)" fill="none" stroke="#707070" stroke-width="1.2"/>
                  <line id="Line_12397" data-name="Line 12397" x1="26.603" transform="translate(177.435 268.79)" fill="none" stroke="#707070" stroke-width="1.2"/>
                  <line id="Line_12398" data-name="Line 12398" x1="80.535" transform="translate(208.659 307.528)" fill="none" stroke="#707070" stroke-width="1.2"/>
                  <path id="Path_106437" data-name="Path 106437" d="M-83.085,352.151h-71.894l-6.859-5.228H-268.122" transform="translate(372.279 -86.99)" fill="none" stroke="#707070" stroke-width="1.2"/>
                  <path id="Path_106438" data-name="Path 106438" d="M-27.283,372.6H-76.255l-12.927,6.49h-77.209" transform="translate(316.477 -101.471)" fill="none" stroke="#707070" stroke-width="1.2"/>
                  <path id="Path_106439" data-name="Path 106439" d="M353.138,538.487v17.078h20.373V689.028" transform="translate(31.506 -195.022)" fill="none" stroke="#707070" stroke-width="1.2"/>
                  <path id="Path_106440" data-name="Path 106440" d="M372.859,538.487v6.375h15.619v52.482" transform="translate(20.689 -195.022)" fill="none" stroke="#707070" stroke-width="1.2"/>
                  <path id="Path_106441" data-name="Path 106441" d="M365.2,801.647V702.561l-12.976,15.094V821.448" transform="translate(32.007 -287.549)" fill="none" stroke="#707070" stroke-width="1.2"/>
                  <path id="Path_106442" data-name="Path 106442" d="M664,618.085l-70.416-50.771-13.131-9.468,4.838,18.878,87.517,63.1" transform="translate(-93.179 -205.939)" fill="none" stroke="#707070" stroke-width="1.2"/>
                  <path id="Path_106443" data-name="Path 106443" d="M309.262,741.306V647.329L330.47,622.66l.658-16.685h10.507v21.184L319.3,653.134V712.7" transform="translate(55.573 -233.081)" fill="none" stroke="#707070" stroke-width="1.2"/>
                  <g id="Group_45145" data-name="Group 45145" transform="translate(508.697 393.105)">
                    <path id="Path_106444" data-name="Path 106444" d="M654.108,699.077l71.562,64.79,55.686-1.03" transform="translate(-642.279 -678.69)" fill="none" stroke="#707070" stroke-width="1.2"/>
                    <path id="Path_106445" data-name="Path 106445" d="M740.843,737.813l36.222-.67,31.1-30.462,69.573-1.286" transform="translate(-689.855 -682.253)" fill="none" stroke="#707070" stroke-width="1.2" opacity="0.82"/>
                    <path id="Path_106446" data-name="Path 106446" d="M848.626,802.6l34.616-33.9,21.816-.4" transform="translate(-748.975 -717.727)" fill="none" stroke="#707070" stroke-width="1.2"/>
                    <path id="Path_106447" data-name="Path 106447" d="M627.908,725.645l32.063,29.029,1.213,58.17,36.395,32.951" transform="translate(-627.908 -693.673)" fill="none" stroke="#707070" stroke-width="1.2"/>
                    <path id="Path_106448" data-name="Path 106448" d="M699.458,818.665l21.87,19.8.471,22.6,16.291,14.75" transform="translate(-667.154 -746.131)" fill="none" stroke="#707070" stroke-width="1.2"/>
                    <path id="Path_106449" data-name="Path 106449" d="M749.725,886.679l25.66-.474,20.892,18.915" transform="translate(-694.727 -784.219)" fill="none" stroke="#707070" stroke-width="1.2"/>
                    <path id="Path_106450" data-name="Path 106450" d="M838.9,698.768l-1.05-25.522,22.8-20.922" transform="translate(-743.065 -652.324)" fill="none" stroke="#707070" stroke-width="1.2"/>
                  </g>
                  <g id="Group_45146" data-name="Group 45146" transform="translate(50.666 410.354)">
                    <path id="Path_106451" data-name="Path 106451" d="M-160.4,718.581l-71.919,64.44-1.383,52.431" transform="translate(302.733 -706.938)" fill="none" stroke="#707070" stroke-width="1.2"/>
                    <path id="Path_106452" data-name="Path 106452" d="M-158.945,799.473l-.9,34.1,30.935,30.614.075,27.367" transform="translate(262.221 -752.556)" fill="none" stroke="#707070" stroke-width="1.2"/>
                    <path id="Path_106453" data-name="Path 106453" d="M-231.534,901.463l34.428,34.07-.542,20.54" transform="translate(301.544 -810.073)" fill="none" stroke="#707070" stroke-width="1.2"/>
                    <path id="Path_106454" data-name="Path 106454" d="M-256.034,691.88l-32.223,28.872-61.768-1.444L-386.6,752.081" transform="translate(386.601 -691.88)" fill="none" stroke="#707070" stroke-width="1.2"/>
                    <path id="Path_106455" data-name="Path 106455" d="M-271.647,757.435l-21.979,19.694-23.994-.561-16.372,14.67" transform="translate(357.745 -728.849)" fill="none" stroke="#707070" stroke-width="1.2"/>
                    <path id="Path_106456" data-name="Path 106456" d="M-294.74,803.344l-.637,24.16-21,18.813" transform="translate(348.08 -754.739)" fill="none" stroke="#707070" stroke-width="1.2"/>
                    <path id="Path_106457" data-name="Path 106457" d="M-140.846,897.15l39.236.918,19.48,19.277" transform="translate(251.8 -807.64)" fill="none" stroke="#707070" stroke-width="1.2"/>
                  </g>
                  <g id="Group_45147" data-name="Group 45147" transform="translate(551.197 86.977)">
                    <path id="Path_106458" data-name="Path 106458" d="M722.043,56.384l72.9-39.694,12.2-42.981" transform="translate(-722.043 36.502)" fill="none" stroke="#707070" stroke-width="1.2"/>
                    <path id="Path_106459" data-name="Path 106459" d="M872.794-3.459,863.1-21.628l7.411-28.08" transform="translate(-799.417 49.708)" fill="none" stroke="#707070" stroke-width="1.2"/>
                    <path id="Path_106460" data-name="Path 106460" d="M738.095,157.743l32.664-17.785L821.395,152.7l37.077-20.187" transform="translate(-730.848 -53.054)" fill="none" stroke="#707070" stroke-width="1.2"/>
                    <path id="Path_106461" data-name="Path 106461" d="M832.681,134.407l22.28-12.131,19.67,4.95,16.6-9.036" transform="translate(-782.73 -44.976)" fill="none" stroke="#707070" stroke-width="1.2"/>
                    <path id="Path_106462" data-name="Path 106462" d="M901.871,90.967l5.621-19.806,21.284-11.588" transform="translate(-820.682 -11.92)" fill="none" stroke="#707070" stroke-width="1.2"/>
                  </g>
                  <path id="Path_106463" data-name="Path 106463" d="M-218.023,546.171h48.972l19.4,6.892" transform="translate(344.798 -199.355)" fill="none" stroke="#707070" stroke-width="1.2"/>
                  <line id="Line_12399" data-name="Line 12399" x1="60.031" transform="translate(149.953 353.708)" fill="none" stroke="#707070" stroke-width="1.2"/>
                  <path id="Path_106464" data-name="Path 106464" d="M-126.518,562.66l-10.87,8.892h-17.138" transform="translate(309.969 -208.653)" fill="none" stroke="#707070" stroke-width="1.2"/>
                  <path id="Path_106465" data-name="Path 106465" d="M-207.069,628.992h-75.5l-11.02,8.4h-37.876l-10.445-7.962H-382.22" transform="translate(434.864 -246.061)" fill="none" stroke="#707070" stroke-width="1.2"/>
                  <path id="Path_106466" data-name="Path 106466" d="M-207.069,360.292h-75.5l-11.02,8.4h-37.876l-10.445-7.962H-382.22" transform="translate(434.864 -94.53)" fill="none" stroke="#707070" stroke-width="1.2"/>
                  <path id="Path_106467" data-name="Path 106467" d="M-222.687,549.34l10.445,7.962h37.876l11.02-8.4h75.5l35.172-28.319" transform="translate(347.356 -184.924)" fill="none" stroke="#707070" stroke-width="1.2"/>
                  <path id="Path_106468" data-name="Path 106468" d="M-199.552,564.293h37.876l11.02-8.4h75.5l36.707-30.042" transform="translate(334.667 -187.896)" fill="none" stroke="#707070" stroke-width="1.2"/>
                  <path id="Path_106469" data-name="Path 106469" d="M-264.623,582.476l-10.445-7.962h-18.046" transform="translate(385.987 -215.339)" fill="none" stroke="#707070" stroke-width="1.2"/>
                  <path id="Path_106470" data-name="Path 106470" d="M-60.622,601.039-71.066,609H-89.112" transform="translate(274.088 -230.297)" fill="none" stroke="#707070" stroke-width="1.2"/>
                  <path id="Path_106471" data-name="Path 106471" d="M54.027,536l-10.445,7.962H25.537" transform="translate(211.201 -193.617)" fill="none" stroke="#707070" stroke-width="1.2"/>
                  <path id="Path_106472" data-name="Path 106472" d="M-104.816,583.642" transform="translate(282.702 -220.486)" fill="none" stroke="#707070" stroke-width="1.2"/>
                  <path id="Path_106473" data-name="Path 106473" d="M511.9,678.511V621.984L497.712,601.5V575.9" transform="translate(-47.796 -216.122)" fill="none" stroke="#707070" stroke-width="1.2"/>
                  <path id="Path_106474" data-name="Path 106474" d="M475.42,673.243V616.715L461.235,596.23v-25.6" transform="translate(-27.787 -213.151)" fill="none" stroke="#707070" stroke-width="1.2"/>
                  <path id="Path_106475" data-name="Path 106475" d="M599.712,808.435V751.907l-14.185-20.485,3.05-71.795" transform="translate(-95.964 -263.337)" fill="none" stroke="#707070" stroke-width="1.2"/>
                  <path id="Path_106476" data-name="Path 106476" d="M579.5,795.029V745.921l-10.525-15.269,3.05-71.795" transform="translate(-86.882 -262.903)" fill="none" stroke="#707070" stroke-width="1.2"/>
                  <g id="Group_45148" data-name="Group 45148" transform="translate(413.929 337.955)">
                    <path id="Path_106477" data-name="Path 106477" d="M433.209,727.953V681.839l7.319-18.265" transform="translate(-426.344 -603.519)" fill="none" stroke="#707070" stroke-width="1.2"/>
                    <path id="Path_106478" data-name="Path 106478" d="M432.188,628.46V571.932L418,551.447v-25.6" transform="translate(-418.003 -525.851)" fill="none" stroke="#707070" stroke-width="1.2"/>
                    <path id="Path_106479" data-name="Path 106479" d="M450.122,688.823l9.443,10.236V715.2" transform="translate(-435.621 -617.758)" fill="none" stroke="#707070" stroke-width="1.2"/>
                  </g>
                  <path id="Path_106480" data-name="Path 106480" d="M536.335,620.112l-19.04-16.631-6.6-24.831" transform="translate(-54.918 -217.672)" fill="none" stroke="#707070" stroke-width="1.2"/>
                  <line id="Line_12400" data-name="Line 12400" y1="56.528" transform="translate(456.782 396.672)" fill="none" stroke="#707070" stroke-width="1.2"/>
                  <line id="Line_12401" data-name="Line 12401" y1="56.528" transform="translate(473.86 456.98)" fill="none" stroke="#707070" stroke-width="1.2"/>
                  <line id="Line_12402" data-name="Line 12402" y1="56.528" transform="translate(468.981 444.344)" fill="none" stroke="#707070" stroke-width="1.2"/>
                  <line id="Line_12403" data-name="Line 12403" y1="99.269" transform="translate(437.872 426.54)" fill="none" stroke="#707070" stroke-width="1.2"/>
                  <path id="Path_106481" data-name="Path 106481" d="M525.433,714.4l9.443,10.236V740.77" transform="translate(-63.001 -294.224)" fill="none" stroke="#707070" stroke-width="1.2"/>
                  <path id="Path_106482" data-name="Path 106482" d="M621.329,685.97l14.4.011,12.929,10.593" transform="translate(-115.602 -278.193)" fill="none" stroke="#707070" stroke-width="1.2"/>
                  <g id="Group_45149" data-name="Group 45149" transform="translate(453.955 337.08)">
                    <path id="Path_106483" data-name="Path 106483" d="M698.859,607.373l-42.006-23.7-12.875-15.3" transform="translate(-581.98 -548.952)" fill="none" stroke="#707070" stroke-width="1.2"/>
                    <path id="Path_106484" data-name="Path 106484" d="M607.418,565.133l-51.492-29.058L529.974,537l-23.316-13.158" transform="translate(-506.658 -523.844)" fill="none" stroke="#707070" stroke-width="1.2"/>
                    <path id="Path_106485" data-name="Path 106485" d="M666.552,577.7l14.178-2.365,14.7,8.3" transform="translate(-594.363 -552.882)" fill="none" stroke="#707070" stroke-width="1.2"/>
                  </g>
                  <path id="Path_106486" data-name="Path 106486" d="M938.163,570.367H889.191l-19.4-6.892" transform="translate(-251.89 -209.113)" fill="none" stroke="#707070" stroke-width="1.2"/>
                  <path id="Path_106487" data-name="Path 106487" d="M910.511,486.063H850.48l-21.755,13.357H801.543" transform="translate(-214.453 -165.457)" fill="none" stroke="#707070" stroke-width="1.2" opacity="0.82"/>
                  <path id="Path_106488" data-name="Path 106488" d="M761.943,481.484l10.87-8.892h17.138" transform="translate(-192.731 -157.861)" fill="none" stroke="#707070" stroke-width="1.2"/>
                  <path id="Path_106489" data-name="Path 106489" d="M443.672-95.21l12.809-13.161v-57.2" transform="translate(-18.154 202.024)" fill="none" stroke="#707070" stroke-width="1.2"/>
                  <path id="Path_106490" data-name="Path 106490" d="M472.043-114,479.973-122V-141.86" transform="translate(-33.716 188.654)" fill="none" stroke="#707070" stroke-width="1.2"/>
                  <path id="Path_106491" data-name="Path 106491" d="M612.547,679.385v39.631l31.108,31.59" transform="translate(-110.785 -274.479)" fill="none" stroke="#707070" stroke-width="1.2"/>
                  <path id="Path_106492" data-name="Path 106492" d="M657.131-17.1l27.448-1.149L726.97-55.587" transform="translate(-135.24 140.001)" fill="none" stroke="#707070" stroke-width="1.2"/>
                  <path id="Path_106493" data-name="Path 106493" d="M797.352,547.851l10.445,7.962h72.941" transform="translate(-212.154 -200.302)" fill="none" stroke="#707070" stroke-width="1.2"/>
                  <path id="Path_106494" data-name="Path 106494" d="M471.643,700.841" transform="translate(-33.496 -286.579)" fill="none" stroke="#707070" stroke-width="1.2"/>
                  <g id="Group_45150" data-name="Group 45150" transform="translate(451.905 144.186)">
                    <path id="Path_106495" data-name="Path 106495" d="M623.888,81.486l-32.142,30.266-17.534,7.464" transform="translate(-541.663 -81.486)" fill="none" stroke="#707070" stroke-width="1.2"/>
                    <path id="Path_106496" data-name="Path 106496" d="M564.327,103.963l-39.4,37.1-4.968,22.211-17.841,16.8" transform="translate(-502.118 -94.161)" fill="none" stroke="#707070" stroke-width="1.2"/>
                    <path id="Path_106497" data-name="Path 106497" d="M590.75,121.057l.937-12.554,11.248-10.592" transform="translate(-550.734 -90.749)" fill="none" stroke="#707070" stroke-width="1.2"/>
                  </g>
                  <line id="Line_12404" data-name="Line 12404" x2="105.421" transform="translate(16.39 343.862)" fill="none" stroke="#707070" stroke-width="1.2"/>
                  <path id="Path_106498" data-name="Path 106498" d="M-141.11,291.1h0l-63.132-.622-23.167-18.04-37.416-.369-28.242-.278-15.446-12.028-67.05-.66" transform="translate(431.212 -37.468)" fill="none" stroke="#707070" stroke-width="1.2"/>
                  <path id="Path_106499" data-name="Path 106499" d="M-121.466,265l-59.311-.584-22.585-17.587-35.489-.35-24.511-.241-20.059-15.62-56.509-2.011" transform="translate(411.666 -20.266)" fill="none" stroke="#707070" stroke-width="1.2"/>
                  <path id="Path_106500" data-name="Path 106500" d="M-319.646,264.176l20.737.2,6.15-4.535" transform="translate(400.541 -37.885)" fill="none" stroke="#707070" stroke-width="1.2"/>
                  <path id="Path_106501" data-name="Path 106501" d="M433.939,539.108l-.227,16.223h33.027l104.713,98.6" transform="translate(-12.691 -195.372)" fill="none" stroke="#707070" stroke-width="1.2"/>
                  <path id="Path_106502" data-name="Path 106502" d="M582.506-111.91,528.589-45.6,518.534-33.238l20.047-4.556,67.012-82.41" transform="translate(-59.217 176.441)" fill="none" stroke="#707070" stroke-width="1.2"/>
                  <path id="Path_106503" data-name="Path 106503" d="M639.143,11.365l.012-13.559L650.4-14.368" transform="translate(-125.373 116.756)" fill="none" stroke="#707070" stroke-width="1.2"/>
                  <g id="Group_45151" data-name="Group 45151" transform="translate(407.22 64.516)">
                    <path id="Path_106504" data-name="Path 106504" d="M570.748-101.217,545.574-61.663,529.325-49.539" transform="translate(-472.356 101.217)" fill="none" stroke="#707070" stroke-width="1.2"/>
                    <path id="Path_106505" data-name="Path 106505" d="M483.341-66.41,452.482-17.923l.984,24.437L403.142,69.837" transform="translate(-403.142 81.588)" fill="none" stroke="#707070" stroke-width="1.2"/>
                    <path id="Path_106506" data-name="Path 106506" d="M538.985-39.882l-2.512-13.351,8.81-13.842" transform="translate(-476.277 81.963)" fill="none" stroke="#707070" stroke-width="1.2"/>
                  </g>
                  <g id="Group_45152" data-name="Group 45152" transform="translate(467.3 196.81)">
                    <path id="Path_106507" data-name="Path 106507" d="M832.347,231.3l-48.893,2.624-19.782-5.842" transform="translate(-660.98 -216.783)" fill="none" stroke="#707070" stroke-width="1.2"/>
                    <path id="Path_106508" data-name="Path 106508" d="M684.025,222.532l-59.933,3.217-20.912,14.5-66.964,1.034" transform="translate(-536.216 -213.651)" fill="none" stroke="#707070" stroke-width="1.2"/>
                    <path id="Path_106509" data-name="Path 106509" d="M789.489,212.545l10.315-9.46,17.11-.918" transform="translate(-675.141 -202.166)" fill="none" stroke="#707070" stroke-width="1.2"/>
                  </g>
                  <path id="Path_106510" data-name="Path 106510" d="M734.95,26.931l13.364-1.325,12.76-12.016" transform="translate(-177.925 100.989)" fill="none" stroke="#707070" stroke-width="1.2"/>
                  <path id="Path_106511" data-name="Path 106511" d="M729.969-12.656l3-12.334,14.2-10.485" transform="translate(-175.193 128.659)" fill="none" stroke="#707070" stroke-width="1.2"/>
                  <path id="Path_106512" data-name="Path 106512" d="M632.388,15.323h42.087l33.547-29.292" transform="translate(-121.668 116.531)" fill="none" stroke="#707070" stroke-width="1.2"/>
                  <path id="Path_106513" data-name="Path 106513" d="M447.725,87.983,477.613,54.1l5.753-25.374,104.712-98.6" transform="translate(-20.377 148.061)" fill="none" stroke="#707070" stroke-width="1.2"/>
                  <line id="Line_12405" data-name="Line 12405" y1="90.663" x2="79.967" transform="translate(415.759 133.32)" fill="none" stroke="#707070" stroke-width="1.2"/>
                  <path id="Path_106514" data-name="Path 106514" d="M411.248,124.618l29.888-33.887,5.753-25.374" transform="translate(-0.369 71.796)" fill="none" stroke="#707070" stroke-width="1.2"/>
                  <path id="Path_106515" data-name="Path 106515" d="M-7.243,783.891l53.918-66.307,10.055-12.365-20.047,4.556-67.012,82.41" transform="translate(241.845 -289.048)" fill="none" stroke="#707070" stroke-width="1.2"/>
                  <path id="Path_106516" data-name="Path 106516" d="M17.4,745.074l-.012,13.559L6.14,770.807" transform="translate(221.841 -311.524)" fill="none" stroke="#707070" stroke-width="1.2"/>
                  <path id="Path_106517" data-name="Path 106517" d="M-49.178,778.463l-13.364,1.325L-75.3,791.8" transform="translate(266.514 -330.354)" fill="none" stroke="#707070" stroke-width="1.2"/>
                  <path id="Path_106518" data-name="Path 106518" d="M-54.052,736.513H-96.139L-129.686,765.8" transform="translate(296.344 -306.696)" fill="none" stroke="#707070" stroke-width="1.2"/>
                  <line id="Line_12406" data-name="Line 12406" x1="69.84" y2="56.287" transform="translate(137.926 398.587)" fill="none" stroke="#707070" stroke-width="1.2"/>
                  <line id="Line_12407" data-name="Line 12407" x1="69.84" y2="56.287" transform="translate(151.345 393.993)" fill="none" stroke="#707070" stroke-width="1.2"/>
                  <path id="Path_106519" data-name="Path 106519" d="M7.088,641.187l-15.554,2.3-33.547,29.292" transform="translate(248.254 -252.938)" fill="none" stroke="#707070" stroke-width="1.2"/>
                  <path id="Path_106520" data-name="Path 106520" d="M33.57,562.372l-17.229-.214v31.1l-104.712,98.6" transform="translate(273.682 -208.37)" fill="none" stroke="#707070" stroke-width="1.2"/>
                  <path id="Path_106521" data-name="Path 106521" d="M-34.4,543.2-6.389,530.8H39.273" transform="translate(244.079 -190.689)" fill="none" stroke="#707070" stroke-width="1.2"/>
                  <path id="Path_106522" data-name="Path 106522" d="M86.168,550.122,32.119,609.393v43.293l30.252,28.486V706.4" transform="translate(207.591 -201.583)" fill="none" stroke="#707070" stroke-width="1.2"/>
                  <path id="Path_106523" data-name="Path 106523" d="M418,516.058l13.123,20.023H457.04l51.811,48.787" transform="translate(-4.074 -182.373)" fill="none" stroke="#707070" stroke-width="1.2"/>
                  <path id="Path_106524" data-name="Path 106524" d="M422.056,493.848l13.123,20.023h25.914L512.9,562.658" transform="translate(-6.297 -169.848)" fill="none" stroke="#707070" stroke-width="1.2"/>
                  <path id="Path_106525" data-name="Path 106525" d="M422.056,509.654l12.513,18.3h25.914l51.811,48.787" transform="translate(-6.297 -178.761)" fill="none" stroke="#707070" stroke-width="1.2"/>
                  <path id="Path_106526" data-name="Path 106526" d="M-273.679-26.152l72,51.911,13.426,9.68-4.947-19.3-89.481-64.517" transform="translate(380.266 135.936)" fill="none" stroke="#707070" stroke-width="1.2"/>
                  <path id="Path_106527" data-name="Path 106527" d="M62.7,3.331v57.8L77.2,82.072v26.17" transform="translate(190.817 106.774)" fill="none" stroke="#707070" stroke-width="1.2"/>
                  <path id="Path_106528" data-name="Path 106528" d="M-27.086-190.595v57.8l14.5,20.945L-15.7-38.449" transform="translate(240.066 216.137)" fill="none" stroke="#707070" stroke-width="1.2"/>
                  <path id="Path_106529" data-name="Path 106529" d="M-1.87-160.18v50.209L8.891-94.359,5.773-20.953" transform="translate(226.234 198.985)" fill="none" stroke="#707070" stroke-width="1.2"/>
                  <path id="Path_106530" data-name="Path 106530" d="M23.486,143.895l19.468,17L49.7,186.286" transform="translate(212.326 27.505)" fill="none" stroke="#707070" stroke-width="1.2"/>
                  <line id="Line_12408" data-name="Line 12408" y2="57.796" transform="translate(261 119.502)" fill="none" stroke="#707070" stroke-width="1.2"/>
                  <line id="Line_12409" data-name="Line 12409" y2="57.796" transform="translate(302.477 161.43)" fill="none" stroke="#707070" stroke-width="1.2"/>
                  <line id="Line_12410" data-name="Line 12410" y2="57.796" transform="translate(243.538 57.841)" fill="none" stroke="#707070" stroke-width="1.2"/>
                  <line id="Line_12411" data-name="Line 12411" y2="57.796" transform="translate(248.527 70.76)" fill="none" stroke="#707070" stroke-width="1.2"/>
                  <path id="Path_106531" data-name="Path 106531" d="M54.781,66.872,45.126,56.407v-16.5" transform="translate(200.456 86.148)" fill="none" stroke="#707070" stroke-width="1.2"/>
                  <path id="Path_106532" data-name="Path 106532" d="M-65.515,117.361l-14.722-.011-13.219-10.831" transform="translate(276.471 48.583)" fill="none" stroke="#707070" stroke-width="1.2"/>
                  <g id="Group_45153" data-name="Group 45153" transform="translate(144.999 176.772)">
                    <path id="Path_106533" data-name="Path 106533" d="M-177.66,156.215l42.949,24.237,13.164,15.644" transform="translate(177.66 -156.215)" fill="none" stroke="#707070" stroke-width="1.2"/>
                    <path id="Path_106534" data-name="Path 106534" d="M-141.157,196.384l52.647,29.71,26.534-.947L-38.136,238.6" transform="translate(157.637 -178.868)" fill="none" stroke="#707070" stroke-width="1.2"/>
                    <path id="Path_106535" data-name="Path 106535" d="M-112.328,227.16l-14.5,2.418-15.03-8.482" transform="translate(158.02 -192.805)" fill="none" stroke="#707070" stroke-width="1.2"/>
                  </g>
                  <path id="Path_106536" data-name="Path 106536" d="M-84.183,50.487-85.621,37.62-98.668,25.335" transform="translate(279.33 94.366)" fill="none" stroke="#707070" stroke-width="1.2"/>
                  <path id="Path_106537" data-name="Path 106537" d="M-61.232,43.943V3.423l-31.806-32.3" transform="translate(276.241 124.937)" fill="none" stroke="#707070" stroke-width="1.2"/>
                  <path id="Path_106538" data-name="Path 106538" d="M-11.073,129.71l.232-16.587H-44.609L-151.671,12.308" transform="translate(308.403 101.712)" fill="none" stroke="#707070" stroke-width="1.2"/>
                  <path id="Path_106539" data-name="Path 106539" d="M56.715,213.858,43.3,193.385H16.8L-36.172,143.5" transform="translate(245.049 27.726)" fill="none" stroke="#707070" stroke-width="1.2"/>
                  <path id="Path_106540" data-name="Path 106540" d="M45.907,228.347,32.489,207.874H5.994l-52.973-49.882" transform="translate(250.978 19.555)" fill="none" stroke="#707070" stroke-width="1.2"/>
                  <path id="Path_106541" data-name="Path 106541" d="M374.435,1.746l19.67-24.377,1.83-113.96" transform="translate(19.824 185.683)" fill="none" stroke="#707070" stroke-width="1.2"/>
                  <path id="Path_106542" data-name="Path 106542" d="M394.7,8.331l19.67-24.377,1.83-113.96" transform="translate(8.708 181.969)" fill="none" stroke="#707070" stroke-width="1.2"/>
                  <path id="Path_106543" data-name="Path 106543" d="M441.315-56.7l27.451-33.5v-32.895l21.955-27.987" transform="translate(-16.861 193.853)" fill="none" stroke="#707070" stroke-width="1.2"/>
                  <line id="Line_12412" data-name="Line 12412" y1="15.875" x2="12.68" transform="translate(461.265 66.593)" fill="none" stroke="#707070" stroke-width="1.2"/>
                  <path id="Path_106544" data-name="Path 106544" d="M546.23,146h31.025l23.958-22.968,73.16-37.683" transform="translate(-74.409 60.522)" fill="none" stroke="#707070" stroke-width="1.2"/>
                  <path id="Path_106545" data-name="Path 106545" d="M550.746,155h25.447l24.653-21.986,43.74-23.684" transform="translate(-76.886 46.996)" fill="none" stroke="#707070" stroke-width="1.2"/>
                  <path id="Path_106546" data-name="Path 106546" d="M694.568,94.591V83.442l47.561-26.875" transform="translate(-155.775 76.753)" fill="none" stroke="#707070" stroke-width="1.2"/>
                  <path id="Path_106547" data-name="Path 106547" d="M558.394,162.815l20.211-1.212,19.78-14.73" transform="translate(-81.081 25.826)" fill="none" stroke="#707070" stroke-width="1.2"/>
                  <path id="Path_106548" data-name="Path 106548" d="M552.282,183.848l36.166-1.928,22.023-21.108,54.347-27.505" transform="translate(-77.728 33.476)" fill="none" stroke="#707070" stroke-width="1.2"/>
                  <path id="Path_106549" data-name="Path 106549" d="M646.973,211.29l20.445-18.362,24.062-9.5" transform="translate(-129.668 5.208)" fill="none" stroke="#707070" stroke-width="1.2"/>
                  <path id="Path_106550" data-name="Path 106550" d="M668.015,201.336l9.088,2.921,50.461-23.6" transform="translate(-141.21 6.776)" fill="none" stroke="#707070" stroke-width="1.2"/>
                </g>
              </g>
            </g>
          </g>
        </g>
      </g>
      <g id="Group_45158" data-name="Group 45158" transform="translate(-12 -6)">
        <g id="Group_45010" data-name="Group 45010" transform="translate(-1 -34)">
          <g transform="matrix(1, 0, 0, 1, 25.5, 152)" filter="url(#Path_106116)">
            <path id="Path_106116-2" data-name="Path 106116" d="M6.719,0h226.2c3.711,0,6.719,2.686,6.719,6V42c0,3.314-3.008,6-6.719,6H6.719C3.008,48,0,45.314,0,42V6C0,2.686,3.008,0,6.719,0Z" transform="translate(28.5 123)" fill="#fff"/>
          </g>
          <g id="Group_45009" data-name="Group 45009" transform="translate(107.745 290)">
            <text id="Go_to_Tefun" data-name="Go to Tefun" transform="translate(106.254 15)" fill="#0fa76f" font-size="18" font-family="Gordita-Medium, Gordita" font-weight="500"><tspan x="-105" y="0">Go to Tefun</tspan></text>
            <g id="Icon_feather-arrow-right" data-name="Icon feather-arrow-right" transform="translate(116.01 1)">
              <path id="Path_94875" data-name="Path 94875" d="M7.5,18H23.025" transform="translate(-7.5 -11.049)" fill="none" stroke="#0fa76f" stroke-linecap="round" stroke-linejoin="round" stroke-width="2.5"/>
              <path id="Path_94876" data-name="Path 94876" d="M18,7.5l7.805,6.951L18,21.4" transform="translate(-10.28 -7.5)" fill="none" stroke="#0fa76f" stroke-linecap="round" stroke-linejoin="round" stroke-width="2.5"/>
            </g>
          </g>
        </g>
        <g id="Group_45157" data-name="Group 45157" transform="translate(56.705 138.584)">
          <path id="Rectangle_4061" data-name="Rectangle 4061" d="M0,0H3A5,5,0,0,1,8,5V29a5,5,0,0,1-5,5H0a0,0,0,0,1,0,0V0A0,0,0,0,1,0,0Z" transform="translate(-3.705 109.416)" fill="#15bf81"/>
        </g>
      </g>
    </g>
    <g id="Group_45172" data-name="Group 45172" transform="translate(2 -13)">
      <g id="Group_45016" data-name="Group 45016" transform="translate(40 154.623)">
        <g id="Group_45013" data-name="Group 45013" style="mix-blend-mode: normal;isolation: isolate">
          <path id="Path_106043" data-name="Path 106043" d="M1017.913,863.048a1.677,1.677,0,0,1-.375,1.048,3.472,3.472,0,0,1-1.017.86,5.359,5.359,0,0,1-1.518.579,8.1,8.1,0,0,1-1.845.2,7.9,7.9,0,0,1-1.831-.2,5.6,5.6,0,0,1-1.517-.579,3.431,3.431,0,0,1-1.033-.86,1.677,1.677,0,0,1-.376-1.048v-9.7a.585.585,0,0,0-.407-.532,2.442,2.442,0,0,0-1.878,0,.893.893,0,0,0-.5.438v11.577a.735.735,0,0,1-.5.673,2.784,2.784,0,0,1-1.19.235,2.7,2.7,0,0,1-1.159-.235.735.735,0,0,1-.5-.673V853.254a.884.884,0,0,0-.5-.438,2.223,2.223,0,0,0-.939-.188,2.335,2.335,0,0,0-.955.188.588.588,0,0,0-.422.532v11.483a.732.732,0,0,1-.485.673,2.757,2.757,0,0,1-1.2.235,2.7,2.7,0,0,1-1.158-.235.734.734,0,0,1-.5-.673V852.346a2.26,2.26,0,0,1,1.19-1.909,5.546,5.546,0,0,1,3.1-.782c.208,0,.464.011.767.031a5.494,5.494,0,0,1,.954.156,4.76,4.76,0,0,1,.97.36,2.941,2.941,0,0,1,.845.641,2.879,2.879,0,0,1,.86-.641,5.217,5.217,0,0,1,.97-.36,5.162,5.162,0,0,1,.939-.156c.3-.02.568-.031.8-.031a5.471,5.471,0,0,1,3.082.782,2.265,2.265,0,0,1,1.173,1.909v9.7a.588.588,0,0,0,.422.532,2.324,2.324,0,0,0,.954.188,2.486,2.486,0,0,0,1.016-.188.587.587,0,0,0,.423-.532V850.563a.733.733,0,0,1,.485-.674,2.605,2.605,0,0,1,1.142-.234,2.877,2.877,0,0,1,1.22.234.735.735,0,0,1,.5.674Z" transform="translate(-996.104 -844.085)" fill="#fff"/>
          <path id="Path_106044" data-name="Path 106044" d="M1033.606,853.35q0-.722-1.063-.722-.97,0-1,.568v2.711a.741.741,0,0,1-.5.679,2.856,2.856,0,0,1-1.22.236,2.6,2.6,0,0,1-1.142-.236.739.739,0,0,1-.484-.679v-2.648q-.094-.629-1.065-.63c-.667,0-1,.242-1,.725v2.585a.739.739,0,0,1-.5.678,2.844,2.844,0,0,1-1.22.237,2.588,2.588,0,0,1-1.141-.235.732.732,0,0,1-.486-.673v-3.567a2.052,2.052,0,0,1,.3-1.064,2.786,2.786,0,0,1,.814-.86,4.611,4.611,0,0,1,2.581-.8,6.694,6.694,0,0,1,2.1.266,2.739,2.739,0,0,1,1.284.892,2.93,2.93,0,0,1,1.3-.892,6.179,6.179,0,0,1,1.987-.266,5.167,5.167,0,0,1,1.471.2,3.938,3.938,0,0,1,1.2.579,3.222,3.222,0,0,1,.83.86,1.905,1.905,0,0,1,.313,1.048v8.574a6.913,6.913,0,0,1-.329,2.3,3.241,3.241,0,0,1-1.033,1.487,4.253,4.253,0,0,1-1.784.8,12.476,12.476,0,0,1-2.613.235,12.658,12.658,0,0,1-2.643-.235,4.132,4.132,0,0,1-1.769-.8,3.193,3.193,0,0,1-1-1.487,7.24,7.24,0,0,1-.313-2.3v-1.314a.733.733,0,0,1,.5-.673,2.7,2.7,0,0,1,1.158-.234,2.759,2.759,0,0,1,1.206.234.733.733,0,0,1,.485.673v1.438a1.626,1.626,0,0,0,.265.987,1.514,1.514,0,0,0,.641.516,2.523,2.523,0,0,0,.783.188c.27.021.5.031.688.031q.312,0,.736-.031a2.537,2.537,0,0,0,.8-.188,1.41,1.41,0,0,0,.625-.518,1.71,1.71,0,0,0,.25-.988Z" transform="translate(-999.594 -844.085)" fill="#fff"/>
          <path id="Path_106045" data-name="Path 106045" d="M1041.617,868.223a.955.955,0,0,1-.781-.533,2.084,2.084,0,0,1-.344-1.157,3.18,3.18,0,0,1,.235-1.2q.233-.579.672-.579a24.666,24.666,0,0,0,2.926-.2,34.366,34.366,0,0,0,3.411-.595q1.736-.391,3.427-.954a19.964,19.964,0,0,0,3.019-1.267,8.639,8.639,0,0,0,2.144-1.533,2.533,2.533,0,0,0,.814-1.8v-5.163a.616.616,0,0,0-.412-.548,2.191,2.191,0,0,0-.981-.2,2,2,0,0,0-.95.219.943.943,0,0,0-.506.532v7.635a.84.84,0,0,1-.527.657,2.6,2.6,0,0,1-1.116.219,2.983,2.983,0,0,1-1.209-.219.721.721,0,0,1-.5-.688v-6.6a1.19,1.19,0,0,0-.456-.986,3.052,3.052,0,0,0-1.053-.532,5.33,5.33,0,0,0-1.194-.2c-.4-.02-.7-.03-.911-.03s-.5.01-.881.03a4.587,4.587,0,0,0-1.115.2,2.625,2.625,0,0,0-.96.532,1.248,1.248,0,0,0-.408.986l.027.751a1.712,1.712,0,0,1,.9-.5,6.655,6.655,0,0,1,1.213-.094,4.125,4.125,0,0,1,1.246.187,2.948,2.948,0,0,1,1.042.579,2.7,2.7,0,0,1,.716,1.034,4.055,4.055,0,0,1,.265,1.549v2.253a2.259,2.259,0,0,1-1.2,1.909,5.715,5.715,0,0,1-3.165.782,5.8,5.8,0,0,1-3.18-.782,2.255,2.255,0,0,1-1.216-1.909V854.36a5.009,5.009,0,0,1,.484-2.316,3.854,3.854,0,0,1,1.36-1.5,5.889,5.889,0,0,1,2.124-.8,14.925,14.925,0,0,1,2.749-.235,13.944,13.944,0,0,1,2.92.3,6.011,6.011,0,0,1,2.3.955,2.832,2.832,0,0,1,.86-.688,4.453,4.453,0,0,1,1-.375,5.92,5.92,0,0,1,.985-.157c.312-.021.583-.032.812-.032a5.146,5.146,0,0,1,3.093.861,3.016,3.016,0,0,1,1.187,2.613v6.008a2.839,2.839,0,0,1-.388,1.408,6.944,6.944,0,0,1-1.006,1.345,2.244,2.244,0,0,1,1.394,2.065v1.814a2.145,2.145,0,0,1-1.124,1.894,5.591,5.591,0,0,1-3,.7,5.838,5.838,0,0,1-3.012-.68,1.949,1.949,0,0,1-1.139-1.661v-.157q-1.409.568-2.861,1.027t-2.861.791q-1.406.33-2.656.506A16.387,16.387,0,0,1,1041.617,868.223Zm4.413-9.982q0-.876-1.048-.876a1.343,1.343,0,0,0-.7.188.668.668,0,0,0-.319.626v.781q0,.752,1.017.752,1.048,0,1.048-.752Zm11.109,6.2q0-.438-.814-.438h-.282a.385.385,0,0,0-.219.063l-.187.125a.263.263,0,0,0-.158.219v.469q0,.375.845.375.814,0,.814-.375Z" transform="translate(-1001.911 -844.066)" fill="#fff"/>
          <path id="Path_106046" data-name="Path 106046" d="M1069.19,849.655a7.682,7.682,0,0,1,.768.047,6.905,6.905,0,0,1,.954.172,5.166,5.166,0,0,1,.986.36.9.9,0,0,0,1.721,0,5.222,5.222,0,0,1,.97-.36,6.343,6.343,0,0,1,.954-.172c.312-.031.573-.047.782-.047a5.469,5.469,0,0,1,3.081.782,2.266,2.266,0,0,1,1.174,1.909v12.485a.734.734,0,0,1-.485.673,2.6,2.6,0,0,1-1.142.235,2.864,2.864,0,0,1-1.221-.235.734.734,0,0,1-.5-.673V853.348a.585.585,0,0,0-.406-.532,2.3,2.3,0,0,0-.971-.188,2.246,2.246,0,0,0-.922.188c-.281.125-.444.271-.485.438v11.577a.736.736,0,0,1-.516.673,2.805,2.805,0,0,1-1.173.235,2.7,2.7,0,0,1-1.158-.235.734.734,0,0,1-.5-.673V853.254a.893.893,0,0,0-.516-.438,2.253,2.253,0,0,0-.923-.188,2.3,2.3,0,0,0-.97.188.583.583,0,0,0-.406.532v11.483a.733.733,0,0,1-.485.673,2.757,2.757,0,0,1-1.2.235,2.676,2.676,0,0,1-1.174-.235.731.731,0,0,1-.484-.673V852.346a2.265,2.265,0,0,1,1.173-1.909A5.471,5.471,0,0,1,1069.19,849.655Z" transform="translate(-1005.108 -844.085)" fill="#fff"/>
          <path id="Path_106047" data-name="Path 106047" d="M1084.923,850.563a.734.734,0,0,1,.486-.674,2.609,2.609,0,0,1,1.142-.234,2.88,2.88,0,0,1,1.22.234.737.737,0,0,1,.5.674v18.055a2.253,2.253,0,0,1-1.221,1.909,5.837,5.837,0,0,1-3.191.782,7.338,7.338,0,0,1-1.784-.2,4.611,4.611,0,0,1-1.393-.579,2.95,2.95,0,0,1-.893-.861,1.91,1.91,0,0,1-.312-1.047V866.9a.724.724,0,0,1,.5-.688,2.865,2.865,0,0,1,1.158-.219,2.919,2.919,0,0,1,1.2.219.721.721,0,0,1,.485.688v.72c0,.48.335.72,1,.72q1.095,0,1.1-.72Z" transform="translate(-1007.011 -844.085)" fill="#fff"/>
          <path id="Path_106048" data-name="Path 106048" d="M1096.95,858.679a3.564,3.564,0,0,0,1.032-1.466,3.973,3.973,0,0,0,.188-1v-2.87q0-.343-.574-.529a3.717,3.717,0,0,0-1.163-.188,3.261,3.261,0,0,0-1.069.188q-.542.188-.541.532v5.57c0,.292-.194.516-.579.673a3.177,3.177,0,0,1-1.205.235,2.416,2.416,0,0,1-1.1-.235.733.733,0,0,1-.47-.673v-6.571a1.535,1.535,0,0,1,.438-1.048,4.142,4.142,0,0,1,1.142-.86,6.429,6.429,0,0,1,1.611-.579,8.276,8.276,0,0,1,3.646,0,6.748,6.748,0,0,1,1.611.579,4.054,4.054,0,0,1,1.158.86,1.538,1.538,0,0,1,.438,1.048v2.94a2.209,2.209,0,0,1,.955.267.713.713,0,0,1,.422.642v8.542a.734.734,0,0,1-.5.673,2.579,2.579,0,0,1-1.1.234h-9.815a.729.729,0,0,1-.672-.442,2.2,2.2,0,0,1-.235-1.045,2.173,2.173,0,0,1,.235-1.059.733.733,0,0,1,.672-.427h.283a1.917,1.917,0,0,0,1.033-.374,5.639,5.639,0,0,0,.813-.625Zm2.6,3.993v-2.566l-2.065,1.824c-.229.206-.386.355-.469.449s-.141.154-.172.185-.047.051-.047.062-.031.025-.093.046Z" transform="translate(-1008.461 -844.085)" fill="#fff"/>
          <path id="Path_106049" data-name="Path 106049" d="M1109.43,855.913a.735.735,0,0,1-.5.673,2.854,2.854,0,0,1-1.22.235,2.589,2.589,0,0,1-1.141-.235.733.733,0,0,1-.485-.673v-3.567a1.727,1.727,0,0,1,.36-1.048,3.393,3.393,0,0,1,.969-.86,5.037,5.037,0,0,1,1.455-.579,7.745,7.745,0,0,1,1.815-.2,7.957,7.957,0,0,1,1.831.2,5.017,5.017,0,0,1,1.471.579,3.391,3.391,0,0,1,.969.86,1.727,1.727,0,0,1,.36,1.048v10.7a1.724,1.724,0,0,1-.36,1.048,3.393,3.393,0,0,1-.969.86,4.941,4.941,0,0,1-1.471.579,7.913,7.913,0,0,1-1.831.2,7.7,7.7,0,0,1-1.815-.2,4.958,4.958,0,0,1-1.455-.579,3.4,3.4,0,0,1-.969-.86,1.724,1.724,0,0,1-.36-1.048v-3.6a.734.734,0,0,1,.485-.673,2.579,2.579,0,0,1,1.141-.234,2.843,2.843,0,0,1,1.22.234.736.736,0,0,1,.5.673v2.6a.581.581,0,0,0,.344.532,1.892,1.892,0,0,0,.907.188,1.969,1.969,0,0,0,.939-.188.582.582,0,0,0,.345-.532v-8.7a.582.582,0,0,0-.345-.532,1.971,1.971,0,0,0-.939-.188,1.894,1.894,0,0,0-.907.188.582.582,0,0,0-.344.532Z" transform="translate(-1010.491 -844.085)" fill="#fff"/>
          <path id="Path_106050" data-name="Path 106050" d="M1121.272,849.655a5,5,0,0,1,1.674.281,3.171,3.171,0,0,1,1.486,1.283,2.813,2.813,0,0,1,.814-.8,4.528,4.528,0,0,1,.986-.469,5.293,5.293,0,0,1,1-.235,7.013,7.013,0,0,1,.891-.062c.021,0,.245.016.674.047a4.6,4.6,0,0,1,1.377.345,3.947,3.947,0,0,1,1.346.926,2.46,2.46,0,0,1,.61,1.787v6.87a5.062,5.062,0,0,1-.329,1.787,3.013,3.013,0,0,1-.924,1.349h.752a3.269,3.269,0,0,0,1.252-.189,1.379,1.379,0,0,0,.641-.5,1.567,1.567,0,0,0,.235-.753c.02-.292.031-.616.031-.972v-9.787a.737.737,0,0,1,.5-.674,2.875,2.875,0,0,1,1.219-.235,2.617,2.617,0,0,1,1.143.234.733.733,0,0,1,.483.674V861.42a4.755,4.755,0,0,1-.375,2,3.414,3.414,0,0,1-1.063,1.33,4.485,4.485,0,0,1-1.659.751,9.187,9.187,0,0,1-2.159.235,15.981,15.981,0,0,1-2.424-.172,7.055,7.055,0,0,1-2.019-.611,7.913,7.913,0,0,1-2.066.627,14.847,14.847,0,0,1-2.44.188,9.141,9.141,0,0,1-2.159-.236,4.465,4.465,0,0,1-1.658-.75,3.435,3.435,0,0,1-1.065-1.33,4.78,4.78,0,0,1-.375-2v-8.73a2.721,2.721,0,0,1,1.032-2.237A3.972,3.972,0,0,1,1121.272,849.655Zm1.408,3.6a.585.585,0,0,0-.266-.485,1.109,1.109,0,0,0-.579-.141.912.912,0,0,0-.563.189.626.626,0,0,0-.251.534v7.031c0,.355.01.68.033.973a1.558,1.558,0,0,0,.234.754,1.379,1.379,0,0,0,.641.5,3.267,3.267,0,0,0,1.252.189,1.7,1.7,0,0,1,.374-.016,1.129,1.129,0,0,0,.314-.016,3.877,3.877,0,0,1-.86-1.408,5.029,5.029,0,0,1-.329-1.784Zm6.1,1.377a2.175,2.175,0,0,0-.376-1.486,1.321,1.321,0,0,0-1-.392,1.452,1.452,0,0,0-.969.345,1.986,1.986,0,0,0-.407,1.5v4.788a3.571,3.571,0,0,0,.267,1.283,2.455,2.455,0,0,0,1.11,1.189,2.59,2.59,0,0,0,1.1-1.174,3.283,3.283,0,0,0,.281-1.267Z" transform="translate(-1012.008 -844.085)" fill="#fff"/>
          <path id="Path_106051" data-name="Path 106051" d="M1142.161,846.939q0-.72-1.094-.72-1,0-1,.72v.72a.721.721,0,0,1-.483.688,2.926,2.926,0,0,1-1.205.219,2.87,2.87,0,0,1-1.158-.219.724.724,0,0,1-.5-.688v-1.722a1.909,1.909,0,0,1,.312-1.047,2.935,2.935,0,0,1,.893-.86,4.563,4.563,0,0,1,1.391-.579,7.346,7.346,0,0,1,1.785-.2,5.843,5.843,0,0,1,3.192.782,2.254,2.254,0,0,1,1.219,1.908v18.056a.734.734,0,0,1-.5.673,2.871,2.871,0,0,1-1.22.235,2.6,2.6,0,0,1-1.143-.235.732.732,0,0,1-.486-.673Z" transform="translate(-1014.499 -843.247)" fill="#fff"/>
        </g>
        <g id="Group_45014" data-name="Group 45014" transform="translate(0.001 31.318)" style="mix-blend-mode: normal;isolation: isolate">
          <path id="Path_106052" data-name="Path 106052" d="M1163.117,849.655a16.64,16.64,0,0,1,2.925.234,6.308,6.308,0,0,1,2.207.8,3.831,3.831,0,0,1,1.392,1.487,4.92,4.92,0,0,1,.484,2.3v10.357a.733.733,0,0,1-.484.673,2.6,2.6,0,0,1-1.143.235,2.862,2.862,0,0,1-1.22-.235.734.734,0,0,1-.5-.673V854.349a1.147,1.147,0,0,0-.454-.97,3.156,3.156,0,0,0-1.063-.516,5.575,5.575,0,0,0-1.221-.2c-.406-.02-.714-.031-.922-.031s-.516.011-.924.031a5.589,5.589,0,0,0-1.221.2,3.16,3.16,0,0,0-1.064.516,1.147,1.147,0,0,0-.453.97v.125a2.034,2.034,0,0,1,1.049-.516,7.521,7.521,0,0,1,1.329-.109,4.376,4.376,0,0,1,1.236.171,2.7,2.7,0,0,1,1.034.579,2.881,2.881,0,0,1,.719,1.033,3.92,3.92,0,0,1,.266,1.533v5.883a1.839,1.839,0,0,1-.328,1.048,3.072,3.072,0,0,1-.923.86,4.759,4.759,0,0,1-1.425.579,8.1,8.1,0,0,1-3.614,0,4.972,4.972,0,0,1-1.424-.579,3.015,3.015,0,0,1-.939-.86,1.831,1.831,0,0,1-.328-1.048v-8.574a4.539,4.539,0,0,1,.533-2.3,4.1,4.1,0,0,1,1.471-1.487,6.606,6.606,0,0,1,2.221-.8A15.6,15.6,0,0,1,1163.117,849.655Zm-1.377,8.01q0-.845-1.158-.845a1.663,1.663,0,0,0-.751.188.623.623,0,0,0-.376.594v4.444q0,.721,1.127.72,1.157,0,1.158-.72Z" transform="translate(-1156.107 -844.085)" fill="#fff"/>
          <path id="Path_106053" data-name="Path 106053" d="M1182.616,857.459a1.2,1.2,0,0,1,.5.36,1.655,1.655,0,0,1,.281.516,2.189,2.189,0,0,1,.11.563q.015.282.016.469v3.661a1.609,1.609,0,0,1-.406,1.048,3.727,3.727,0,0,1-1.092.86,6.03,6.03,0,0,1-1.59.579,8.75,8.75,0,0,1-3.758,0,6.046,6.046,0,0,1-1.576-.579,3.734,3.734,0,0,1-1.092-.86,1.6,1.6,0,0,1-.4-1.048v-2.754a.732.732,0,0,1,.5-.673,2.816,2.816,0,0,1,1.209-.235,2.629,2.629,0,0,1,1.162.235.731.731,0,0,1,.481.673V862q0,.344.506.548a3.024,3.024,0,0,0,1.138.2,2.809,2.809,0,0,0,1.09-.2c.328-.136.49-.318.49-.548v-1.752a.655.655,0,0,0-.189-.532,1.334,1.334,0,0,0-.343-.219l-5.132-1.752a1.192,1.192,0,0,1-.5-.36,1.671,1.671,0,0,1-.282-.516,2.176,2.176,0,0,1-.11-.563c-.011-.188-.015-.345-.015-.469V852.2a1.6,1.6,0,0,1,.4-1.048,3.747,3.747,0,0,1,1.092-.86,6.106,6.106,0,0,1,1.576-.579,8.75,8.75,0,0,1,3.758,0,6.088,6.088,0,0,1,1.59.579,3.74,3.74,0,0,1,1.092.86,1.606,1.606,0,0,1,.406,1.048v2.754a.732.732,0,0,1-.5.672,2.8,2.8,0,0,1-1.208.236,2.644,2.644,0,0,1-1.148-.236.732.732,0,0,1-.5-.672v-1.721q0-.344-.506-.548a3.027,3.027,0,0,0-1.138-.2,2.851,2.851,0,0,0-1.074.2q-.506.2-.506.548v1.658a.656.656,0,0,0,.189.532,1.322,1.322,0,0,0,.344.219Z" transform="translate(-1158.396 -844.066)" fill="#fff"/>
          <path id="Path_106056" data-name="Path 106056" d="M1214.57,858.83a2.256,2.256,0,0,1,.908-.505,5.175,5.175,0,0,1,1.439-.159,4.59,4.59,0,0,1,1.393.2,3.577,3.577,0,0,1,1.11.566,2.885,2.885,0,0,1,.751.848,2.072,2.072,0,0,1,.281,1.052v2.2a1.739,1.739,0,0,1-.36,1.054,3.452,3.452,0,0,1-.969.865,4.965,4.965,0,0,1-1.471.581,7.95,7.95,0,0,1-1.831.2,7.7,7.7,0,0,1-1.815-.2,4.953,4.953,0,0,1-1.455-.579,3.379,3.379,0,0,1-.969-.86,1.719,1.719,0,0,1-.36-1.048v-10.7a1.722,1.722,0,0,1,.36-1.048,3.377,3.377,0,0,1,.969-.86,5.031,5.031,0,0,1,1.455-.579,7.742,7.742,0,0,1,1.815-.2,7.957,7.957,0,0,1,1.831.2,5.022,5.022,0,0,1,1.471.579,3.409,3.409,0,0,1,.969.86,1.728,1.728,0,0,1,.36,1.048v2.19a2.058,2.058,0,0,1-.281,1.048,2.891,2.891,0,0,1-.751.845,3.587,3.587,0,0,1-1.11.563,4.56,4.56,0,0,1-1.393.2,5.207,5.207,0,0,1-1.439-.158,2.262,2.262,0,0,1-.908-.506Zm0-5.313a.573.573,0,0,0,.345.523,2.016,2.016,0,0,0,.939.184,1.936,1.936,0,0,0,.907-.184.573.573,0,0,0,.344-.523v-.183a.571.571,0,0,0-.344-.522,1.925,1.925,0,0,0-.907-.184,2,2,0,0,0-.939.184.571.571,0,0,0-.345.522Zm0,8.529a.583.583,0,0,0,.345.532,1.97,1.97,0,0,0,.939.188,1.892,1.892,0,0,0,.907-.188.583.583,0,0,0,.344-.532v-.188a.582.582,0,0,0-.344-.532,1.89,1.89,0,0,0-.907-.188,1.967,1.967,0,0,0-.939.188.582.582,0,0,0-.345.532Z" transform="translate(-1154.17 -844.085)" fill="#fff"/>
          <path id="Path_106057" data-name="Path 106057" d="M1227.393,849.655a7.684,7.684,0,0,1,.768.047,6.9,6.9,0,0,1,.954.172,5.156,5.156,0,0,1,.986.36.9.9,0,0,0,1.721,0,5.215,5.215,0,0,1,.97-.36,6.346,6.346,0,0,1,.954-.172c.312-.031.574-.047.782-.047a5.471,5.471,0,0,1,3.082.782,2.264,2.264,0,0,1,1.174,1.909v12.485a.733.733,0,0,1-.485.673,2.6,2.6,0,0,1-1.142.235,2.866,2.866,0,0,1-1.221-.235.735.735,0,0,1-.5-.673V853.348a.585.585,0,0,0-.406-.532,2.305,2.305,0,0,0-.971-.188,2.246,2.246,0,0,0-.922.188c-.282.125-.444.271-.485.438v11.577a.736.736,0,0,1-.516.673,2.8,2.8,0,0,1-1.173.235,2.7,2.7,0,0,1-1.158-.235.734.734,0,0,1-.5-.673V853.254a.894.894,0,0,0-.516-.438,2.251,2.251,0,0,0-.923-.188,2.3,2.3,0,0,0-.97.188.585.585,0,0,0-.406.532v11.483a.733.733,0,0,1-.485.673,2.755,2.755,0,0,1-1.2.235,2.679,2.679,0,0,1-1.174-.235.731.731,0,0,1-.484-.673V852.346a2.266,2.266,0,0,1,1.174-1.909A5.472,5.472,0,0,1,1227.393,849.655Z" transform="translate(-1155.729 -844.085)" fill="#fff"/>
          <path id="Path_106058" data-name="Path 106058" d="M1245.89,855.913a.736.736,0,0,1-.5.673,2.865,2.865,0,0,1-1.221.235,2.6,2.6,0,0,1-1.142-.235.734.734,0,0,1-.486-.673v-3.567a1.732,1.732,0,0,1,.36-1.048,3.4,3.4,0,0,1,.971-.86,5.008,5.008,0,0,1,1.455-.579,7.744,7.744,0,0,1,1.815-.2,7.945,7.945,0,0,1,1.83.2,5,5,0,0,1,1.471.579,3.392,3.392,0,0,1,.97.86,1.733,1.733,0,0,1,.36,1.048v10.7a1.73,1.73,0,0,1-.36,1.048,3.394,3.394,0,0,1-.97.86,4.928,4.928,0,0,1-1.471.579,7.9,7.9,0,0,1-1.83.2,7.7,7.7,0,0,1-1.815-.2,4.931,4.931,0,0,1-1.455-.579,3.4,3.4,0,0,1-.971-.86,1.73,1.73,0,0,1-.36-1.048v-3.6a.735.735,0,0,1,.486-.673,2.587,2.587,0,0,1,1.142-.234,2.854,2.854,0,0,1,1.221.234.737.737,0,0,1,.5.673v2.6a.582.582,0,0,0,.343.532,1.9,1.9,0,0,0,.908.188,1.976,1.976,0,0,0,.939-.188.583.583,0,0,0,.344-.532v-8.7a.583.583,0,0,0-.344-.532,1.978,1.978,0,0,0-.939-.188,1.9,1.9,0,0,0-.908.188.582.582,0,0,0-.343.532Z" transform="translate(-1158.267 -844.085)" fill="#fff"/>
          <path id="Path_106059" data-name="Path 106059" d="M1268.852,861.318a5.573,5.573,0,0,1-.438,2.353,3.635,3.635,0,0,1-1.065,1.411h1.909a.737.737,0,0,1,.673.485,2.609,2.609,0,0,1,.234,1.142,2.433,2.433,0,0,1-.234,1.095.734.734,0,0,1-.673.469h-13.893a.73.73,0,0,1-.672-.469,2.417,2.417,0,0,1-.235-1.095,2.592,2.592,0,0,1,.235-1.142.733.733,0,0,1,.672-.485h5.1a7.141,7.141,0,0,0,3.645-.939,2.715,2.715,0,0,0,1.393-2.41v-1.219q0-.47-.266-.548a1.7,1.7,0,0,0-.454-.079h-.25a.734.734,0,0,1-.673-.422,2.468,2.468,0,0,1,0-2.1.735.735,0,0,1,.673-.422l.25-.031q.565,0,.642-.248a1.478,1.478,0,0,0,.078-.435v-1.894a1.112,1.112,0,0,0-.485-.964,3.519,3.519,0,0,0-1.142-.512,6.4,6.4,0,0,0-1.3-.2c-.427-.02-.746-.031-.954-.031-.229,0-.554.011-.97.031a6.1,6.1,0,0,0-1.267.2,3.3,3.3,0,0,0-1.11.516,1.132,1.132,0,0,0-.47.97v.125a2.211,2.211,0,0,1,1.064-.516,7.261,7.261,0,0,1,1.314-.109,4.383,4.383,0,0,1,1.236.171,2.7,2.7,0,0,1,1.033.579,2.868,2.868,0,0,1,.719,1.033,3.908,3.908,0,0,1,.267,1.533v4.193a1.835,1.835,0,0,1-.328,1.048,2.91,2.91,0,0,1-.922.845,5.088,5.088,0,0,1-1.424.563,8.13,8.13,0,0,1-3.614,0,5.339,5.339,0,0,1-1.424-.563,2.863,2.863,0,0,1-.939-.845,1.835,1.835,0,0,1-.328-1.048v-6.884a4.442,4.442,0,0,1,.548-2.3,4.157,4.157,0,0,1,1.518-1.487,6.982,6.982,0,0,1,2.284-.8,16.122,16.122,0,0,1,2.816-.234,16.318,16.318,0,0,1,2.847.234,6.991,6.991,0,0,1,2.284.8,4.272,4.272,0,0,1,1.533,1.484,4.329,4.329,0,0,1,.564,2.3v1.655a2.823,2.823,0,0,1-.33,1.3,2.283,2.283,0,0,1-.954.982,2.853,2.853,0,0,1,.86.847,2.9,2.9,0,0,1,.423,1.693Zm-8.761-3.658c0-.56-.388-.839-1.159-.839a1.675,1.675,0,0,0-.751.186.62.62,0,0,0-.375.59v2.734q0,.714,1.127.714c.771,0,1.159-.237,1.159-.714Z" transform="translate(-1159.826 -844.085)" fill="#fff"/>
          <path id="Path_106060" data-name="Path 106060" d="M1275.095,868.223a.958.958,0,0,1-.782-.533,2.093,2.093,0,0,1-.343-1.157,3.2,3.2,0,0,1,.234-1.2c.157-.386.38-.579.674-.579a24.667,24.667,0,0,0,2.926-.2,34.445,34.445,0,0,0,3.41-.595,35.391,35.391,0,0,0,3.425-.954,19.94,19.94,0,0,0,3.021-1.267,8.683,8.683,0,0,0,2.144-1.533,2.533,2.533,0,0,0,.813-1.8v-5.163a.614.614,0,0,0-.411-.548,2.19,2.19,0,0,0-.98-.2,1.98,1.98,0,0,0-.949.219.941.941,0,0,0-.507.532v7.635a.837.837,0,0,1-.528.657,2.6,2.6,0,0,1-1.116.219,2.988,2.988,0,0,1-1.209-.219.724.724,0,0,1-.5-.688v-6.6a1.189,1.189,0,0,0-.455-.986,3.056,3.056,0,0,0-1.053-.532,5.34,5.34,0,0,0-1.194-.2q-.6-.03-.912-.03t-.88.03a4.61,4.61,0,0,0-1.117.2,2.617,2.617,0,0,0-.958.532,1.246,1.246,0,0,0-.408.986l.025.751a1.716,1.716,0,0,1,.9-.5,6.689,6.689,0,0,1,1.215-.094,4.118,4.118,0,0,1,1.245.187,2.964,2.964,0,0,1,1.043.579,2.722,2.722,0,0,1,.717,1.034,4.074,4.074,0,0,1,.264,1.549v2.253a2.259,2.259,0,0,1-1.2,1.909,5.719,5.719,0,0,1-3.165.782,5.794,5.794,0,0,1-3.181-.782,2.254,2.254,0,0,1-1.216-1.909V854.36a5.016,5.016,0,0,1,.484-2.316,3.858,3.858,0,0,1,1.358-1.5,5.9,5.9,0,0,1,2.125-.8,14.915,14.915,0,0,1,2.748-.235,13.939,13.939,0,0,1,2.921.3,6.03,6.03,0,0,1,2.3.955,2.836,2.836,0,0,1,.858-.688,4.485,4.485,0,0,1,1-.375,5.934,5.934,0,0,1,.984-.157c.313-.021.584-.032.814-.032a5.148,5.148,0,0,1,3.092.861,3.013,3.013,0,0,1,1.188,2.613v6.008a2.841,2.841,0,0,1-.388,1.408,6.887,6.887,0,0,1-1.008,1.345,2.246,2.246,0,0,1,1.4,2.065v1.814a2.148,2.148,0,0,1-1.124,1.894,5.592,5.592,0,0,1-3,.7,5.843,5.843,0,0,1-3.013-.68,1.953,1.953,0,0,1-1.139-1.661v-.157q-1.406.568-2.861,1.027t-2.86.791q-1.406.33-2.658.506A16.361,16.361,0,0,1,1275.095,868.223Zm4.412-9.982q0-.876-1.048-.876a1.349,1.349,0,0,0-.7.188.669.669,0,0,0-.318.626v.781q0,.752,1.017.752c.7,0,1.048-.25,1.048-.752Zm11.108,6.2q0-.438-.812-.438h-.282a.385.385,0,0,0-.219.063l-.188.125a.261.261,0,0,0-.156.219v.469q0,.375.846.375.812,0,.813-.375Z" transform="translate(-1162.378 -844.066)" fill="#fff"/>
          <path id="Path_106061" data-name="Path 106061" d="M1298.961,846.939q0-.72-1.1-.72-1,0-1,.72v.72a.723.723,0,0,1-.484.688,2.93,2.93,0,0,1-1.206.219,2.866,2.866,0,0,1-1.157-.219.724.724,0,0,1-.5-.688v-1.722a1.905,1.905,0,0,1,.313-1.047,2.949,2.949,0,0,1,.892-.86,4.6,4.6,0,0,1,1.392-.579,7.35,7.35,0,0,1,1.785-.2,5.843,5.843,0,0,1,3.192.782,2.255,2.255,0,0,1,1.219,1.908v18.056a.735.735,0,0,1-.5.673,2.871,2.871,0,0,1-1.221.235,2.6,2.6,0,0,1-1.142-.235.732.732,0,0,1-.485-.673Z" transform="translate(-1164.935 -843.247)" fill="#fff"/>
          <g id="Group_45161" data-name="Group 45161" transform="translate(26.316 0.379)">
            <path id="Path_106041" data-name="Path 106041" d="M968.3,854.651h1.289v-.188a4.741,4.741,0,0,1,.5-2.295,3.937,3.937,0,0,1,1.414-1.483,6.293,6.293,0,0,1,2.184-.8,15.4,15.4,0,0,1,2.781-.235,16.09,16.09,0,0,1,2.907.236,5.972,5.972,0,0,1,2.153.8,3.684,3.684,0,0,1,1.335,1.494,5.215,5.215,0,0,1,.456,2.309v10.4a.739.739,0,0,1-.5.677,2.71,2.71,0,0,1-1.163.235,2.769,2.769,0,0,1-1.21-.235.736.736,0,0,1-.487-.677V854.369a1.165,1.165,0,0,0-.44-.974,3.041,3.041,0,0,0-1.021-.518,5.014,5.014,0,0,0-1.163-.2c-.387-.021-.675-.032-.864-.032q-.314,0-.91.031a5.149,5.149,0,0,0-1.179.2,2.865,2.865,0,0,0-1,.512,1.158,1.158,0,0,0-.425.958v.309h1.76a4.817,4.817,0,0,1,1.289.174,3.04,3.04,0,0,1,1.115.568,2.993,2.993,0,0,1,.8,1.039,3.546,3.546,0,0,1,.314,1.56V863.1a2.287,2.287,0,0,1-1.163,1.922,5.521,5.521,0,0,1-3.142.787,5.606,5.606,0,0,1-3.157-.786,2.273,2.273,0,0,1-1.178-1.916v-5.469H968.3v5.469a1.692,1.692,0,0,1-.376,1.053,3.523,3.523,0,0,1-1.021.864,5.423,5.423,0,0,1-1.524.581,8.181,8.181,0,0,1-1.855.2,7.684,7.684,0,0,1-2.058-.266,5.719,5.719,0,0,1-1.587-.677,4.044,4.044,0,0,1-1.163.708,4.29,4.29,0,0,1-1.6.266,4.462,4.462,0,0,1-1.288-.188,3.259,3.259,0,0,1-1.947-1.592,2.912,2.912,0,0,1-.315-1.4v-4.948a2.678,2.678,0,0,1,1.054-2.236,4.189,4.189,0,0,1,2.655-.821h1.508v-2.31a1.677,1.677,0,0,1,.377-1.047,3.517,3.517,0,0,1,1.021-.858,5.471,5.471,0,0,1,1.509-.578,8.022,8.022,0,0,1,1.838-.2,8.244,8.244,0,0,1,1.855.2,5.459,5.459,0,0,1,1.524.578,3.531,3.531,0,0,1,1.021.858,1.677,1.677,0,0,1,.376,1.047Zm-9.522,2.985h-.691a1.294,1.294,0,0,0-.9.252,1.037,1.037,0,0,0-.267.786v3.457q0,.725.818.724a.842.842,0,0,0,.6-.205,1.151,1.151,0,0,0,.314-.486,2.247,2.247,0,0,0,.111-.581c.009-.2.015-.362.015-.488Zm3.363-2.985h2.8v-1.3a.579.579,0,0,0-.409-.526,2.52,2.52,0,0,0-1.036-.186,2.267,2.267,0,0,0-.944.186.58.58,0,0,0-.408.526Zm2.8,2.985c-.7-1.116-2.8,0-2.8,0V862.1a.588.588,0,0,0,.408.535,2.244,2.244,0,0,0,.944.188,2.494,2.494,0,0,0,1.036-.188.588.588,0,0,0,.409-.535S965.635,858.752,964.936,857.636Zm8.013,0V862.1a.694.694,0,0,0,.2.535,1.1,1.1,0,0,0,.738.188q.973,0,.973-.723v-3.393a1.287,1.287,0,0,0-.22-.755.856.856,0,0,0-.753-.314Z" transform="translate(-953.559 -844.532)" fill="#fff"/>
            <path id="Path_106042" data-name="Path 106042" d="M987.721,848.908a5.3,5.3,0,0,1-3.095-.785,2.275,2.275,0,0,1-1.115-1.885V844.7a.726.726,0,0,1,.486-.691,2.787,2.787,0,0,1,1.148-.22,3.087,3.087,0,0,1,1.225.217.717.717,0,0,1,.5.682v.495a.859.859,0,0,0,.157.542.818.818,0,0,0,.66.2.926.926,0,0,0,.707-.2.809.809,0,0,0,.173-.542v-.495a.716.716,0,0,1,.5-.682,3.081,3.081,0,0,1,1.226-.217,2.78,2.78,0,0,1,1.147.22.725.725,0,0,1,.486.691v1.541a2.274,2.274,0,0,1-1.115,1.885A5.3,5.3,0,0,1,987.721,848.908Z" transform="translate(-957.366 -843.786)" fill="#fff"/>
          </g>
        </g>
        <g id="Group_45015" data-name="Group 45015" transform="translate(145.913 33.821)" style="mix-blend-mode: normal;isolation: isolate">
          <path id="Path_106062" data-name="Path 106062" d="M1321.926,860.7a4.846,4.846,0,0,1-.126,1.236,1.818,1.818,0,0,1-.375.735h2.69V850.561a.731.731,0,0,1,.486-.672,2.767,2.767,0,0,1,1.2-.234,2.716,2.716,0,0,1,1.158.234.737.737,0,0,1,.5.674v14.175a.735.735,0,0,1-.5.673,2.7,2.7,0,0,1-1.158.234h-7.854a.731.731,0,0,1-.673-.442,2.2,2.2,0,0,1-.234-1.045,2.175,2.175,0,0,1,.234-1.059.735.735,0,0,1,.673-.427.529.529,0,0,0,.438-.28,1.142,1.142,0,0,0,.188-.654v-3.42q0-.716-1.252-.716c-.794,0-1.189.241-1.189.721v6.508a.735.735,0,0,1-.5.673,2.853,2.853,0,0,1-1.22.235,2.588,2.588,0,0,1-1.141-.236.733.733,0,0,1-.485-.674V857.3a1.773,1.773,0,0,1,.344-1.05,3.047,3.047,0,0,1,.954-.848,5.307,5.307,0,0,1,1.439-.564,7.644,7.644,0,0,1,1.831-.2,7.754,7.754,0,0,1,1.815.2,5.328,5.328,0,0,1,1.455.562,3.034,3.034,0,0,1,.953.846,1.777,1.777,0,0,1,.345,1.048Z" transform="translate(-1312.789 -844.085)" fill="#fff"/>
          <path id="Path_106063" data-name="Path 106063" d="M1340.924,863.029a1.6,1.6,0,0,1-.407,1.048,3.7,3.7,0,0,1-1.092.86,5.986,5.986,0,0,1-1.59.579,8.751,8.751,0,0,1-3.759,0,6.04,6.04,0,0,1-1.575-.579,3.736,3.736,0,0,1-1.092-.86,1.6,1.6,0,0,1-.4-1.048V852.2a1.6,1.6,0,0,1,.4-1.048,3.749,3.749,0,0,1,1.092-.86,6.1,6.1,0,0,1,1.575-.579,8.751,8.751,0,0,1,3.759,0,6.044,6.044,0,0,1,1.59.579,3.709,3.709,0,0,1,1.092.86,1.6,1.6,0,0,1,.407,1.048Zm-3.349-9.794c0-.229-.168-.412-.506-.548a3.015,3.015,0,0,0-1.137-.2,2.85,2.85,0,0,0-1.074.2q-.5.2-.505.548V862q0,.344.505.548a2.85,2.85,0,0,0,1.074.2,3.015,3.015,0,0,0,1.137-.2c.338-.136.506-.318.506-.548Z" transform="translate(-1315.172 -844.066)" fill="#fff"/>
          <path id="Path_106064" data-name="Path 106064" d="M1344.226,846.939q0-.72-1.1-.72-1,0-1,.72v.72a.723.723,0,0,1-.486.688,2.921,2.921,0,0,1-1.2.219,2.868,2.868,0,0,1-1.158-.219.724.724,0,0,1-.5-.688v-1.722a1.891,1.891,0,0,1,.314-1.047,2.953,2.953,0,0,1,.891-.86,4.6,4.6,0,0,1,1.394-.579,7.328,7.328,0,0,1,1.783-.2,5.836,5.836,0,0,1,3.191.782,2.255,2.255,0,0,1,1.221,1.908v18.056a.734.734,0,0,1-.5.673,2.86,2.86,0,0,1-1.22.235,2.592,2.592,0,0,1-1.141-.235.731.731,0,0,1-.485-.673Z" transform="translate(-1316.189 -843.247)" fill="#fff"/>
          <path id="Path_106065" data-name="Path 106065" d="M1364.867,854.63h1.284v-.187a4.725,4.725,0,0,1,.5-2.285,3.913,3.913,0,0,1,1.408-1.477,6.251,6.251,0,0,1,2.174-.794,15.41,15.41,0,0,1,2.769-.233,16.11,16.11,0,0,1,2.895.234,5.953,5.953,0,0,1,2.143.8,3.666,3.666,0,0,1,1.33,1.487,5.205,5.205,0,0,1,.454,2.3v10.357a.734.734,0,0,1-.5.673,2.7,2.7,0,0,1-1.158.235,2.75,2.75,0,0,1-1.2-.235.731.731,0,0,1-.485-.673V854.349a1.163,1.163,0,0,0-.438-.97,3.03,3.03,0,0,0-1.017-.516,5.047,5.047,0,0,0-1.158-.2c-.386-.02-.673-.031-.86-.031-.21,0-.511.01-.907.03a5.166,5.166,0,0,0-1.174.2,2.867,2.867,0,0,0-1,.509,1.152,1.152,0,0,0-.423.954v.309h1.752a4.782,4.782,0,0,1,1.283.173,3.019,3.019,0,0,1,1.111.565,2.977,2.977,0,0,1,.8,1.035,3.523,3.523,0,0,1,.313,1.553v5.083a2.278,2.278,0,0,1-1.158,1.915,5.508,5.508,0,0,1-3.129.784,5.587,5.587,0,0,1-3.145-.783,2.263,2.263,0,0,1-1.173-1.908V857.6h-1.284v5.446a1.683,1.683,0,0,1-.375,1.048,3.517,3.517,0,0,1-1.017.86,5.379,5.379,0,0,1-1.517.579,8.116,8.116,0,0,1-1.847.2,7.65,7.65,0,0,1-2.05-.266,5.717,5.717,0,0,1-1.58-.673,4.03,4.03,0,0,1-1.158.7,4.273,4.273,0,0,1-1.6.266,4.4,4.4,0,0,1-1.283-.189,3.236,3.236,0,0,1-1.939-1.584,2.9,2.9,0,0,1-.315-1.4v-4.926a2.67,2.67,0,0,1,1.049-2.228,4.175,4.175,0,0,1,2.643-.816h1.5v-2.3a1.667,1.667,0,0,1,.376-1.042,3.519,3.519,0,0,1,1.017-.855,5.491,5.491,0,0,1,1.5-.575,7.981,7.981,0,0,1,1.831-.2,8.2,8.2,0,0,1,1.847.2,5.491,5.491,0,0,1,1.517.575,3.55,3.55,0,0,1,1.017.855,1.667,1.667,0,0,1,.375,1.042Zm-9.481,2.972h-.688a1.284,1.284,0,0,0-.892.251,1.029,1.029,0,0,0-.266.782v3.442c0,.481.27.72.813.72a.84.84,0,0,0,.595-.2,1.139,1.139,0,0,0,.312-.485,2.142,2.142,0,0,0,.11-.579c.011-.2.016-.36.016-.486Zm3.348-2.972h2.786v-1.294a.577.577,0,0,0-.408-.523,2.5,2.5,0,0,0-1.033-.185,2.244,2.244,0,0,0-.939.185.576.576,0,0,0-.407.523Zm2.786,2.972h-2.786v4.444a.585.585,0,0,0,.407.532,2.22,2.22,0,0,0,.939.188,2.473,2.473,0,0,0,1.033-.188.586.586,0,0,0,.408-.532Zm7.978,0v4.444a.685.685,0,0,0,.2.532,1.089,1.089,0,0,0,.734.188q.97,0,.97-.72v-3.38a1.277,1.277,0,0,0-.219-.751.854.854,0,0,0-.751-.314Z" transform="translate(-1317.682 -844.085)" fill="#fff"/>
          <path id="Path_106066" data-name="Path 106066" d="M1389.359,855.913a.734.734,0,0,1-.5.673,2.856,2.856,0,0,1-1.22.235,2.6,2.6,0,0,1-1.142-.235.732.732,0,0,1-.484-.673v-3.567a1.722,1.722,0,0,1,.36-1.048,3.379,3.379,0,0,1,.969-.86,5.026,5.026,0,0,1,1.455-.579,7.741,7.741,0,0,1,1.815-.2,7.954,7.954,0,0,1,1.831.2,5.024,5.024,0,0,1,1.471.579,3.4,3.4,0,0,1,.969.86,1.725,1.725,0,0,1,.36,1.048v10.7a1.723,1.723,0,0,1-.36,1.048,3.4,3.4,0,0,1-.969.86,4.947,4.947,0,0,1-1.471.579,7.91,7.91,0,0,1-1.831.2,7.7,7.7,0,0,1-1.815-.2,4.948,4.948,0,0,1-1.455-.579,3.381,3.381,0,0,1-.969-.86,1.719,1.719,0,0,1-.36-1.048v-3.6a.733.733,0,0,1,.484-.673,2.587,2.587,0,0,1,1.142-.234,2.845,2.845,0,0,1,1.22.234.735.735,0,0,1,.5.673v2.6a.582.582,0,0,0,.345.532,1.888,1.888,0,0,0,.907.188,1.969,1.969,0,0,0,.938-.188.583.583,0,0,0,.344-.532v-8.7a.583.583,0,0,0-.344-.532,1.972,1.972,0,0,0-.938-.188,1.89,1.89,0,0,0-.907.188.582.582,0,0,0-.345.532Z" transform="translate(-1322.368 -844.085)" fill="#fff"/>
          <path id="Path_106067" data-name="Path 106067" d="M1397.891,858.046a1.838,1.838,0,0,1,.329-1.05,2.965,2.965,0,0,1,.907-.848,4.863,4.863,0,0,1,1.393-.564,7.437,7.437,0,0,1,1.815-.2,7.3,7.3,0,0,1,1.783.2,5.1,5.1,0,0,1,1.409.564,2.93,2.93,0,0,1,.922.848,1.836,1.836,0,0,1,.328,1.05v5.743a1.842,1.842,0,0,1-.328,1.052,3.108,3.108,0,0,1-.922.863,4.779,4.779,0,0,1-1.409.58,7.3,7.3,0,0,1-1.783.2,5.909,5.909,0,0,1-3.208-.784,2.259,2.259,0,0,1-1.236-1.915Zm3.348,4.749q0,.721,1.064.72,1.128,0,1.127-.72v-3.724q0-.72-1.127-.721-1.064,0-1.064.721Z" transform="translate(-1323.922 -844.834)" fill="#fff"/>
        </g>
      </g>
      <g id="tIcf_nse_20_e_w_Ip_nI_v_kuP_yambn_sSIvt_mfPn_Tn_mw" data-name="tIcf nse 20 e w Ip nI v kuP yambn sSIvt mfPn Tn mw" transform="translate(274.023 194.104)" style="mix-blend-mode: normal;isolation: isolate">
        <g id="Group_45162" data-name="Group 45162" style="mix-blend-mode: normal;isolation: isolate">
          <path id="Path_106552" data-name="Path 106552" d="M569.559,1033.281a.751.751,0,0,1,.513-.689,2.93,2.93,0,0,1,1.25-.24,2.663,2.663,0,0,1,1.17.24.749.749,0,0,1,.5.689v9.743a.749.749,0,0,1-.5.689,2.651,2.651,0,0,1-1.17.241,2.917,2.917,0,0,1-1.25-.241.75.75,0,0,1-.513-.689Zm3.013,14.615c0,.149-.128.268-.385.352a2.731,2.731,0,0,1-.865.128,2.967,2.967,0,0,1-.93-.128c-.256-.085-.384-.2-.384-.352v-1.955c0-.148.123-.267.369-.352a2.711,2.711,0,0,1,.881-.128,2.987,2.987,0,0,1,.929.128c.256.086.385.2.385.352Z" transform="translate(-569.559 -1032.352)" fill="#fff"/>
        </g>
      </g>
    </g>
  </g>
</svg>
