<svg id="Layer_2" data-name="Layer 2" xmlns="http://www.w3.org/2000/svg" width="20" height="19.864" viewBox="0 0 20 19.864">
  <g id="Comment" transform="translate(0 0)">
    <path id="Path_10" data-name="Path 10" d="M16.732,0H3.268A3.268,3.268,0,0,0,0,3.268v8.664A3.268,3.268,0,0,0,3.268,15.2h1.02L2.936,18.4a1,1,0,1,0,1.864.672L6.7,14.6a.255.255,0,0,1,0-.028v-.028l.02-.068a.579.579,0,0,1,.028-.1.98.98,0,0,0,0-.108.4.4,0,0,0,0-.068.984.984,0,0,0,0-.112V14a.836.836,0,0,0-.032-.092.36.36,0,0,0-.032-.092.512.512,0,0,0-.044-.08.62.62,0,0,0-.048-.088l-.064-.076a.488.488,0,0,0-.06-.068.556.556,0,0,0-.076-.06.36.36,0,0,0-.076-.06l-.076-.044a.823.823,0,0,0-.1-.048H6.072l-.1-.092H3.268A1.268,1.268,0,0,1,2,11.932V3.268A1.268,1.268,0,0,1,3.268,2H16.732A1.268,1.268,0,0,1,18,3.268v8.664A1.268,1.268,0,0,1,16.732,13.2H9.8a1,1,0,1,0,0,2h6.932A3.268,3.268,0,0,0,20,11.932V3.268A3.268,3.268,0,0,0,16.732,0Z" transform="translate(0 0)" fill="#15232e"/>
    <path id="Path_11" data-name="Path 11" d="M19.2,13a1,1,0,0,0-1-1H11a1,1,0,1,0,0,2h7.2A1,1,0,0,0,19.2,13Z" transform="translate(-7.045 -7.2)" fill="#15232e"/>
    <rect id="Rectangle_14" data-name="Rectangle 14" width="6.414" height="2.405" rx="1.203" transform="translate(3.342 8.018)" fill="#00c569"/>
  </g>
</svg>
