<svg xmlns="http://www.w3.org/2000/svg" xmlns:xlink="http://www.w3.org/1999/xlink" width="293" height="84" viewBox="0 0 293 84">
  <defs>
    <clipPath id="clip-path">
      <rect id="Rectangle_17969" data-name="Rectangle 17969" width="293" height="84" transform="translate(-0.185 0.064)" fill="#fff" opacity="0.379"/>
    </clipPath>
  </defs>
  <g id="Mask_Group_280" data-name="Mask Group 280" transform="translate(0.185 -0.064)" clip-path="url(#clip-path)">
    <g id="kerala" transform="translate(3.755 16.942)" style="mix-blend-mode: normal;isolation: isolate">
      <path id="Path_106022" data-name="Path 106022" d="M576.267,869.921a4.711,4.711,0,0,1,1.895-1.055,10.889,10.889,0,0,1,3.008-.331,9.593,9.593,0,0,1,2.912.427,7.492,7.492,0,0,1,2.321,1.181,6.031,6.031,0,0,1,1.568,1.775,4.3,4.3,0,0,1,.59,2.2v4.593a3.643,3.643,0,0,1-.752,2.2,7.186,7.186,0,0,1-2.027,1.805,10.372,10.372,0,0,1-3.073,1.215,16.683,16.683,0,0,1-3.825.427,16.148,16.148,0,0,1-3.792-.427,10.352,10.352,0,0,1-3.04-1.209,7.076,7.076,0,0,1-2.027-1.8,3.591,3.591,0,0,1-.752-2.19V856.371a3.6,3.6,0,0,1,.752-2.19,7.1,7.1,0,0,1,2.027-1.8,10.4,10.4,0,0,1,3.04-1.21,16.16,16.16,0,0,1,3.792-.425,16.6,16.6,0,0,1,3.825.425,10.416,10.416,0,0,1,3.073,1.21,7.155,7.155,0,0,1,2.027,1.8,3.623,3.623,0,0,1,.752,2.19v4.579a4.27,4.27,0,0,1-.59,2.19,6,6,0,0,1-1.568,1.766,7.528,7.528,0,0,1-2.321,1.177,9.59,9.59,0,0,1-2.912.423,10.91,10.91,0,0,1-3.008-.329,4.716,4.716,0,0,1-1.895-1.057Zm0-11.1a1.193,1.193,0,0,0,.719,1.093,4.217,4.217,0,0,0,1.962.383,4.049,4.049,0,0,0,1.9-.383,1.2,1.2,0,0,0,.719-1.093v-.383a1.2,1.2,0,0,0-.719-1.09,4.029,4.029,0,0,0-1.9-.385,4.2,4.2,0,0,0-1.962.385,1.189,1.189,0,0,0-.719,1.09Zm0,17.823a1.216,1.216,0,0,0,.719,1.112,4.141,4.141,0,0,0,1.962.392,3.977,3.977,0,0,0,1.9-.392,1.222,1.222,0,0,0,.719-1.112v-.392a1.225,1.225,0,0,0-.719-1.113,3.976,3.976,0,0,0-1.9-.391,4.141,4.141,0,0,0-1.962.391,1.219,1.219,0,0,0-.719,1.113Z" transform="translate(-569.271 -839.11)" fill="#fff"/>
      <path id="Path_106023" data-name="Path 106023" d="M611.51,861.134h3.2a8.745,8.745,0,0,1,5.59,1.731,5.656,5.656,0,0,1,2.19,4.675v10.333a5.9,5.9,0,0,1-2.092,5,9.619,9.619,0,0,1-5.95,1.6,2.36,2.36,0,0,1-2.158-.925,3.979,3.979,0,0,1-.589-2.181,4.686,4.686,0,0,1,.5-2.248,1.536,1.536,0,0,1,1.564-.857q1.727,0,1.729-1.562v-7.212a2.111,2.111,0,0,0-.565-1.625,2.779,2.779,0,0,0-1.894-.52H611.51v11.508a3.509,3.509,0,0,1-.786,2.19,7.3,7.3,0,0,1-2.125,1.8,11.259,11.259,0,0,1-3.171,1.209,17.321,17.321,0,0,1-3.923.427,16.317,16.317,0,0,1-4.316-.556,10.707,10.707,0,0,1-3.335-1.473,7.751,7.751,0,0,1-2.419,1.538,8.924,8.924,0,0,1-3.335.556,9.679,9.679,0,0,1-2.714-.392A6.775,6.775,0,0,1,583,882.906a6.668,6.668,0,0,1-1.7-2.091,6.235,6.235,0,0,1-.654-2.943V867.54a5.652,5.652,0,0,1,2.19-4.675,8.642,8.642,0,0,1,5.527-1.731h3.2v-4.9a3.514,3.514,0,0,1,.785-2.191,7.317,7.317,0,0,1,2.125-1.8,11.291,11.291,0,0,1,3.139-1.209,16.874,16.874,0,0,1,3.891-.427,17.321,17.321,0,0,1,3.923.427,11.251,11.251,0,0,1,3.171,1.209,7.336,7.336,0,0,1,2.125,1.8,3.5,3.5,0,0,1,.786,2.191Zm-22.14,17.131a1.8,1.8,0,0,0,1.264-.423,2.4,2.4,0,0,0,.667-1.006,4.682,4.682,0,0,0,.233-1.235c.022-.432.033-.781.033-1.041v-7.214H590.1a2.779,2.779,0,0,0-1.9.52,2.111,2.111,0,0,0-.565,1.625V876.7Q587.642,878.267,589.37,878.265Zm9.192-17.131h5.95v-2.748a1.292,1.292,0,0,0-.881-1.144,5.068,5.068,0,0,0-2.192-.423,4.565,4.565,0,0,0-1.994.423,1.291,1.291,0,0,0-.883,1.144Zm5.95,6.212h-5.95v9.49a1.38,1.38,0,0,0,.948,1.039,5.216,5.216,0,0,0,1.929.325,5.066,5.066,0,0,0,2.192-.423,1.279,1.279,0,0,0,.881-1.137Z" transform="translate(-559.986 -839.228)" fill="#fff"/>
      <path id="Path_106024" data-name="Path 106024" d="M619.671,850.75a33.108,33.108,0,0,1,5.852.489,13.87,13.87,0,0,1,4.675,1.667,8.578,8.578,0,0,1,3.072,3.108,9.485,9.485,0,0,1,1.113,4.806v17.916a3.83,3.83,0,0,1-.687,2.19,6.263,6.263,0,0,1-1.961,1.8,10.414,10.414,0,0,1-3.008,1.209,15.759,15.759,0,0,1-3.76.427,12.507,12.507,0,0,1-6.735-1.636q-2.618-1.632-2.615-3.987V866.441a8.225,8.225,0,0,1,.554-3.2,6.046,6.046,0,0,1,1.506-2.16,5.611,5.611,0,0,1,2.158-1.21,9.089,9.089,0,0,1,2.583-.358,15.792,15.792,0,0,1,2.779.229,4.247,4.247,0,0,1,2.189,1.079v-.261a2.4,2.4,0,0,0-.946-2.027,6.6,6.6,0,0,0-2.223-1.079,11.616,11.616,0,0,0-2.584-.425c-.87-.044-1.526-.066-1.96-.066-.392,0-1.012.022-1.863.066a11.542,11.542,0,0,0-2.55.425,6.6,6.6,0,0,0-2.223,1.079,2.392,2.392,0,0,0-.95,2.027v21.9a1.533,1.533,0,0,1-1.046,1.406,5.965,5.965,0,0,1-2.548.49,5.424,5.424,0,0,1-2.386-.49,1.53,1.53,0,0,1-1.013-1.406V860.82a10.232,10.232,0,0,1,1.013-4.806,8.058,8.058,0,0,1,2.877-3.108,12.819,12.819,0,0,1,4.577-1.667A34.738,34.738,0,0,1,619.671,850.75Zm2.942,25.893q0,1.5,2.419,1.5,2.354,0,2.352-1.5v-9.286a1.3,1.3,0,0,0-.783-1.24,3.485,3.485,0,0,0-1.569-.392q-2.419,0-2.419,1.764Z" transform="translate(-540.033 -839.11)" fill="#fff"/>
      <path id="Path_106025" data-name="Path 106025" d="M652.7,875.121a11.643,11.643,0,0,1-.915,4.917,7.6,7.6,0,0,1-2.225,2.948h3.99A1.533,1.533,0,0,1,654.956,884a5.434,5.434,0,0,1,.489,2.388,5.068,5.068,0,0,1-.489,2.288,1.531,1.531,0,0,1-1.406.981H624.519a1.526,1.526,0,0,1-1.406-.981,5.062,5.062,0,0,1-.493-2.288,5.427,5.427,0,0,1,.493-2.388,1.529,1.529,0,0,1,1.406-1.012h10.656a14.931,14.931,0,0,0,7.619-1.962,5.676,5.676,0,0,0,2.91-5.036v-2.548q0-.981-.558-1.144a3.452,3.452,0,0,0-.946-.165h-.523a1.535,1.535,0,0,1-1.408-.881,5.153,5.153,0,0,1,0-4.381,1.535,1.535,0,0,1,1.408-.885l.523-.065c.785,0,1.231-.171,1.34-.518a3.147,3.147,0,0,0,.164-.91v-3.959a2.32,2.32,0,0,0-1.015-2.013,7.262,7.262,0,0,0-2.387-1.07,13.22,13.22,0,0,0-2.712-.421c-.894-.044-1.56-.066-2-.066-.477,0-1.155.022-2.025.066a12.648,12.648,0,0,0-2.65.425,6.885,6.885,0,0,0-2.319,1.079,2.367,2.367,0,0,0-.981,2.027v.261a4.622,4.622,0,0,1,2.221-1.079,15.226,15.226,0,0,1,2.746-.229,9.1,9.1,0,0,1,2.585.358,5.627,5.627,0,0,1,2.158,1.21,6.015,6.015,0,0,1,1.5,2.16,8.156,8.156,0,0,1,.556,3.2V875.2a3.832,3.832,0,0,1-.685,2.19,6.072,6.072,0,0,1-1.929,1.764,10.588,10.588,0,0,1-2.977,1.179,16.977,16.977,0,0,1-7.55,0,11.151,11.151,0,0,1-2.975-1.179,5.942,5.942,0,0,1-1.962-1.764,3.836,3.836,0,0,1-.688-2.19V860.82a9.283,9.283,0,0,1,1.146-4.806,8.692,8.692,0,0,1,3.171-3.108,14.578,14.578,0,0,1,4.771-1.667,33.7,33.7,0,0,1,5.885-.489,34.1,34.1,0,0,1,5.952.489,14.614,14.614,0,0,1,4.773,1.664,8.934,8.934,0,0,1,3.2,3.1,9.034,9.034,0,0,1,1.179,4.8v3.458a5.884,5.884,0,0,1-.686,2.71,4.772,4.772,0,0,1-2,2.054,5.958,5.958,0,0,1,1.8,1.771,6.046,6.046,0,0,1,.885,3.538Zm-18.308-7.645q0-1.755-2.419-1.753a3.489,3.489,0,0,0-1.569.389,1.29,1.29,0,0,0-.785,1.232v5.714q0,1.493,2.354,1.491,2.417,0,2.419-1.491Z" transform="translate(-525.722 -839.11)" fill="#fff"/>
      <path id="Path_106026" data-name="Path 106026" d="M705.659,856.818a1.915,1.915,0,0,1-.561.033,1.448,1.448,0,0,0-.492.031,10.883,10.883,0,0,1,2.071,6.735v14.321a5.152,5.152,0,0,1-1.3,3.792,8.085,8.085,0,0,1-3.031,1.927,11.99,11.99,0,0,1-3.357.721q-1.629.1-2.281.1-.717,0-2.312-.1a11.659,11.659,0,0,1-3.293-.721,7.855,7.855,0,0,1-2.964-1.934,5.143,5.143,0,0,1-1.271-3.736V863.5a11.667,11.667,0,0,1,1.88-6.62h-.912a6.8,6.8,0,0,0-2.606.394,2.827,2.827,0,0,0-1.339,1.082A3.545,3.545,0,0,0,683.4,860c-.044.634-.064,1.322-.064,2.065V882.51a1.577,1.577,0,0,1-1.048,1.475,5.975,5.975,0,0,1-2.55.492,5.645,5.645,0,0,1-2.419-.492,1.575,1.575,0,0,1-1.046-1.475l-.063-20.448c0-.743-.024-1.431-.067-2.065a3.528,3.528,0,0,0-.494-1.638,2.851,2.851,0,0,0-1.386-1.082,7.254,7.254,0,0,0-2.672-.394c-.309.045-.45.056-.43.034s-.12-.011-.427.031a11.61,11.61,0,0,1,1.878,6.606V878a5.135,5.135,0,0,1-1.27,3.727,7.857,7.857,0,0,1-2.966,1.927,11.646,11.646,0,0,1-3.324.721q-1.627.1-2.281.1t-2.281-.1a12.033,12.033,0,0,1-3.355-.721,8.051,8.051,0,0,1-3.03-1.934,5.152,5.152,0,0,1-1.306-3.8V863.57a11.328,11.328,0,0,1,2.009-6.751h-.988a7.237,7.237,0,0,0-2.67.392,2.838,2.838,0,0,0-1.388,1.082,3.483,3.483,0,0,0-.492,1.638c-.045.634-.066,1.321-.066,2.065V882.51a1.575,1.575,0,0,1-1.039,1.475,5.866,5.866,0,0,1-2.525.492,5.563,5.563,0,0,1-2.4-.49,1.576,1.576,0,0,1-1.035-1.473V859.7a10.208,10.208,0,0,1,.785-4.217,7.012,7.012,0,0,1,2.256-2.812,9.644,9.644,0,0,1,3.5-1.569,19.5,19.5,0,0,1,4.577-.492,33.3,33.3,0,0,1,9.481,1.179,32.913,32.913,0,0,1,4.283-.819,40.784,40.784,0,0,1,5.067-.294,19.51,19.51,0,0,1,4.219.427,10.367,10.367,0,0,1,3.365,1.34,10.352,10.352,0,0,1,3.4-1.34,19.94,19.94,0,0,1,4.252-.427,35.119,35.119,0,0,1,9.283,1.113,33.571,33.571,0,0,1,9.546-1.179,19.5,19.5,0,0,1,4.577.492,9.3,9.3,0,0,1,3.465,1.569,7.129,7.129,0,0,1,2.225,2.812,10.214,10.214,0,0,1,.783,4.217v22.818a1.571,1.571,0,0,1-1.012,1.473,5.426,5.426,0,0,1-2.386.49,5.971,5.971,0,0,1-2.55-.492,1.572,1.572,0,0,1-1.046-1.475V862c0-.745-.024-1.431-.067-2.065a3.506,3.506,0,0,0-.494-1.638,2.84,2.84,0,0,0-1.386-1.082A7.233,7.233,0,0,0,705.659,856.818Zm-40.044,7.127a6.946,6.946,0,0,0-.6-2.617,5.418,5.418,0,0,0-2.316-2.485,5.122,5.122,0,0,0-2.347,2.519,7.488,7.488,0,0,0-.563,2.648v10.135a7.565,7.565,0,0,0,.233,2.125,2.734,2.734,0,0,0,.627,1.144,1.761,1.761,0,0,0,.926.489,6,6,0,0,0,1.124.1,6.386,6.386,0,0,0,1.19-.1,1.748,1.748,0,0,0,.926-.489,2.468,2.468,0,0,0,.6-1.179,9.155,9.155,0,0,0,.2-2.156Zm28.247,10.135a9.29,9.29,0,0,0,.2,2.156,2.484,2.484,0,0,0,.6,1.179,1.755,1.755,0,0,0,.926.489,6.394,6.394,0,0,0,1.192.1,5.992,5.992,0,0,0,1.122-.1,1.755,1.755,0,0,0,.926-.489,2.735,2.735,0,0,0,.628-1.144,7.566,7.566,0,0,0,.232-2.125V864.011a6.768,6.768,0,0,0-.628-2.683,5.634,5.634,0,0,0-2.348-2.485,5.208,5.208,0,0,0-2.281,2.485,7.242,7.242,0,0,0-.561,2.617Z" transform="translate(-509.736 -839.228)" fill="#fff"/>
      <path id="Path_106027" data-name="Path 106027" d="M691.708,852.058q0-1.5-2.29-1.506c-1.4,0-2.091.5-2.091,1.506v1.5A1.511,1.511,0,0,1,686.312,855a6.108,6.108,0,0,1-2.517.458,5.987,5.987,0,0,1-2.419-.458,1.512,1.512,0,0,1-1.046-1.438v-3.6a3.962,3.962,0,0,1,.654-2.189,6.166,6.166,0,0,1,1.864-1.8,9.6,9.6,0,0,1,2.91-1.21,15.353,15.353,0,0,1,3.727-.427,12.188,12.188,0,0,1,6.669,1.637,4.708,4.708,0,0,1,2.55,3.987v37.73a1.536,1.536,0,0,1-1.046,1.406,5.978,5.978,0,0,1-2.55.49,5.423,5.423,0,0,1-2.386-.49,1.53,1.53,0,0,1-1.012-1.406Z" transform="translate(-478.616 -844.341)" fill="#fff"/>
      <path id="Path_106028" data-name="Path 106028" d="M706.28,850.75a34.783,34.783,0,0,1,6.113.489A13.2,13.2,0,0,1,717,852.906a8,8,0,0,1,2.908,3.108,10.281,10.281,0,0,1,1.013,4.806v21.643a1.535,1.535,0,0,1-1.013,1.406,5.431,5.431,0,0,1-2.387.49,5.988,5.988,0,0,1-2.552-.49,1.538,1.538,0,0,1-1.046-1.406v-21.9a2.4,2.4,0,0,0-.946-2.027,6.6,6.6,0,0,0-2.223-1.079,11.541,11.541,0,0,0-2.55-.425q-1.275-.066-1.929-.066c-.436,0-1.077.022-1.929.066a11.575,11.575,0,0,0-2.552.425,6.594,6.594,0,0,0-2.221,1.079,2.393,2.393,0,0,0-.95,2.027v.261a4.258,4.258,0,0,1,2.192-1.079,15.752,15.752,0,0,1,2.779-.229,9.091,9.091,0,0,1,2.583.358,5.636,5.636,0,0,1,2.158,1.21,5.989,5.989,0,0,1,1.5,2.16,8.184,8.184,0,0,1,.558,3.2v12.295a3.83,3.83,0,0,1-.687,2.19,6.415,6.415,0,0,1-1.929,1.8,10,10,0,0,1-2.975,1.209,16.906,16.906,0,0,1-7.552,0,10.427,10.427,0,0,1-2.975-1.209,6.28,6.28,0,0,1-1.962-1.8,3.83,3.83,0,0,1-.687-2.19V860.82a9.483,9.483,0,0,1,1.112-4.806,8.561,8.561,0,0,1,3.075-3.108,13.8,13.8,0,0,1,4.639-1.667A32.59,32.59,0,0,1,706.28,850.75ZM703.4,867.487q0-1.763-2.419-1.764a3.473,3.473,0,0,0-1.569.392,1.3,1.3,0,0,0-.786,1.24v9.286q0,1.5,2.356,1.5,2.417,0,2.419-1.5Z" transform="translate(-469.389 -839.11)" fill="#fff"/>
      <path id="Path_106029" data-name="Path 106029" d="M733.554,877.949V852.643a1.532,1.532,0,0,1,1.046-1.4,6.008,6.008,0,0,1,2.55-.489,5.45,5.45,0,0,1,2.386.489,1.534,1.534,0,0,1,1.013,1.408v29.618a1.531,1.531,0,0,1-1.013,1.408,5.448,5.448,0,0,1-2.386.489H712.565a5.449,5.449,0,0,1-2.387-.489,1.531,1.531,0,0,1-1.013-1.408V856.371a3.505,3.505,0,0,1,.787-2.19,7.255,7.255,0,0,1,2.125-1.8,11.31,11.31,0,0,1,3.137-1.21,16.892,16.892,0,0,1,3.89-.425,16.59,16.59,0,0,1,3.825.425,11.347,11.347,0,0,1,3.139,1.21,7.311,7.311,0,0,1,2.127,1.8,3.524,3.524,0,0,1,.783,2.19v12.164a5.855,5.855,0,0,1-1.079,3.76,3.406,3.406,0,0,1-2.779,1.339h-8.956v4.315Zm-17.391-10.394h4.575a1.033,1.033,0,0,0,.883-.621,2.646,2.646,0,0,0,.36-1.34v-7.127a1.229,1.229,0,0,0-.85-1.113,5.006,5.006,0,0,0-2.091-.391,4.836,4.836,0,0,0-2.029.391,1.224,1.224,0,0,0-.848,1.113Z" transform="translate(-455.078 -839.11)" fill="#fff"/>
    </g>
  </g>
</svg>
