<svg xmlns="http://www.w3.org/2000/svg" xmlns:xlink="http://www.w3.org/1999/xlink" width="376" height="84" viewBox="0 0 376 84">
  <defs>
    <clipPath id="clip-path">
      <rect id="Rectangle_17968" data-name="Rectangle 17968" width="376" height="84" transform="translate(-0.207 0.064)" fill="#fff" opacity="0.379"/>
    </clipPath>
  </defs>
  <g id="Mask_Group_279" data-name="Mask Group 279" transform="translate(0.207 -0.064)" clip-path="url(#clip-path)">
    <g id="Group_46796" data-name="Group 46796" transform="translate(0.366 13.878)">
      <path id="Path_108738" data-name="Path 108738" d="M474.245,366.644a11.372,11.372,0,0,1-.228,2.566,3.507,3.507,0,0,1-.749,1.527H478.8v-25.21a1.522,1.522,0,0,1,1.042-1.4,5.945,5.945,0,0,1,2.54-.489,5.4,5.4,0,0,1,2.376.489,1.524,1.524,0,0,1,1.011,1.4v29.506a1.52,1.52,0,0,1-1.011,1.4,5.4,5.4,0,0,1-2.376.488H466.038a1.527,1.527,0,0,1-1.4-.921,5.167,5.167,0,0,1,0-4.378,1.534,1.534,0,0,1,1.4-.888,1.039,1.039,0,0,0,.879-.583,2.573,2.573,0,0,0,.356-1.364V351.321a1.215,1.215,0,0,0-.845-1.1,4.965,4.965,0,0,0-2.084-.391,4.785,4.785,0,0,0-2.019.391,1.221,1.221,0,0,0-.847,1.107v23.9a1.532,1.532,0,0,1-1.042,1.4,5.99,5.99,0,0,1-2.54.487,5.438,5.438,0,0,1-2.379-.487,1.527,1.527,0,0,1-1.008-1.4V349.243a3.506,3.506,0,0,1,.78-2.182,7.31,7.31,0,0,1,2.119-1.789,11.306,11.306,0,0,1,3.126-1.2,16.724,16.724,0,0,1,3.874-.425,16.532,16.532,0,0,1,3.812.423,11.354,11.354,0,0,1,3.125,1.2,7.286,7.286,0,0,1,2.119,1.788,3.49,3.49,0,0,1,.782,2.177Z" transform="translate(-454.509 -332.047)" fill="#fff"/>
      <path id="Path_108739" data-name="Path 108739" d="M479.665,344.919q0-1.5-2.28-1.5-2.087,0-2.084,1.5v1.5a1.5,1.5,0,0,1-1.01,1.433,6.094,6.094,0,0,1-2.509.456,5.971,5.971,0,0,1-2.41-.456,1.505,1.505,0,0,1-1.04-1.433v-3.582a3.956,3.956,0,0,1,.65-2.18,6.157,6.157,0,0,1,1.858-1.793,9.6,9.6,0,0,1,2.9-1.2,15.308,15.308,0,0,1,3.714-.423,12.161,12.161,0,0,1,6.644,1.628,4.694,4.694,0,0,1,2.538,3.973v37.582a1.532,1.532,0,0,1-1.04,1.4,5.99,5.99,0,0,1-2.54.487,5.437,5.437,0,0,1-2.379-.487,1.527,1.527,0,0,1-1.008-1.4Z" transform="translate(-443.322 -337.233)" fill="#fff"/>
      <path id="Path_108740" data-name="Path 108740" d="M489.966,343.5a14.679,14.679,0,0,1,3.993.521,11.776,11.776,0,0,1,3.213,1.4,7.114,7.114,0,0,1,2.177,2.149,4.956,4.956,0,0,1,.812,2.7V356.2a5.906,5.906,0,0,1-.711,2.736,5.017,5.017,0,0,1-1.936,2.084,5.926,5.926,0,0,1,1.775,1.759,6.056,6.056,0,0,1,.872,3.517v3a8.446,8.446,0,0,1-1.042,4.558,6.7,6.7,0,0,1-2.444,2.379,7.426,7.426,0,0,1-2.831.878q-1.436.13-2.216.13h-1.237a1.507,1.507,0,0,1-1.433-.934,4.87,4.87,0,0,1-.456-2.16,4.747,4.747,0,0,1,.463-2.191,1.528,1.528,0,0,1,1.453-.9h.726a1.993,1.993,0,0,0,1.223-.326,1.791,1.791,0,0,0,.594-.72,2.479,2.479,0,0,0,.2-.782c.022-.262.033-.438.033-.525v-3.266a1.084,1.084,0,0,0-.264-.751,1.268,1.268,0,0,0-.66-.393,4.858,4.858,0,0,0-.758-.13c-.242-.022-.431-.034-.563-.034h-.463a1.531,1.531,0,0,1-1.455-.914,4.732,4.732,0,0,1-.46-2.157,4.881,4.881,0,0,1,.46-2.22,1.532,1.532,0,0,1,1.455-.915h.463a2.341,2.341,0,0,0,1.782-.523,1.483,1.483,0,0,0,.463-.914v-4.443a1.856,1.856,0,0,0-1.053-1.862,5.077,5.077,0,0,0-2.171-.488,5.966,5.966,0,0,0-2.236.422c-.7.282-1.051.662-1.051,1.14v24.034a1.57,1.57,0,0,1-1.035,1.467,5.87,5.87,0,0,1-2.515.487,5.567,5.567,0,0,1-2.39-.487,1.569,1.569,0,0,1-1.031-1.467V349.1a3.5,3.5,0,0,1,.78-2.182,7.02,7.02,0,0,1,2.175-1.791,12.121,12.121,0,0,1,3.278-1.2A18.451,18.451,0,0,1,489.966,343.5Z" transform="translate(-434.117 -332.164)" fill="#fff"/>
      <path id="Path_108741" data-name="Path 108741" d="M498.709,345.53a1.523,1.523,0,0,1,1.008-1.4,5.412,5.412,0,0,1,2.379-.489,5.966,5.966,0,0,1,2.54.489,1.528,1.528,0,0,1,1.04,1.4v37.584a4.694,4.694,0,0,1-2.538,3.971,12.146,12.146,0,0,1-6.644,1.628,15.31,15.31,0,0,1-3.714-.423,9.557,9.557,0,0,1-2.9-1.2,6.129,6.129,0,0,1-1.858-1.791,3.961,3.961,0,0,1-.649-2.18V379.53a1.507,1.507,0,0,1,1.04-1.433,5.972,5.972,0,0,1,2.41-.456,6.1,6.1,0,0,1,2.51.456,1.506,1.506,0,0,1,1.009,1.433v1.5q0,1.5,2.084,1.5,2.28,0,2.28-1.5Z" transform="translate(-427.911 -332.047)" fill="#fff"/>
      <path id="Path_108742" data-name="Path 108742" d="M505.612,356.668a1.528,1.528,0,0,1-1.042,1.4,5.941,5.941,0,0,1-2.54.488,5.374,5.374,0,0,1-2.377-.488,1.522,1.522,0,0,1-1.009-1.4v-7.425a3.582,3.582,0,0,1,.749-2.182,7.079,7.079,0,0,1,2.019-1.789,10.387,10.387,0,0,1,3.029-1.2,16.006,16.006,0,0,1,3.778-.425,16.43,16.43,0,0,1,3.81.425,10.346,10.346,0,0,1,3.059,1.2,7.11,7.11,0,0,1,2.021,1.789,3.6,3.6,0,0,1,.749,2.182v22.276a3.609,3.609,0,0,1-.749,2.184,7.082,7.082,0,0,1-2.021,1.789,10.3,10.3,0,0,1-3.059,1.205,16.531,16.531,0,0,1-3.81.423,16.1,16.1,0,0,1-3.778-.423,10.337,10.337,0,0,1-3.029-1.205,7.051,7.051,0,0,1-2.019-1.789,3.587,3.587,0,0,1-.749-2.184v-7.49a1.524,1.524,0,0,1,1.009-1.4,5.4,5.4,0,0,1,2.377-.489,5.968,5.968,0,0,1,2.54.489,1.53,1.53,0,0,1,1.042,1.4v5.406a1.208,1.208,0,0,0,.716,1.107,3.934,3.934,0,0,0,1.889.391,4.108,4.108,0,0,0,1.954-.391,1.214,1.214,0,0,0,.716-1.107V351.327a1.22,1.22,0,0,0-.716-1.107,4.108,4.108,0,0,0-1.954-.391,3.935,3.935,0,0,0-1.889.391,1.213,1.213,0,0,0-.716,1.107Z" transform="translate(-418.793 -332.047)" fill="#fff"/>
      <path id="Path_108743" data-name="Path 108743" d="M528.549,347.327a20.87,20.87,0,0,1,4.625.845,10.809,10.809,0,0,1,3.584,1.858,8.149,8.149,0,0,1,2.31,2.962,10.02,10.02,0,0,1,.814,4.234v17.847a4.693,4.693,0,0,1-2.54,3.973,12.137,12.137,0,0,1-6.644,1.628,11.957,11.957,0,0,1-6.609-1.628,4.7,4.7,0,0,1-2.51-3.973V353.643a8.545,8.545,0,0,0-2.67,1.107,2.476,2.476,0,0,0-1.236,2.216v21.818a1.535,1.535,0,0,1-1.042,1.4,6,6,0,0,1-2.542.487,5.429,5.429,0,0,1-2.377-.487,1.529,1.529,0,0,1-1.01-1.4V357.225q0-4.885,2.9-7.1a15.576,15.576,0,0,1,7.977-2.734v-6.253a1.5,1.5,0,0,1,1.009-1.433,6.093,6.093,0,0,1,2.508-.456,5.911,5.911,0,0,1,2.442.456,1.5,1.5,0,0,1,1.01,1.433Zm4.366,9.64a2.5,2.5,0,0,0-1.368-2.41,9.649,9.649,0,0,0-3-.977v19.408q0,1.5,2.215,1.5,2.149,0,2.151-1.5Z" transform="translate(-409.034 -335.601)" fill="#fff"/>
      <path id="Path_108744" data-name="Path 108744" d="M562.1,354.958c0-.693-.024-1.352-.067-1.979a3.481,3.481,0,0,0-.489-1.623,2.811,2.811,0,0,0-1.335-1.071,6.881,6.881,0,0,0-2.605-.391h-1.563a6.748,6.748,0,0,1,1.922,2.866,10.5,10.5,0,0,1,.684,3.713v14.264a5.1,5.1,0,0,1-1.27,3.714,7.591,7.591,0,0,1-2.931,1.889,12.1,12.1,0,0,1-3.289.682c-1.086.067-1.845.1-2.28.1s-1.194-.031-2.28-.1a11.7,11.7,0,0,1-3.322-.716,8.1,8.1,0,0,1-3-1.921,5.013,5.013,0,0,1-1.3-3.711V356.537a10.506,10.506,0,0,1,.684-3.713,8.1,8.1,0,0,1,1.791-2.931h-1.433a7.14,7.14,0,0,0-2.638.391,2.9,2.9,0,0,0-1.368,1.042,3.264,3.264,0,0,0-.488,1.6q-.065.947-.065,1.987v20.322a1.532,1.532,0,0,1-1.01,1.4,5.77,5.77,0,0,1-2.508.487,5.627,5.627,0,0,1-2.408-.487,1.531,1.531,0,0,1-1.044-1.4v-22.6a9.919,9.919,0,0,1,.782-4.169,7.142,7.142,0,0,1,2.215-2.768,9.375,9.375,0,0,1,3.484-1.563,19.536,19.536,0,0,1,4.527-.489,30.549,30.549,0,0,1,5.048.391,17.759,17.759,0,0,1,4.331,1.3,16.189,16.189,0,0,1,4.234-1.238,31.489,31.489,0,0,1,5.015-.391,19.146,19.146,0,0,1,4.494.488,9.376,9.376,0,0,1,3.452,1.56,7.122,7.122,0,0,1,2.215,2.761,9.852,9.852,0,0,1,.782,4.158v18.064h4.169V349.23a3.479,3.479,0,0,1,.781-2.177,7.3,7.3,0,0,1,2.117-1.788,11.37,11.37,0,0,1,3.126-1.2,17.762,17.762,0,0,1,7.718,0,11.313,11.313,0,0,1,3.159,1.2,7.278,7.278,0,0,1,2.117,1.789,3.5,3.5,0,0,1,.782,2.182v25.793a1.524,1.524,0,0,1-1.042,1.4,5.619,5.619,0,0,1-2.41.488H561.9a1.521,1.521,0,0,1-1.4-.921,4.575,4.575,0,0,1-.489-2.173,4.638,4.638,0,0,1,.456-2.139,1.567,1.567,0,0,1,1.3-.955c.217-.087.327-.15.327-.2Zm-10.423,1.84a6.886,6.886,0,0,0-.584-2.638,5.415,5.415,0,0,0-2.282-2.442,5.121,5.121,0,0,0-2.312,2.475,7.312,7.312,0,0,0-.554,2.605V366.83a7.635,7.635,0,0,0,.228,2.117,2.7,2.7,0,0,0,.619,1.138,1.712,1.712,0,0,0,.912.489,6.009,6.009,0,0,0,1.107.1,6.394,6.394,0,0,0,1.172-.1,1.712,1.712,0,0,0,.912-.489,2.478,2.478,0,0,0,.586-1.172,9.267,9.267,0,0,0,.2-2.148Zm34.391,13.939V351.321a1.221,1.221,0,0,0-.879-1.1,5.2,5.2,0,0,0-2.117-.391,4.84,4.84,0,0,0-1.986.391,1.221,1.221,0,0,0-.879,1.1v19.415Z" transform="translate(-394.642 -332.047)" fill="#fff"/>
      <path id="Path_108745" data-name="Path 108745" d="M572.4,344.919q0-1.5-2.28-1.5-2.084,0-2.084,1.5v1.5a1.5,1.5,0,0,1-1.01,1.433,6.091,6.091,0,0,1-2.508.456,5.964,5.964,0,0,1-2.41-.456,1.507,1.507,0,0,1-1.042-1.433v-3.582a3.958,3.958,0,0,1,.652-2.18,6.143,6.143,0,0,1,1.856-1.793,9.609,9.609,0,0,1,2.9-1.2,15.292,15.292,0,0,1,3.713-.423,12.156,12.156,0,0,1,6.644,1.628,4.692,4.692,0,0,1,2.54,3.973v37.582a1.535,1.535,0,0,1-1.042,1.4,5.985,5.985,0,0,1-2.54.487,5.428,5.428,0,0,1-2.377-.487,1.529,1.529,0,0,1-1.01-1.4Z" transform="translate(-368.276 -337.233)" fill="#fff"/>
      <path id="Path_108746" data-name="Path 108746" d="M603.257,353.985h3.192a8.715,8.715,0,0,1,5.569,1.724,5.632,5.632,0,0,1,2.182,4.657v10.291a5.872,5.872,0,0,1-2.086,4.983,9.571,9.571,0,0,1-5.925,1.6,2.348,2.348,0,0,1-2.149-.921,3.959,3.959,0,0,1-.586-2.173,4.644,4.644,0,0,1,.5-2.238,1.532,1.532,0,0,1,1.556-.856q1.723,0,1.724-1.554v-7.186a2.1,2.1,0,0,0-.563-1.618,2.757,2.757,0,0,0-1.887-.517h-1.523v11.462a3.512,3.512,0,0,1-.782,2.184,7.232,7.232,0,0,1-2.119,1.789,11.226,11.226,0,0,1-3.157,1.2,17.271,17.271,0,0,1-3.908.423,16.254,16.254,0,0,1-4.3-.552,10.705,10.705,0,0,1-3.322-1.467,7.753,7.753,0,0,1-2.41,1.532,8.9,8.9,0,0,1-3.322.552,9.566,9.566,0,0,1-2.7-.391,6.706,6.706,0,0,1-2.378-1.237,6.6,6.6,0,0,1-1.693-2.083,6.224,6.224,0,0,1-.651-2.933V360.367a5.622,5.622,0,0,1,2.182-4.657,8.6,8.6,0,0,1,5.5-1.724h3.19V349.1a3.5,3.5,0,0,1,.783-2.182,7.284,7.284,0,0,1,2.117-1.791,11.276,11.276,0,0,1,3.125-1.2,16.942,16.942,0,0,1,3.877-.423,17.367,17.367,0,0,1,3.908.423,11.281,11.281,0,0,1,3.157,1.2,7.266,7.266,0,0,1,2.119,1.791,3.5,3.5,0,0,1,.782,2.182ZM581.2,371.049a1.8,1.8,0,0,0,1.259-.42,2.361,2.361,0,0,0,.662-1,4.509,4.509,0,0,0,.231-1.23c.024-.431.033-.776.033-1.037v-7.185h-1.455a2.759,2.759,0,0,0-1.889.517,2.1,2.1,0,0,0-.563,1.618v7.186Q579.483,371.049,581.2,371.049Zm9.157-17.063h5.925v-2.737a1.28,1.28,0,0,0-.877-1.14,5.046,5.046,0,0,0-2.182-.422,4.546,4.546,0,0,0-1.986.422,1.282,1.282,0,0,0-.879,1.14Zm5.925,6.188h-5.925v9.452a1.37,1.37,0,0,0,.943,1.035,5.17,5.17,0,0,0,1.923.324,5.048,5.048,0,0,0,2.182-.42,1.276,1.276,0,0,0,.877-1.133Z" transform="translate(-359.011 -332.164)" fill="#fff"/>
      <path id="Path_108747" data-name="Path 108747" d="M627.815,347.327a20.871,20.871,0,0,1,4.623.845,10.808,10.808,0,0,1,3.584,1.858,8.129,8.129,0,0,1,2.31,2.962,10.021,10.021,0,0,1,.814,4.234v17.847a4.69,4.69,0,0,1-2.538,3.973,12.142,12.142,0,0,1-6.645,1.628,11.971,11.971,0,0,1-6.609-1.628,4.7,4.7,0,0,1-2.509-3.973V353.643a8.535,8.535,0,0,0-2.669,1.107,2.477,2.477,0,0,0-1.238,2.216v18.105a3.494,3.494,0,0,1-.783,2.184,7.121,7.121,0,0,1-2.148,1.789,11.776,11.776,0,0,1-3.159,1.2,16.538,16.538,0,0,1-3.812.423,16.816,16.816,0,0,1-3.874-.423,11.261,11.261,0,0,1-3.128-1.2,7.246,7.246,0,0,1-2.117-1.789,3.5,3.5,0,0,1-.78-2.184V349.214a1.527,1.527,0,0,1,1.042-1.4,5.948,5.948,0,0,1,2.538-.487,5.406,5.406,0,0,1,2.379.487,1.524,1.524,0,0,1,1.008,1.4v23.774a1.218,1.218,0,0,0,.848,1.107,5.136,5.136,0,0,0,2.15.391,4.841,4.841,0,0,0,1.986-.391,1.224,1.224,0,0,0,.879-1.107V357.225q0-4.885,2.9-7.1a15.583,15.583,0,0,1,7.977-2.734v-6.253a1.5,1.5,0,0,1,1.011-1.433,6.087,6.087,0,0,1,2.508-.456,5.924,5.924,0,0,1,2.443.456,1.5,1.5,0,0,1,1.01,1.433Zm4.364,9.64a2.5,2.5,0,0,0-1.368-2.41,9.641,9.641,0,0,0-3-.977v19.408q0,1.5,2.213,1.5,2.149,0,2.151-1.5Z" transform="translate(-339.085 -335.601)" fill="#fff"/>
      <path id="Path_108748" data-name="Path 108748" d="M652.7,354h2.67v-.389a9.835,9.835,0,0,1,1.042-4.757,8.166,8.166,0,0,1,2.931-3.074,13.03,13.03,0,0,1,4.527-1.65,31.88,31.88,0,0,1,5.764-.487,33.3,33.3,0,0,1,6.023.489,12.338,12.338,0,0,1,4.464,1.661,7.623,7.623,0,0,1,2.768,3.1,10.832,10.832,0,0,1,.945,4.785v21.559a1.532,1.532,0,0,1-1.042,1.4,5.647,5.647,0,0,1-2.41.487,5.758,5.758,0,0,1-2.508-.487,1.531,1.531,0,0,1-1.012-1.4V353.413a2.42,2.42,0,0,0-.91-2.021,6.316,6.316,0,0,0-2.117-1.073,10.522,10.522,0,0,0-2.41-.425c-.805-.042-1.4-.065-1.791-.065q-.651,0-1.891.063a10.733,10.733,0,0,0-2.441.418,5.993,5.993,0,0,0-2.086,1.06,2.4,2.4,0,0,0-.877,1.985V354h3.648a9.958,9.958,0,0,1,2.67.36,6.285,6.285,0,0,1,2.312,1.178,6.215,6.215,0,0,1,1.661,2.153,7.344,7.344,0,0,1,.651,3.233V371.5a4.742,4.742,0,0,1-2.41,3.984,11.468,11.468,0,0,1-6.514,1.632,11.642,11.642,0,0,1-6.546-1.628,4.715,4.715,0,0,1-2.442-3.973V360.185H652.7v11.333a3.513,3.513,0,0,1-.782,2.184,7.232,7.232,0,0,1-2.119,1.789,11.222,11.222,0,0,1-3.157,1.205,16.954,16.954,0,0,1-3.843.423,15.9,15.9,0,0,1-4.266-.552,11.894,11.894,0,0,1-3.289-1.4,8.413,8.413,0,0,1-2.41,1.467,8.9,8.9,0,0,1-3.322.552,9.242,9.242,0,0,1-2.67-.391,6.765,6.765,0,0,1-4.038-3.3,6.021,6.021,0,0,1-.652-2.906V360.333a5.557,5.557,0,0,1,2.182-4.637,8.691,8.691,0,0,1,5.5-1.7h3.126v-4.789a3.471,3.471,0,0,1,.78-2.169,7.307,7.307,0,0,1,2.118-1.778,11.358,11.358,0,0,1,3.127-1.2,16.528,16.528,0,0,1,3.81-.422,16.951,16.951,0,0,1,3.843.422,11.328,11.328,0,0,1,3.157,1.2,7.26,7.26,0,0,1,2.119,1.778,3.475,3.475,0,0,1,.782,2.169Zm-19.736,6.188h-1.433a2.686,2.686,0,0,0-1.858.521,2.14,2.14,0,0,0-.552,1.628V369.5c0,1,.563,1.5,1.693,1.5a1.747,1.747,0,0,0,1.238-.423,2.378,2.378,0,0,0,.651-1.01,4.525,4.525,0,0,0,.228-1.2c.022-.411.032-.749.032-1.01ZM639.938,354h5.8v-2.692a1.2,1.2,0,0,0-.845-1.091,5.205,5.205,0,0,0-2.149-.385,4.672,4.672,0,0,0-1.954.385,1.2,1.2,0,0,0-.847,1.091Zm5.8,6.188h-5.8v9.249a1.216,1.216,0,0,0,.847,1.107,4.615,4.615,0,0,0,1.954.391,5.14,5.14,0,0,0,2.149-.391,1.216,1.216,0,0,0,.845-1.107Zm16.611,0v9.249a1.422,1.422,0,0,0,.423,1.107,2.277,2.277,0,0,0,1.531.391q2.016,0,2.017-1.5V362.4a2.668,2.668,0,0,0-.454-1.563,1.78,1.78,0,0,0-1.563-.651Z" transform="translate(-318.837 -332.047)" fill="#fff"/>
      <path id="Path_108749" data-name="Path 108749" d="M660.838,348.39a11,11,0,0,1-6.416-1.628,4.712,4.712,0,0,1-2.314-3.906v-3.193a1.507,1.507,0,0,1,1.012-1.433,5.76,5.76,0,0,1,2.375-.456,6.4,6.4,0,0,1,2.542.451,1.485,1.485,0,0,1,1.042,1.411v1.028a1.78,1.78,0,0,0,.326,1.124,1.7,1.7,0,0,0,1.366.416,1.924,1.924,0,0,0,1.467-.416,1.668,1.668,0,0,0,.358-1.124v-1.028a1.486,1.486,0,0,1,1.04-1.411,6.4,6.4,0,0,1,2.542-.451,5.77,5.77,0,0,1,2.377.456,1.508,1.508,0,0,1,1.01,1.433v3.193a4.714,4.714,0,0,1-2.312,3.906A11,11,0,0,1,660.838,348.39Z" transform="translate(-294.599 -336.796)" fill="#fff"/>
    </g>
  </g>
</svg>
