<svg xmlns="http://www.w3.org/2000/svg" width="1820" height="606.338" viewBox="0 0 1820 606.338">
  <g id="Group_46669" data-name="Group 46669" transform="translate(-60 -162.651)">
    <g id="Group_36223" data-name="Group 36223" transform="translate(-1353.772 -647.845)" opacity="0.998">
      <path id="Path_90493" data-name="Path 90493" d="M186.8,109.417a2.67,2.67,0,0,0,1.365,1.966,9.477,9.477,0,0,1,3.516-2.521,3.562,3.562,0,0,1-1.147-2.2A11.351,11.351,0,0,0,186.8,109.417Z" transform="translate(2513.032 908.472)" fill="#fb242d"/>
      <path id="Path_90494" data-name="Path 90494" d="M-49.049,17.858c-.713.214-1.111.717-1.535,1.655a8.946,8.946,0,0,1,3.036,2.728,3.363,3.363,0,0,1,1.792-1.5A10.69,10.69,0,0,0-49.049,17.858Z" transform="translate(1822.387 848.208)" fill="#fb242d"/>
      <path id="Path_90495" data-name="Path 90495" d="M194.138,2.058a3.081,3.081,0,0,0-2.064,2.28,4.662,4.662,0,0,0,2.254,2.041,6.98,6.98,0,0,1,3.642-1.315A12.148,12.148,0,0,1,194.138,2.058Z" transform="translate(2530.266 846.761)" fill="#fb242d"/>
      <path id="Path_90496" data-name="Path 90496" d="M-79.951,282.92a2.1,2.1,0,0,0,.1-2.093,3.179,3.179,0,0,0-2.07-.1,4.761,4.761,0,0,1-1.354,2.265A8.275,8.275,0,0,1-79.951,282.92Z" transform="translate(1561.343 988.676)" fill="#fb242d"/>
      <path id="Path_90497" data-name="Path 90497" d="M-114.4,192.948a11.252,11.252,0,0,0,.825,3.833,4.49,4.49,0,0,0,1.885-1.458,3.753,3.753,0,0,1-.545-2.339A2.528,2.528,0,0,1-114.4,192.948Z" transform="translate(1558.492 948.398)" fill="#fb242d"/>
      <path id="Path_90498" data-name="Path 90498" d="M44.821-1.1A21.521,21.521,0,0,0,39.1-5.959a8.625,8.625,0,0,0-1.163,4.413c1.52.489,2.365,1.4,3.555,2.916A4.836,4.836,0,0,1,44.821-1.1Z" transform="translate(2462.504 1105.582)" fill="#fb242d"/>
      <path id="Path_90499" data-name="Path 90499" d="M45.057,82.183a5.469,5.469,0,0,1-1.373,1.875,17.065,17.065,0,0,1,4.167,2A3.079,3.079,0,0,0,49.365,84.4,20.234,20.234,0,0,0,45.057,82.183Z" transform="translate(2097.494 897.012)" fill="#fb242d"/>
      <path id="Path_90500" data-name="Path 90500" d="M142.78,64.885a12.461,12.461,0,0,1,5.24.735,38.85,38.85,0,0,1-.474-10.511,7.023,7.023,0,0,0-4.95-1.252A46,46,0,0,0,142.78,64.885Z" transform="translate(2384.956 884.455)" fill="#fb242d"/>
      <path id="Path_90501" data-name="Path 90501" d="M194.253,98.444a8.115,8.115,0,0,0,2.308,4.574,12.083,12.083,0,0,1,3.664.52c-.54-1.092-.322-1.9.606-3.368A20.994,20.994,0,0,1,194.253,98.444Z" transform="translate(2537.9 904.695)" fill="#fb242d"/>
      <path id="Path_90502" data-name="Path 90502" d="M-39.328-12.617a10.236,10.236,0,0,0,4.59,4.527,15.177,15.177,0,0,1,4.578-.854c-1.083-1.085-1.149-2.141-.631-4.258C-33.317-12.45-35.87-12.507-39.328-12.617Z" transform="translate(1604.354 846.614)" fill="#fb242d"/>
      <path id="Path_90503" data-name="Path 90503" d="M267.467,159.43a15.2,15.2,0,0,1-5.79-1.435,4.886,4.886,0,0,0-.5,3.071,20.165,20.165,0,0,0,5.84,1.86C266.544,161.3,266.566,160.4,267.467,159.43Z" transform="translate(2901.167 932.361)" fill="#fb242d"/>
      <path id="Path_90504" data-name="Path 90504" d="M77.2,47.584a16.762,16.762,0,0,1,5.8-3.077,5.384,5.384,0,0,0-1.845-2.885A22.242,22.242,0,0,0,75,44.388C76.577,45.371,77.224,46.127,77.2,47.584Z" transform="translate(2191.557 850.385)" fill="#fb242d"/>
      <path id="Path_90505" data-name="Path 90505" d="M-114.1,163.424a2.471,2.471,0,0,1,.746,2.4,8.061,8.061,0,0,0,3.05-2.016,2.247,2.247,0,0,0-.83-2.078A5.892,5.892,0,0,1-114.1,163.424Z" transform="translate(1558.52 933.958)" fill="#fb242d"/>
      <path id="Path_90506" data-name="Path 90506" d="M-27.023-23.7a4.013,4.013,0,0,1-4.064-.4,13.067,13.067,0,0,0,1.1,5.833c1.267.7,2.1.649,3.633.068A9.571,9.571,0,0,1-27.023-23.7Z" transform="translate(1878.976 844.366)" fill="#fb242d"/>
      <path id="Path_90507" data-name="Path 90507" d="M-118.461,26.565a9.165,9.165,0,0,0,2.728-4.078,4.478,4.478,0,0,0-2.5-1.607,8.374,8.374,0,0,1-2.719,3.992A3.127,3.127,0,0,1-118.461,26.565Z" transform="translate(1557.891 848.485)" fill="#fb242d"/>
      <path id="Path_90508" data-name="Path 90508" d="M54.373,25.293a6.445,6.445,0,0,0-3.439-.249,3.146,3.146,0,0,0-.111,2.086,5.881,5.881,0,0,1,3.383.274A2.2,2.2,0,0,1,54.373,25.293Z" transform="translate(2115.776 848.854)" fill="#fb242d"/>
      <path id="Path_90509" data-name="Path 90509" d="M199.513,67.8a7.741,7.741,0,0,1-.276,5.526c3.628-.418,7.213-1.252,8.664-2.126a12.366,12.366,0,0,0-1.649-5.053C204.624,67.162,202.726,67.444,199.513,67.8Z" transform="translate(2883.408 790.74)" fill="#fb242d"/>
      <path id="Path_90510" data-name="Path 90510" d="M254.161,41.676a7.684,7.684,0,0,1-1.213,5.355c3.619.211,7.265.007,8.832-.6a12.254,12.254,0,0,0-.75-5.221C259.266,41.922,257.362,41.874,254.161,41.676Z" transform="translate(2900.421 850.347)" fill="#fb242d"/>
      <path id="Path_90511" data-name="Path 90511" d="M-116.521,72.242A2.508,2.508,0,0,1-118,73.723a20.183,20.183,0,0,0,4.331,3.888,4.79,4.79,0,0,0,1.846-1.791A11.509,11.509,0,0,1-116.521,72.242Z" transform="translate(1558.162 892.535)" fill="#fb242d"/>
      <path id="Path_90512" data-name="Path 90512" d="M98.326-7.019a2.552,2.552,0,0,1,1.928.909A20.562,20.562,0,0,0,102.5-11.6a4.878,4.878,0,0,0-2.353-1.158A11.739,11.739,0,0,1,98.326-7.019Z" transform="translate(2254.697 845.404)" fill="#fb242d"/>
      <path id="Path_90513" data-name="Path 90513" d="M326.776,145.9a5.194,5.194,0,0,1-.891-2.909,1.406,1.406,0,0,1-1.133-.07,6.227,6.227,0,0,0,.705,3.318A2.6,2.6,0,0,0,326.776,145.9Z" transform="translate(2906.996 925.109)" fill="#fb242d"/>
      <path id="Path_90514" data-name="Path 90514" d="M-64.029-16.207a6.019,6.019,0,0,1-3.3,1.253,1.644,1.644,0,0,1,.005,1.319,7.224,7.224,0,0,0,3.79-1.07A3.015,3.015,0,0,0-64.029-16.207Z" transform="translate(1562.803 845.088)" fill="#fb242d"/>
      <path id="Path_90515" data-name="Path 90515" d="M-71.7,94.621c1.735.449,3.286,1.613,5.577,5.319a9.175,9.175,0,0,0,2.917-4.979,16.327,16.327,0,0,0-6.408-5.2C-69.764,91.693-70.341,92.755-71.7,94.621Z" transform="translate(2898.418 767.485)" fill="#fb242d"/>
      <path id="Path_90516" data-name="Path 90516" d="M96.836,90.989c-.859-.217-1.63-.79-2.772-2.618a4.542,4.542,0,0,0-1.431,2.47A8.09,8.09,0,0,0,95.815,93.4,4.15,4.15,0,0,1,96.836,90.989Z" transform="translate(2238.19 900.003)" fill="#fb242d"/>
      <path id="Path_90517" data-name="Path 90517" d="M219.428,172.8a7.7,7.7,0,0,0,.653,4.9,8.252,8.252,0,0,1,5.051-1.2,11.694,11.694,0,0,0,.142-4.756A15.486,15.486,0,0,1,219.428,172.8Z" transform="translate(2610.124 938.936)" fill="#fb242d"/>
      <path id="Path_90518" data-name="Path 90518" d="M-14.209-.826a6.023,6.023,0,0,0,1.958,3.345A6.475,6.475,0,0,1-8.965.122a9.157,9.157,0,0,0-1.34-3.479A12.146,12.146,0,0,1-14.209-.826Z" transform="translate(1928.498 846.265)" fill="#fb242d"/>
      <path id="Path_90519" data-name="Path 90519" d="M-78.71,3.354c.49-.177.722-.516,1.081-1.085A13.65,13.65,0,0,1-81.212-1.1a2.23,2.23,0,0,1-1.167.865A12.1,12.1,0,0,0-78.71,3.354Z" transform="translate(1561.425 846.472)" fill="#fb242d"/>
      <path id="Path_90520" data-name="Path 90520" d="M-125.647,258.121c-.575.264-.819.7-1.2,1.425a16.54,16.54,0,0,1,4.683,3.7,2.707,2.707,0,0,1,1.321-1.167A14.7,14.7,0,0,0-125.647,258.121Z" transform="translate(1557.352 978.958)" fill="#fb242d"/>
      <path id="Path_90521" data-name="Path 90521" d="M-122.54,207.491a5.452,5.452,0,0,0,.771-4.555,33.656,33.656,0,0,1-7.369-2.945,5.007,5.007,0,0,1-.877,2.4A29.994,29.994,0,0,1-122.54,207.491Z" transform="translate(3179.172 747.784)" fill="#fb242d"/>
      <path id="Path_90522" data-name="Path 90522" d="M108.189-25.166a3.358,3.358,0,0,0,.969-2.679,20.714,20.714,0,0,1-4.146-2.6,3.1,3.1,0,0,1-.8,1.359A18.455,18.455,0,0,1,108.189-25.166Z" transform="translate(2272.864 843.784)" fill="#fb242d"/>
      <path id="Path_90523" data-name="Path 90523" d="M164.435,96.685c-.922.91-1.125,2.007-1.013,3.794a15.541,15.541,0,0,1,6.887,1.724c-.012-1.308.4-2.188,1.534-3.768A18.6,18.6,0,0,0,164.435,96.685Z" transform="translate(2451.042 903.924)" fill="#00d6ad"/>
      <path id="Path_90524" data-name="Path 90524" d="M-19.5,93.214c-.426,1.16-.155,2.19.668,3.685a14.823,14.823,0,0,1,6.642-1.311c-.541-1.123-.546-2.05-.208-3.875A17.75,17.75,0,0,0-19.5,93.214Z" transform="translate(1914.062 901.575)" fill="#00d6ad"/>
      <path id="Path_90525" data-name="Path 90525" d="M170.8,74.035a2.344,2.344,0,0,0-.462,2.293,3.551,3.551,0,0,0,2.268.456,5.315,5.315,0,0,1,1.868-2.277A9.244,9.244,0,0,1,170.8,74.035Z" transform="translate(2463.723 893.133)" fill="#00d6ad"/>
      <path id="Path_90526" data-name="Path 90526" d="M177.93,24.333a3.066,3.066,0,0,0-1.34-2.754,4.638,4.638,0,0,0-2.724,1.325,6.965,6.965,0,0,1-.138,3.854A12.083,12.083,0,0,1,177.93,24.333Z" transform="translate(2473.813 848.549)" fill="#00d6ad"/>
      <path id="Path_90527" data-name="Path 90527" d="M120.58,32.267a24.07,24.07,0,0,0-8.141,2.069,9.641,9.641,0,0,0,3.273,3.921c1.43-1.068,2.807-1.251,4.966-1.351A5.407,5.407,0,0,1,120.58,32.267Z" transform="translate(2301.479 849.528)" fill="#00d6ad"/>
      <path id="Path_90528" data-name="Path 90528" d="M-141.877,215.777a11.3,11.3,0,0,0-.214,3.953,4.538,4.538,0,0,0,2.224-.92,3.779,3.779,0,0,1,.091-2.423A2.549,2.549,0,0,1-141.877,215.777Z" transform="translate(1555.948 959.015)" fill="#00d6ad"/>
      <path id="Path_90529" data-name="Path 90529" d="M171.984-.655a6.716,6.716,0,0,1-1.515-2.41A20.914,20.914,0,0,1,166.308.774a3.781,3.781,0,0,0,1.2,2.471A24.763,24.763,0,0,0,171.984-.655Z" transform="translate(2454.782 846.292)" fill="#00d6ad"/>
      <path id="Path_90530" data-name="Path 90530" d="M-89.509,220.077a9.876,9.876,0,0,1,1.628,3.844,30.6,30.6,0,0,1,6.919-4.581,5.536,5.536,0,0,0-1.159-3.858A36.366,36.366,0,0,0-89.509,220.077Z" transform="translate(1560.772 959.844)" fill="#00d6ad"/>
      <path id="Path_90531" data-name="Path 90531" d="M-126.553,301.772a5.739,5.739,0,0,0-2.937,2.109,8.508,8.508,0,0,1,.038,2.612c.7-.5,1.292-.433,2.415.055A14.817,14.817,0,0,1-126.553,301.772Z" transform="translate(1557.11 1022.374)" fill="#00d6ad"/>
      <path id="Path_90532" data-name="Path 90532" d="M238.51,108.48a11.092,11.092,0,0,0,2.988-6.323,16.472,16.472,0,0,1-2.516-4.381c-.722,1.5-1.779,1.944-4.134,2.173C236.525,102.267,237.383,104.9,238.51,108.48Z" transform="translate(2898.763 905.026)" fill="#00d6ad"/>
      <path id="Path_90533" data-name="Path 90533" d="M209.467,44.328a10.12,10.12,0,0,1-3.4-2.021,3.243,3.243,0,0,0-.907,1.852,13.383,13.383,0,0,0,3.35,2.3C208.522,45.339,208.709,44.771,209.467,44.328Z" transform="translate(2565.342 850.448)" fill="#00d6ad"/>
      <path id="Path_90534" data-name="Path 90534" d="M247.517,78.484a8.589,8.589,0,0,1-1.577,2.961,2.75,2.75,0,0,0,1.606.694,11.349,11.349,0,0,0,1.815-2.929C248.412,79.245,247.922,79.109,247.517,78.484Z" transform="translate(2899.779 895.275)" fill="#00d6ad"/>
      <path id="Path_90535" data-name="Path 90535" d="M286,255.518a2.32,2.32,0,0,1-2.36.084,7.567,7.567,0,0,0,1.074,3.261,2.112,2.112,0,0,0,2.088-.239A5.525,5.525,0,0,1,286,255.518Z" transform="translate(2903.232 977.35)" fill="#00d6ad"/>
      <path id="Path_90536" data-name="Path 90536" d="M-125.222,328.992a2.388,2.388,0,0,1-1.657,1.778,7.785,7.785,0,0,0,3.155,1.592,2.172,2.172,0,0,0,1.346-1.693A5.7,5.7,0,0,1-125.222,328.992Z" transform="translate(1557.349 1024.867)" fill="#00d6ad"/>
      <path id="Path_90537" data-name="Path 90537" d="M-7.968,33.109a11.849,11.849,0,0,0,.608,6.315,5.794,5.794,0,0,0,3.819-.439,10.842,10.842,0,0,1-.546-6.223C-5.611,33.506-6.616,33.714-7.968,33.109Z" transform="translate(1945.744 849.573)" fill="#00d6ad"/>
      <path id="Path_90538" data-name="Path 90538" d="M178.655,57.2a6.686,6.686,0,0,0,.322,3.57,3.276,3.276,0,0,0,2.158-.235,6.12,6.12,0,0,1-.286-3.517A2.284,2.284,0,0,1,178.655,57.2Z" transform="translate(2484.971 885.33)" fill="#00d6ad"/>
      <path id="Path_90539" data-name="Path 90539" d="M288.378,42.988a6.652,6.652,0,0,1-3.586-3.129c-1.65,2.674-2.994,5.54-3.175,6.986a10.615,10.615,0,0,0,4.292,1.575C286.09,46.781,286.91,45.349,288.378,42.988Z" transform="translate(2903.047 877.67)" fill="#00d6ad"/>
      <path id="Path_90540" data-name="Path 90540" d="M162.075,38.454a5.662,5.662,0,0,1,3.519-1.994,19.694,19.694,0,0,0-4.709-4.515,9.071,9.071,0,0,0-2.472,3C159.677,35.552,160.6,36.613,162.075,38.454Z" transform="translate(2434.309 849.499)" fill="#00d6ad"/>
      <path id="Path_90541" data-name="Path 90541" d="M280.394,212.614a1.527,1.527,0,0,1,.97.823,12.249,12.249,0,0,0,2.146-2.815,2.908,2.908,0,0,0-1.176-1.032A7,7,0,0,1,280.394,212.614Z" transform="translate(2902.935 956.122)" fill="#00d6ad"/>
      <path id="Path_90542" data-name="Path 90542" d="M294.159,24.058a2.109,2.109,0,0,1,1.58-.77,16.946,16.946,0,0,0-2.37-4.278,4.021,4.021,0,0,0-1.957.914A9.68,9.68,0,0,1,294.159,24.058Z" transform="translate(2903.944 848.314)" fill="#00d6ad"/>
      <path id="Path_90543" data-name="Path 90543" d="M173.091-30.25a5.94,5.94,0,0,1,.337,3.466,1.622,1.622,0,0,1,1.256.335,7.128,7.128,0,0,0-.037-3.883A2.976,2.976,0,0,0,173.091-30.25Z" transform="translate(2467.862 843.788)" fill="#00d6ad"/>
      <path id="Path_90544" data-name="Path 90544" d="M66.314-2.679c2.114-1.587,3.3-2.277,5.519-2.576a2.832,2.832,0,0,1-.178-2.266A12.442,12.442,0,0,0,65.274-5.2,5.207,5.207,0,0,0,66.314-2.679Z" transform="translate(2161.42 845.884)" fill="#00d6ad"/>
      <path id="Path_90545" data-name="Path 90545" d="M-112.545,354.677c-.606-.9-.841-2.057-.386-4.662a5.57,5.57,0,0,0-3.33,1.083,9.919,9.919,0,0,0,.812,4.942A5.075,5.075,0,0,1-112.545,354.677Z" transform="translate(3170.143 481.552)" fill="#00d6ad"/>
      <path id="Path_90546" data-name="Path 90546" d="M-53.313,6.065c-.776-.293-1.432-.9-2.3-2.725a4.251,4.251,0,0,0-1.59,2.146A7.57,7.57,0,0,0-54.515,8.2,3.881,3.881,0,0,1-53.313,6.065Z" transform="translate(1563.731 846.878)" fill="#00d6ad"/>
      <path id="Path_90547" data-name="Path 90547" d="M286.7,158.451a6.69,6.69,0,0,0,2.349,3.6,7.181,7.181,0,0,1,3.513-2.832,10.164,10.164,0,0,0-1.67-3.783A13.448,13.448,0,0,1,286.7,158.451Z" transform="translate(2903.512 931.447)" fill="#00d6ad"/>
      <path id="Path_90548" data-name="Path 90548" d="M-82.222,171.409a6.82,6.82,0,0,0,3.423-2.743,7.333,7.333,0,0,1-3.225-3.286,10.379,10.379,0,0,0-3.675,2.074A13.73,13.73,0,0,1-82.222,171.409Z" transform="translate(1561.121 935.983)" fill="#00d6ad"/>
      <path id="Path_90549" data-name="Path 90549" d="M-75.289,192.361a4.129,4.129,0,0,0-2.621-1.267,25.894,25.894,0,0,1-3.814,8.522,4.23,4.23,0,0,1,2.276,1.558A23.019,23.019,0,0,0-75.289,192.361Z" transform="translate(1561.485 948.755)" fill="#00d6ad"/>
      <path id="Path_90550" data-name="Path 90550" d="M-82.2,260.233c.671-.306.958-.812,1.4-1.655a19.257,19.257,0,0,1-5.439-4.329,3.149,3.149,0,0,1-1.545,1.353A17.132,17.132,0,0,0-82.2,260.233Z" transform="translate(1560.929 977.371)" fill="#00d6ad"/>
      <path id="Path_90551" data-name="Path 90551" d="M126.024,157.952a3.028,3.028,0,0,0,.354-2.541,18.659,18.659,0,0,1-4.137-1.516,2.781,2.781,0,0,1-.448,1.346A16.671,16.671,0,0,1,126.024,157.952Z" transform="translate(2323.672 930.315)" fill="#00d6ad"/>
      <path id="Path_90552" data-name="Path 90552" d="M208.336,151.036a5.479,5.479,0,0,0,4.61-.532,33.8,33.8,0,0,1,.781-7.934,5.029,5.029,0,0,1-2.56-.175A30.146,30.146,0,0,1,208.336,151.036Z" transform="translate(2576.681 925.716)" fill="#00d6ad"/>
      <path id="Path_90553" data-name="Path 90553" d="M67.5-23.268c1.04-1.092,1.238-2.374,1.045-4.445a18.049,18.049,0,0,1-8.061-1.764c.059,1.518-.386,2.557-1.652,4.434A21.692,21.692,0,0,0,67.5-23.268Z" transform="translate(2146.252 843.873)" fill="#feb937"/>
      <path id="Path_90554" data-name="Path 90554" d="M317.338,104.636a3.272,3.272,0,0,0,2.925-.2,11.606,11.606,0,0,1-.437-5.282,4.364,4.364,0,0,1-3.034-.178A13.914,13.914,0,0,0,317.338,104.636Z" transform="translate(2906.26 905.038)" fill="#feb937"/>
      <path id="Path_90555" data-name="Path 90555" d="M175.093,155.775a2.889,2.889,0,0,0,2.388,1.624,4.371,4.371,0,0,0,1.607-2.361,6.556,6.556,0,0,1-1.7-3.217A11.406,11.406,0,0,1,175.093,155.775Z" transform="translate(2477.414 929.594)" fill="#feb937"/>
      <path id="Path_90556" data-name="Path 90556" d="M314.491,140.622a4.39,4.39,0,0,0,4.193,1.284,6.657,6.657,0,0,0,1.271-4.147c-1.707-.879-2.583-1.945-3.9-3.9A17.333,17.333,0,0,1,314.491,140.622Z" transform="translate(2906.058 921.602)" fill="#feb937"/>
      <path id="Path_90557" data-name="Path 90557" d="M199.713,22.625a17.333,17.333,0,0,0-5.514-2.5,6.977,6.977,0,0,0,.079,3.68,5.776,5.776,0,0,1,3.4,1.473A3.894,3.894,0,0,1,199.713,22.625Z" transform="translate(2535.533 848.416)" fill="#feb937"/>
      <path id="Path_90558" data-name="Path 90558" d="M-114.788,280.718a11.584,11.584,0,0,0-3.5,2.037,4.652,4.652,0,0,0,2.035,1.382,3.866,3.866,0,0,1,2.121-1.284A2.6,2.6,0,0,1-114.788,280.718Z" transform="translate(1558.136 989.008)" fill="#feb937"/>
      <path id="Path_90559" data-name="Path 90559" d="M-133.1,183.286a5.957,5.957,0,0,1-1.778-1.792,18.526,18.526,0,0,1-2.857,4.129,3.349,3.349,0,0,0,1.52,1.907A22.021,22.021,0,0,0-133.1,183.286Z" transform="translate(1556.354 943.491)" fill="#feb937"/>
      <path id="Path_90560" data-name="Path 90560" d="M-102.426,334.6a8.224,8.224,0,0,1,2.954,1.85,25.555,25.555,0,0,1,2.541-6.446,4.627,4.627,0,0,0-2.639-2.085A30.369,30.369,0,0,0-102.426,334.6Z" transform="translate(1559.589 1024.769)" fill="#feb937"/>
      <path id="Path_90561" data-name="Path 90561" d="M-77.924,183.441a5.819,5.819,0,0,0-3.657.293,8.66,8.66,0,0,1-1.336,2.29c.87-.063,1.349.3,2.07,1.312A15.042,15.042,0,0,1-77.924,183.441Z" transform="translate(1561.375 943.955)" fill="#feb937"/>
      <path id="Path_90562" data-name="Path 90562" d="M36.58-20.926a10.974,10.974,0,0,0-6.352-2.738,16.312,16.312,0,0,1-4.246,2.636c1.505.663,1.983,1.692,2.29,4.012C30.506-18.752,33.08-19.689,36.58-20.926Z" transform="translate(2999.721 1031.741)" fill="#feb937"/>
      <path id="Path_90563" data-name="Path 90563" d="M-64.73,127.7a7.714,7.714,0,0,1,2.086-2.188,2.469,2.469,0,0,0-1.226-.992,10.234,10.234,0,0,0-2.285,2.1C-65.323,126.822-64.93,127.058-64.73,127.7Z" transform="translate(1562.911 916.562)" fill="#feb937"/>
      <path id="Path_90564" data-name="Path 90564" d="M302.755,200.873a6.844,6.844,0,0,1-2.584.724,2.186,2.186,0,0,0,.486,1.313,9.056,9.056,0,0,0,2.7-.569C302.809,201.812,302.617,201.454,302.755,200.873Z" transform="translate(2904.746 951.716)" fill="#feb937"/>
      <path id="Path_90565" data-name="Path 90565" d="M-8.444,156.515a4.907,4.907,0,0,1,.761-4.936c-2.467-.313-4.161.06-7.2.94-.944,1.5-.935,2.515-.331,4.432C-12.6,156.221-10.677,155.881-8.444,156.515Z" transform="translate(1926.264 929.415)" fill="#feb937"/>
      <path id="Path_90566" data-name="Path 90566" d="M-118.633,141.872a3.927,3.927,0,0,1,.607,3.949,12.773,12.773,0,0,0,5.268-2.45,3.571,3.571,0,0,0-.814-3.463A9.353,9.353,0,0,1-118.633,141.872Z" transform="translate(1558.104 924.1)" fill="#feb937"/>
      <path id="Path_90567" data-name="Path 90567" d="M301.2,314.63A8.571,8.571,0,0,0,305.575,316a4.179,4.179,0,0,0,.784-2.668,7.821,7.821,0,0,1-4.3-1.39A2.923,2.923,0,0,1,301.2,314.63Z" transform="translate(2904.84 1023.306)" fill="#feb937"/>
      <path id="Path_90568" data-name="Path 90568" d="M149.016-24.5a10.37,10.37,0,0,0-4.744-2.881,5.052,5.052,0,0,0-1.692,2.907,9.474,9.474,0,0,1,4.646,2.875A3.538,3.538,0,0,1,149.016-24.5Z" transform="translate(2386.854 844.065)" fill="#feb937"/>
      <path id="Path_90569" data-name="Path 90569" d="M244.8,251.371a4.064,4.064,0,0,1,2.7-1.076,14.177,14.177,0,0,0-2.91-3.672,6.5,6.5,0,0,0-2.052,1.893A8.235,8.235,0,0,1,244.8,251.371Z" transform="translate(2899.468 973.52)" fill="#feb937"/>
      <path id="Path_90570" data-name="Path 90570" d="M315.626,169.927a7.973,7.973,0,0,1,5.253-2.2c-2-3.183-4.372-6.139-5.829-7.1a12.72,12.72,0,0,0-3.957,3.778C312.759,165.467,313.863,167.1,315.626,169.927Z" transform="translate(2905.747 934.322)" fill="#feb937"/>
      <path id="Path_90571" data-name="Path 90571" d="M71.413,116.035a3.394,3.394,0,0,1-1.022-2.638,27.256,27.256,0,0,0-7.188,3.221,6.484,6.484,0,0,0,1.2,3.266A15.57,15.57,0,0,1,71.413,116.035Z" transform="translate(2157.28 911.825)" fill="#feb937"/>
      <path id="Path_90572" data-name="Path 90572" d="M239.5,155.9a3.349,3.349,0,0,1,2.236-1.679,26.929,26.929,0,0,0-4.992-5.977,6.419,6.419,0,0,0-2.786,2.019A15.388,15.388,0,0,1,239.5,155.9Z" transform="translate(2898.681 928.255)" fill="#feb937"/>
      <path id="Path_90573" data-name="Path 90573" d="M219.226,112.49a5.389,5.389,0,0,1,2.464,1.966,1.46,1.46,0,0,1,1.01-.6,6.455,6.455,0,0,0-2.543-2.426A2.7,2.7,0,0,0,219.226,112.49Z" transform="translate(2604.55 910.477)" fill="#feb937"/>
      <path id="Path_90574" data-name="Path 90574" d="M-51.041,73.481a7.283,7.283,0,0,1,4.172-.827,1.978,1.978,0,0,1,.258-1.566,8.711,8.711,0,0,0-4.716.512A3.642,3.642,0,0,0-51.041,73.481Z" transform="translate(1673.884 891.682)" fill="#feb937"/>
      <path id="Path_90575" data-name="Path 90575" d="M26.719,112.316c-1.645.52-3.5.361-7.265-1.491a8.835,8.835,0,0,0,.164,5.55,15.693,15.693,0,0,0,7.878.967A8.065,8.065,0,0,1,26.719,112.316Z" transform="translate(2028.283 910.648)" fill="#feb937"/>
      <path id="Path_90576" data-name="Path 90576" d="M270.41,247.371c.32,1.264.121,2.66-1.44,5.419a6.68,6.68,0,0,0,4.2.117,11.887,11.887,0,0,0,1.07-5.9A6.093,6.093,0,0,1,270.41,247.371Z" transform="translate(2901.888 974.043)" fill="#feb937"/>
      <path id="Path_90577" data-name="Path 90577" d="M296.337,281.744a8.009,8.009,0,0,0-1.8,4.829,8.608,8.608,0,0,1,5.233,1.374,12.2,12.2,0,0,0,2.459-4.305A16.131,16.131,0,0,1,296.337,281.744Z" transform="translate(2904.23 990.238)" fill="#feb937"/>
      <path id="Path_90578" data-name="Path 90578" d="M-101.705,118.4a7.782,7.782,0,0,0,5,.033A8.363,8.363,0,0,1-97.2,113.2a11.826,11.826,0,0,0-4.744-.806A15.623,15.623,0,0,1-101.705,118.4Z" transform="translate(3206.85 708.207)" fill="#feb937"/>
      <path id="Path_90579" data-name="Path 90579" d="M141.387,17.916a3.7,3.7,0,0,0-.98,2.424,23.29,23.29,0,0,1,7.867,2.912,3.8,3.8,0,0,1,1.261-2.133A20.718,20.718,0,0,0,141.387,17.916Z" transform="translate(2384.791 848.214)" fill="#feb937"/>
      <path id="Path_90580" data-name="Path 90580" d="M304.86,149.189a3.852,3.852,0,0,0,2.3-1.457,24.251,24.251,0,0,1-4.889-7.234,3.962,3.962,0,0,1-2.361,1.04A21.584,21.584,0,0,0,304.86,149.189Z" transform="translate(2904.722 924.794)" fill="#feb937"/>
      <path id="Path_90581" data-name="Path 90581" d="M-130.251,116.644a4.192,4.192,0,0,0,2.824-2.162,25.915,25.915,0,0,1-2.606-5.525,3.87,3.87,0,0,1-1.752.891A23.069,23.069,0,0,1-130.251,116.644Z" transform="translate(2925.42 925.987)" fill="#feb937"/>
      <path id="Path_90582" data-name="Path 90582" d="M74.184,22.942a5.246,5.246,0,0,0-1.79,4.072,32.419,32.419,0,0,1,6.187,4.481,4.816,4.816,0,0,1,1.382-2.033A28.849,28.849,0,0,1,74.184,22.942Z" transform="translate(2183.416 848.674)" fill="#feb937"/>
      <path id="Path_90583" data-name="Path 90583" d="M210.026,29.3a3.263,3.263,0,0,0,.377,2.9,11.593,11.593,0,0,1,5.234-.76,4.353,4.353,0,0,1-.01-3.032A13.881,13.881,0,0,0,210.026,29.3Z" transform="translate(2812.972 854.494)" fill="#fb242d"/>
      <path id="Path_90584" data-name="Path 90584" d="M-59.6,156.333c.159.658.595,1.045,1.422,1.475a8.118,8.118,0,0,1,2.625-2.612,3.051,3.051,0,0,1-1.271-1.7A9.729,9.729,0,0,0-59.6,156.333Z" transform="translate(1563.511 930.17)" fill="#fb242d"/>
      <path id="Path_90585" data-name="Path 90585" d="M59.455,68.2a3.107,3.107,0,0,0,2.6,1.694,4.688,4.688,0,0,0,1.677-2.575A7.065,7.065,0,0,1,61.841,63.9,12.274,12.274,0,0,1,59.455,68.2Z" transform="translate(2141.877 888.704)" fill="#fb242d"/>
      <path id="Path_90586" data-name="Path 90586" d="M189.822,80.812a2.417,2.417,0,0,0,2.3-.732A3.652,3.652,0,0,0,191.4,77.8a5.488,5.488,0,0,1-2.993-.546A9.562,9.562,0,0,1,189.822,80.812Z" transform="translate(2515.571 894.701)" fill="#fb242d"/>
      <path id="Path_90587" data-name="Path 90587" d="M.348-23.139a12.891,12.891,0,0,0,4.482.392,5.166,5.166,0,0,0-.963-2.561,4.308,4.308,0,0,1-2.75-.193A2.89,2.89,0,0,1,.348-23.139Z" transform="translate(1970.274 844.237)" fill="#fb242d"/>
      <path id="Path_90588" data-name="Path 90588" d="M268.474,24.814a20.668,20.668,0,0,0-3.025,6.546,8.285,8.285,0,0,0,4.385-.061c.062-1.529.683-2.547,1.785-4.041A4.64,4.64,0,0,1,268.474,24.814Z" transform="translate(2901.566 848.845)" fill="#fb242d"/>
      <path id="Path_90589" data-name="Path 90589" d="M-100.1,297.144a10.708,10.708,0,0,1-.859,4.454,33.231,33.231,0,0,1,9.017.058,6.022,6.022,0,0,0,1.29-4.182A39.492,39.492,0,0,0-100.1,297.144Z" transform="translate(2594.057 682.519)" fill="#fb242d"/>
      <path id="Path_90590" data-name="Path 90590" d="M277.123,183.749a6.9,6.9,0,0,1,2.784.9,21.449,21.449,0,0,1,.755-5.77,3.881,3.881,0,0,0-2.576-1.159A25.447,25.447,0,0,0,277.123,183.749Z" transform="translate(2902.635 941.898)" fill="#fb242d"/>
      <path id="Path_90591" data-name="Path 90591" d="M-102.315,346.331A5.028,5.028,0,0,0-99.51,347.8a7.454,7.454,0,0,1,2.027-1.059c-.665-.354-.847-.841-.908-1.909A12.991,12.991,0,0,1-102.315,346.331Z" transform="translate(1559.599 1026.318)" fill="#fb242d"/>
      <path id="Path_90592" data-name="Path 90592" d="M309.551,48.951a9.58,9.58,0,0,0-2.462,5.513,14.236,14.236,0,0,1,2.252,3.734c.595-1.306,1.5-1.711,3.527-1.953C311.379,54.277,310.59,52.019,309.551,48.951Z" transform="translate(2905.38 881.975)" fill="#fb242d"/>
      <path id="Path_90593" data-name="Path 90593" d="M-111.969,229.79a14.931,14.931,0,0,1-2.969-5.045,4.8,4.8,0,0,0-2.5,1.755,19.815,19.815,0,0,0,2.706,5.372C-113.918,230.429-113.269,229.824-111.969,229.79Z" transform="translate(1558.214 963.884)" fill="#fb242d"/>
      <path id="Path_90594" data-name="Path 90594" d="M120.418,97.132a15.988,15.988,0,0,1,5.156,3.58,5.138,5.138,0,0,0,1.644-2.832,21.2,21.2,0,0,0-5.045-4.016C122.028,95.636,121.668,96.515,120.418,97.132Z" transform="translate(2322.72 902.758)" fill="#fb242d"/>
      <path id="Path_90595" data-name="Path 90595" d="M218.055,55.838a1.991,1.991,0,0,1,1.742,1.03,6.473,6.473,0,0,0,.732-2.85,1.809,1.809,0,0,0-1.618-.792A4.746,4.746,0,0,1,218.055,55.838Z" transform="translate(2599.167 883.559)" fill="#fb242d"/>
      <path id="Path_90597" data-name="Path 90597" d="M-139.573,243.034a6.8,6.8,0,0,0,2.021,3.027,3.322,3.322,0,0,0,1.812-1.259,6.216,6.216,0,0,1-1.965-3A2.324,2.324,0,0,1-139.573,243.034Z" transform="translate(1556.186 971.165)" fill="#fb242d"/>
      <path id="Path_90598" data-name="Path 90598" d="M85.244-33.05a5.278,5.278,0,0,0-1.161,2.577,2.58,2.58,0,0,0,1.574.676,4.832,4.832,0,0,1,1.165-2.528A1.8,1.8,0,0,1,85.244-33.05Z" transform="translate(2211.516 843.545)" fill="#fb242d"/>
      <path id="Path_90599" data-name="Path 90599" d="M291.017,363.535a4.517,4.517,0,0,1-2.94,1.345,15.771,15.771,0,0,0,3.437,3.922,7.214,7.214,0,0,0,2.177-2.218A9.156,9.156,0,0,1,291.017,363.535Z" transform="translate(2903.638 1028.031)" fill="#fb242d"/>
      <path id="Path_90600" data-name="Path 90600" d="M-136.493,147.377a3.706,3.706,0,0,1-1,2.455,12.9,12.9,0,0,0,4.255.41,5.916,5.916,0,0,0,.053-2.546A7.514,7.514,0,0,1-136.493,147.377Z" transform="translate(1556.377 927.115)" fill="#fb242d"/>
      <path id="Path_90601" data-name="Path 90601" d="M-90.066-5.869a2.751,2.751,0,0,1,.927-2.1,22.244,22.244,0,0,0-5.979-2.274A5.255,5.255,0,0,0-96.3-7.679,12.651,12.651,0,0,1-90.066-5.869Z" transform="translate(1560.15 845.634)" fill="#fb242d"/>
      <path id="Path_90602" data-name="Path 90602" d="M244.487,6.776a1.836,1.836,0,0,1-.917-1.23,14.833,14.833,0,0,0-3.291,2.73,3.514,3.514,0,0,0,1.1,1.533A8.461,8.461,0,0,1,244.487,6.776Z" transform="translate(2899.26 847.081)" fill="#fb242d"/>
      <path id="Path_90603" data-name="Path 90603" d="M263.451,275.871a8.593,8.593,0,0,1-5.036-.133,2.338,2.338,0,0,1-.706,1.742,10.3,10.3,0,0,0,5.58.64A4.3,4.3,0,0,0,263.451,275.871Z" transform="translate(2900.857 986.453)" fill="#fb242d"/>
      <path id="Path_90604" data-name="Path 90604" d="M127.382.933c1.808-2.034,2.857-2.972,5.039-3.73a2.91,2.91,0,0,1-.644-2.249,12.812,12.812,0,0,0-5.96,3.65A5.362,5.362,0,0,0,127.382.933Z" transform="translate(2338.192 846.11)" fill="#fb242d"/>
      <path id="Path_90605" data-name="Path 90605" d="M317.535,207.544c-.175.8-.68,1.53-2.333,2.644a4.2,4.2,0,0,0,2.327,1.245,7.488,7.488,0,0,0,2.263-3.022A3.829,3.829,0,0,1,317.535,207.544Z" transform="translate(2906.123 955.181)" fill="#fb242d"/>
      <path id="Path_90606" data-name="Path 90606" d="M-127.482,174.483c1.14-.5,2.486-.529,5.326.511a6.373,6.373,0,0,0-.544-3.969,11.338,11.338,0,0,0-5.727-.087A5.814,5.814,0,0,1-127.482,174.483Z" transform="translate(1557.207 938.13)" fill="#fb242d"/>
      <path id="Path_90607" data-name="Path 90607" d="M173.874,64.877a5.255,5.255,0,0,0-3.337-.534,5.651,5.651,0,0,1-.205,3.541,8.008,8.008,0,0,0,3.085,1.024A10.591,10.591,0,0,1,173.874,64.877Z" transform="translate(2462.803 888.769)" fill="#fb242d"/>
      <path id="Path_90608" data-name="Path 90608" d="M193.978-23.656a3.7,3.7,0,0,0,.661,2.286,3.98,3.98,0,0,1,2.317-.931,5.642,5.642,0,0,0-.274-2.273A7.423,7.423,0,0,1,193.978-23.656Z" transform="translate(2530.416 844.322)" fill="#fb242d"/>
      <path id="Path_90609" data-name="Path 90609" d="M19.382,64.806c.386,1.045,1.116,1.532,2.335,2.289a29.085,29.085,0,0,1,7.119-7.7,4.755,4.755,0,0,1-1.863-2.475A25.861,25.861,0,0,0,19.382,64.806Z" transform="translate(2030.11 885.783)" fill="#fb242d"/>
      <path id="Path_90610" data-name="Path 90610" d="M236.272.718a2.767,2.767,0,0,0-.78,1.792,17.377,17.377,0,0,1,5.82,2.333,2.838,2.838,0,0,1,.985-1.569A15.465,15.465,0,0,0,236.272.718Z" transform="translate(2898.822 846.638)" fill="#fb242d"/>
      <path id="Path_90611" data-name="Path 90611" d="M30.713,12.919a6.324,6.324,0,0,0-5.248-1.084,38.994,38.994,0,0,1-3.722,8.419,5.8,5.8,0,0,1,2.743,1.116A34.783,34.783,0,0,1,30.713,12.919Z" transform="translate(2053.292 859.372)" fill="#fb242d"/>
      <path id="Path_90612" data-name="Path 90612" d="M-43.77,44.333a3.609,3.609,0,0,0,1.479-2.676A22.22,22.22,0,0,1-46.246,38.2a3.316,3.316,0,0,1-1.073,1.306A19.858,19.858,0,0,1-43.77,44.333Z" transform="translate(1831.99 850.072)" fill="#fb242d"/>
      <path id="Path_90613" data-name="Path 90613" d="M-66.313,300.784a2.485,2.485,0,0,0-.783,2.088,8.839,8.839,0,0,1,3.8,1.357,3.318,3.318,0,0,1,1.075-2.046A10.564,10.564,0,0,0-66.313,300.784Z" transform="translate(1562.825 1022.283)" fill="#00d6ad"/>
      <path id="Path_90614" data-name="Path 90614" d="M291.079,96.668c.228,1.475,1.113,2.4,2.852,3.5a17.887,17.887,0,0,1,6.249-5.251c-1.226-.87-1.77-1.846-2.477-3.97A21.467,21.467,0,0,0,291.079,96.668Z" transform="translate(2903.913 901.655)" fill="#00d6ad"/>
      <path id="Path_90615" data-name="Path 90615" d="M-93.668,117.686a2.81,2.81,0,0,0,1.342,2.47,4.257,4.257,0,0,0,2.444-1.326,6.4,6.4,0,0,1-.032-3.54A11.076,11.076,0,0,1-93.668,117.686Z" transform="translate(1560.391 912.5)" fill="#00d6ad"/>
      <path id="Path_90616" data-name="Path 90616" d="M69.252,10.53a2.708,2.708,0,0,0,.284,2.694,4.105,4.105,0,0,0,2.665-.279,6.156,6.156,0,0,1,1.277-3.163A10.678,10.678,0,0,1,69.252,10.53Z" transform="translate(2169.874 847.468)" fill="#00d6ad"/>
      <path id="Path_90617" data-name="Path 90617" d="M314.305,187.414a13.013,13.013,0,0,0,1.279-4.355,5.215,5.215,0,0,0-2.724.443,4.338,4.338,0,0,1-.739,2.681A2.917,2.917,0,0,1,314.305,187.414Z" transform="translate(2905.841 943.902)" fill="#00d6ad"/>
      <path id="Path_90618" data-name="Path 90618" d="M204.861,124.54a25.042,25.042,0,0,0,8.365,2.547,10.064,10.064,0,0,0-.8-5.256c-1.848.18-3.174-.4-5.15-1.474A5.627,5.627,0,0,1,204.861,124.54Z" transform="translate(2572.425 915.102)" fill="#00d6ad"/>
      <path id="Path_90619" data-name="Path 90619" d="M12.485,149.319a11.561,11.561,0,0,1,2.38,4.294,36.085,36.085,0,0,1,7.53-6.218,6.516,6.516,0,0,0-1.835-4.371A42.8,42.8,0,0,0,12.485,149.319Z" transform="translate(2010.267 926.272)" fill="#00d6ad"/>
      <path id="Path_90620" data-name="Path 90620" d="M-16.677,58.451a6.325,6.325,0,0,1,.972-2.5,19.722,19.722,0,0,1-5.233-.99,3.557,3.557,0,0,0-1.193,2.293A23.411,23.411,0,0,0-16.677,58.451Z" transform="translate(1906.223 884.354)" fill="#00d6ad"/>
      <path id="Path_90621" data-name="Path 90621" d="M-12.621,126.6a7.89,7.89,0,0,0-4.7-1.643,11.822,11.822,0,0,1-2.913,2.107c1.113.4,1.509,1.113,1.846,2.762A20.45,20.45,0,0,1-12.621,126.6Z" transform="translate(1912.579 916.992)" fill="#00d6ad"/>
      <path id="Path_90622" data-name="Path 90622" d="M168.55,130.337a8.347,8.347,0,0,0-4.683-2.4,12.483,12.483,0,0,1-3.357,1.786c1.109.579,1.42,1.385,1.536,3.161A21.608,21.608,0,0,1,168.55,130.337Z" transform="translate(2441.896 918.39)" fill="#00d6ad"/>
      <path id="Path_90623" data-name="Path 90623" d="M-68.815,36.2a12.8,12.8,0,0,1-4.925.9,4.085,4.085,0,0,0,.677,2.523,16.92,16.92,0,0,0,5.112-.6C-68.873,37.957-69.169,37.258-68.815,36.2Z" transform="translate(3156.385 934.812)" fill="#00d6ad"/>
      <path id="Path_90624" data-name="Path 90624" d="M64.593,98.037a7.016,7.016,0,0,1,1.2-2.475,2.256,2.256,0,0,0-1.336-.521,9.313,9.313,0,0,0-1.4,2.456C63.835,97.441,64.241,97.537,64.593,98.037Z" transform="translate(2150.594 902.882)" fill="#00d6ad"/>
      <path id="Path_90625" data-name="Path 90625" d="M219.944-4.425a2,2,0,0,1,.5-1.969,6.486,6.486,0,0,0-2.954.1,1.812,1.812,0,0,0-.309,1.781A4.765,4.765,0,0,1,219.944-4.425Z" transform="translate(2598.123 845.975)" fill="#00d6ad"/>
      <path id="Path_90626" data-name="Path 90626" d="M-102.925,205.6a2.8,2.8,0,0,1,.975,2.682,9.112,9.112,0,0,0,3.351-2.45,2.552,2.552,0,0,0-1.051-2.312A6.7,6.7,0,0,1-102.925,205.6Z" transform="translate(1559.543 953.49)" fill="#00d6ad"/>
      <path id="Path_90627" data-name="Path 90627" d="M22.938,79.792a9.994,9.994,0,0,0-4.459,2.96,4.882,4.882,0,0,0,1.844,2.669,9.144,9.144,0,0,1,4.416-2.877A3.417,3.417,0,0,1,22.938,79.792Z" transform="translate(2024.573 896.073)" fill="#00d6ad"/>
      <path id="Path_90628" data-name="Path 90628" d="M-93.845,201.555a5.371,5.371,0,0,0-1.206-2.615,2.63,2.63,0,0,0-1.571.761,4.913,4.913,0,0,1,1.166,2.585A1.837,1.837,0,0,1-93.845,201.555Z" transform="translate(1560.12 951.081)" fill="#00d6ad"/>
      <path id="Path_90629" data-name="Path 90629" d="M271.809,291.314a7.527,7.527,0,0,1,.245-5.374c-3.527.422-7.008,1.249-8.415,2.107a12.031,12.031,0,0,0,1.626,4.906C266.843,291.958,268.687,291.675,271.809,291.314Z" transform="translate(2901.4 992.417)" fill="#00d6ad"/>
      <path id="Path_90630" data-name="Path 90630" d="M307.112,230.886a3.919,3.919,0,0,1-2.057-1.9,13.625,13.625,0,0,0-1.988,4.056,6.28,6.28,0,0,0,2.5,1A7.907,7.907,0,0,1,307.112,230.886Z" transform="translate(2905.011 965.392)" fill="#00d6ad"/>
      <path id="Path_90631" data-name="Path 90631" d="M312.325,260.814a3.708,3.708,0,0,1-3.049.512,29.9,29.9,0,0,0,1.864,8.4,7.1,7.1,0,0,0,3.761-.567A17.057,17.057,0,0,1,312.325,260.814Z" transform="translate(2905.58 981.188)" fill="#00d6ad"/>
      <path id="Path_90632" data-name="Path 90632" d="M-101.274,218.308a2.87,2.87,0,0,1-2.083,1.178,23.133,23.133,0,0,0,3.578,5.623,5.482,5.482,0,0,0,2.587-1.407A13.2,13.2,0,0,1-101.274,218.308Z" transform="translate(1559.503 960.807)" fill="#00d6ad"/>
      <path id="Path_90633" data-name="Path 90633" d="M263.246-9.232a7.1,7.1,0,0,1,3.979,1.221,1.926,1.926,0,0,1,.948-1.23,8.5,8.5,0,0,0-4.3-1.747A3.544,3.544,0,0,0,263.246-9.232Z" transform="translate(2901.364 845.566)" fill="#00d6ad"/>
      <path id="Path_90634" data-name="Path 90634" d="M260.324,229.335a5.653,5.653,0,0,1-3.18-.93,1.54,1.54,0,0,1-.741.99,6.77,6.77,0,0,0,3.442,1.344A2.832,2.832,0,0,0,260.324,229.335Z" transform="translate(2900.737 964.513)" fill="#00d6ad"/>
      <path id="Path_90635" data-name="Path 90635" d="M248.176,114.2c1.613-.455,3.417-.246,7.016,1.668a8.589,8.589,0,0,0,.009-5.4,15.29,15.29,0,0,0-7.629-1.178A7.852,7.852,0,0,1,248.176,114.2Z" transform="translate(2899.928 909.893)" fill="#00d6ad"/>
      <path id="Path_90636" data-name="Path 90636" d="M305.042,343.11c-1.015-.848-1.681-2.116-2.037-5.311a6.763,6.763,0,0,0-3.52,2.4,12.046,12.046,0,0,0,2.63,5.492A6.191,6.191,0,0,1,305.042,343.11Z" transform="translate(2904.683 1025.674)" fill="#00d6ad"/>
      <path id="Path_90637" data-name="Path 90637" d="M-88.13,147.623a3.913,3.913,0,0,0,.309,2.5,4.21,4.21,0,0,1,2.579-.585,5.97,5.97,0,0,0,.095-2.423A7.879,7.879,0,0,1-88.13,147.623Z" transform="translate(1560.891 927.006)" fill="#00d6ad"/>
      <path id="Path_90638" data-name="Path 90638" d="M174.958,48.666a8.23,8.23,0,0,0,2.649-4.58,8.85,8.85,0,0,1-5.063-2.287,12.538,12.538,0,0,0-3.226,3.94A16.563,16.563,0,0,1,174.958,48.666Z" transform="translate(2468.116 878.468)" fill="#00d6ad"/>
      <path id="Path_90639" data-name="Path 90639" d="M35.129,40.317a4.231,4.231,0,0,0-1.7-2.453,26.519,26.519,0,0,1-7.7,5.671,4.331,4.331,0,0,1,1.242,2.538A23.59,23.59,0,0,0,35.129,40.317Z" transform="translate(2048.684 850.041)" fill="#00d6ad"/>
      <path id="Path_90640" data-name="Path 90640" d="M290.263,349.658c1.167.039,1.929-.477,3.147-1.362-2.034-2.583-3.421-5.932-4.667-9.96a4.988,4.988,0,0,1-3.141.832A27.1,27.1,0,0,0,290.263,349.658Z" transform="translate(2903.412 1025.723)" fill="#00d6ad"/>
      <path id="Path_90641" data-name="Path 90641" d="M95.055,70.366A5.981,5.981,0,0,0,97.625,66a36.928,36.928,0,0,1-6.4-5.9,5.489,5.489,0,0,1-1.836,2.116A32.887,32.887,0,0,1,95.055,70.366Z" transform="translate(2233.984 887.283)" fill="#00d6ad"/>
      <path id="Path_90642" data-name="Path 90642" d="M277.6,312.68a3.92,3.92,0,0,0-3.213-.849,24.208,24.208,0,0,1-2.593,5.087,3.606,3.606,0,0,1,1.661.785A21.557,21.557,0,0,1,277.6,312.68Z" transform="translate(2902.147 1023.29)" fill="#00d6ad"/>
    </g>
    <g id="Group_46661" data-name="Group 46661" transform="translate(197.7 182.65)" opacity="0.714">
      <path id="Path_90493-2" data-name="Path 90493" d="M191.681,109.417a2.67,2.67,0,0,1-1.365,1.966,9.477,9.477,0,0,0-3.516-2.521,3.562,3.562,0,0,0,1.147-2.2A11.351,11.351,0,0,1,191.681,109.417Z" transform="translate(245.176 97.977)" fill="#fb242d"/>
      <path id="Path_90494-2" data-name="Path 90494" d="M-47.291,17.858c.713.214,1.111.717,1.535,1.655a8.946,8.946,0,0,0-3.036,2.728,3.363,3.363,0,0,0-1.792-1.5A10.69,10.69,0,0,1-47.291,17.858Z" transform="translate(1169.82 37.713)" fill="#fb242d"/>
      <path id="Path_90495-2" data-name="Path 90495" d="M195.906,2.058a3.081,3.081,0,0,1,2.064,2.28,4.662,4.662,0,0,1-2.254,2.041,6.98,6.98,0,0,0-3.642-1.315A12.148,12.148,0,0,0,195.906,2.058Z" transform="translate(220.644 36.266)" fill="#fb242d"/>
      <path id="Path_90496-2" data-name="Path 90496" d="M-82.936,282.92a2.1,2.1,0,0,1-.1-2.093,3.179,3.179,0,0,1,2.07-.1,4.761,4.761,0,0,0,1.354,2.265A8.275,8.275,0,0,0-82.936,282.92Z" transform="translate(1502.239 178.181)" fill="#fb242d"/>
      <path id="Path_90497-2" data-name="Path 90497" d="M-111.69,192.948a11.252,11.252,0,0,1-.825,3.833,4.49,4.49,0,0,1-1.885-1.458,3.753,3.753,0,0,0,.545-2.339A2.528,2.528,0,0,0-111.69,192.948Z" transform="translate(1568.293 137.902)" fill="#fb242d"/>
      <path id="Path_90498-2" data-name="Path 90498" d="M37.934-1.1a21.521,21.521,0,0,1,5.721-4.857,8.625,8.625,0,0,1,1.163,4.413c-1.52.489-2.365,1.4-3.555,2.916A4.836,4.836,0,0,0,37.934-1.1Z" transform="translate(555.062 295.086)" fill="#fb242d"/>
      <path id="Path_90499-2" data-name="Path 90499" d="M47.991,82.183a5.469,5.469,0,0,0,1.373,1.875,17.065,17.065,0,0,0-4.167,2A3.079,3.079,0,0,1,43.684,84.4,20.234,20.234,0,0,1,47.991,82.183Z" transform="translate(843.691 86.517)" fill="#fb242d"/>
      <path id="Path_90500-2" data-name="Path 90500" d="M147.583,64.885a12.461,12.461,0,0,0-5.24.735,38.85,38.85,0,0,0,.474-10.511,7.023,7.023,0,0,1,4.95-1.252A46,46,0,0,1,147.583,64.885Z" transform="translate(429.8 73.96)" fill="#fb242d"/>
      <path id="Path_90501-2" data-name="Path 90501" d="M200.831,98.444a8.115,8.115,0,0,1-2.308,4.574,12.083,12.083,0,0,0-3.664.52c.54-1.092.322-1.9-.606-3.368A20.994,20.994,0,0,0,200.831,98.444Z" transform="translate(209.862 94.2)" fill="#fb242d"/>
      <path id="Path_90502-2" data-name="Path 90502" d="M-30.16-12.617A10.236,10.236,0,0,1-34.75-8.09a15.177,15.177,0,0,0-4.578-.854c1.083-1.085,1.149-2.141.631-4.258C-36.171-12.45-33.618-12.507-30.16-12.617Z" transform="translate(1365.829 36.119)" fill="#fb242d"/>
      <path id="Path_90503-2" data-name="Path 90503" d="M261.1,159.43a15.2,15.2,0,0,0,5.79-1.435,4.886,4.886,0,0,1,.5,3.071,20.165,20.165,0,0,1-5.84,1.86C262.022,161.3,262,160.4,261.1,159.43Z" transform="translate(-195.961 121.866)" fill="#fb242d"/>
      <path id="Path_90504-2" data-name="Path 90504" d="M80.8,47.584A16.762,16.762,0,0,0,75,44.507a5.384,5.384,0,0,1,1.845-2.885,22.242,22.242,0,0,1,6.15,2.766C81.417,45.371,80.771,46.127,80.8,47.584Z" transform="translate(707.9 39.89)" fill="#fb242d"/>
      <path id="Path_90505-2" data-name="Path 90505" d="M-110.279,163.424a2.471,2.471,0,0,0-.746,2.4,8.061,8.061,0,0,1-3.05-2.016,2.247,2.247,0,0,1,.83-2.078A5.892,5.892,0,0,0-110.279,163.424Z" transform="translate(1566.55 123.463)" fill="#fb242d"/>
      <path id="Path_90506-2" data-name="Path 90506" d="M-30.451-23.7a4.013,4.013,0,0,0,4.064-.4,13.067,13.067,0,0,1-1.1,5.833c-1.267.7-2.1.649-3.633.068A9.571,9.571,0,0,0-30.451-23.7Z" transform="translate(1158.843 33.87)" fill="#fb242d"/>
      <path id="Path_90507-2" data-name="Path 90507" d="M-118.226,26.565a9.165,9.165,0,0,1-2.728-4.078,4.478,4.478,0,0,1,2.5-1.607,8.374,8.374,0,0,0,2.719,3.992A3.127,3.127,0,0,0-118.226,26.565Z" transform="translate(1579.491 37.99)" fill="#fb242d"/>
      <path id="Path_90508-2" data-name="Path 90508" d="M50.694,25.293a6.445,6.445,0,0,1,3.439-.249,3.146,3.146,0,0,1,.111,2.086,5.881,5.881,0,0,0-3.383.274A2.2,2.2,0,0,0,50.694,25.293Z" transform="translate(817.883 38.358)" fill="#fb242d"/>
      <path id="Path_90509-2" data-name="Path 90509" d="M207.625,67.8a7.741,7.741,0,0,0,.276,5.526c-3.628-.418-7.213-1.252-8.664-2.126a12.366,12.366,0,0,1,1.649-5.053C202.514,67.162,204.412,67.444,207.625,67.8Z" transform="translate(-56.774 -19.755)" fill="#fb242d"/>
      <path id="Path_90510-2" data-name="Path 90510" d="M260.614,41.676a7.684,7.684,0,0,0,1.213,5.355c-3.619.211-7.265.007-8.832-.6a12.254,12.254,0,0,1,.75-5.221C255.509,41.922,257.413,41.874,260.614,41.676Z" transform="translate(-181.423 39.852)" fill="#fb242d"/>
      <path id="Path_90511-2" data-name="Path 90511" d="M-113.3,72.242a2.508,2.508,0,0,0,1.476,1.481,20.183,20.183,0,0,1-4.331,3.888A4.79,4.79,0,0,1-118,75.82,11.509,11.509,0,0,0-113.3,72.242Z" transform="translate(1572.35 82.04)" fill="#fb242d"/>
      <path id="Path_90512-2" data-name="Path 90512" d="M102.5-7.019a2.552,2.552,0,0,0-1.928.909,20.562,20.562,0,0,1-2.25-5.493,4.878,4.878,0,0,1,2.353-1.158A11.739,11.739,0,0,0,102.5-7.019Z" transform="translate(617.456 34.908)" fill="#fb242d"/>
      <path id="Path_90513-2" data-name="Path 90513" d="M324.734,145.9a5.194,5.194,0,0,0,.891-2.909,1.406,1.406,0,0,0,1.133-.07,6.227,6.227,0,0,1-.705,3.318A2.6,2.6,0,0,1,324.734,145.9Z" transform="translate(-324.734 114.613)" fill="#fb242d"/>
      <path id="Path_90514-2" data-name="Path 90514" d="M-66.838-16.207a6.019,6.019,0,0,0,3.3,1.253,1.644,1.644,0,0,0-.005,1.319,7.224,7.224,0,0,1-3.79-1.07A3.015,3.015,0,0,1-66.838-16.207Z" transform="translate(1468.759 34.593)" fill="#fb242d"/>
      <path id="Path_90515-2" data-name="Path 90515" d="M-63.206,94.621c-1.735.449-3.286,1.613-5.577,5.319A9.175,9.175,0,0,1-71.7,94.961a16.327,16.327,0,0,1,6.408-5.2C-65.143,91.693-64.565,92.755-63.206,94.621Z" transform="translate(396.979 -43.01)" fill="#fb242d"/>
      <path id="Path_90516-2" data-name="Path 90516" d="M92.633,90.989c.859-.217,1.63-.79,2.772-2.618a4.542,4.542,0,0,1,1.431,2.47A8.09,8.09,0,0,1,93.654,93.4,4.15,4.15,0,0,0,92.633,90.989Z" transform="translate(641.254 89.508)" fill="#fb242d"/>
      <path id="Path_90517-2" data-name="Path 90517" d="M225.305,172.8a7.7,7.7,0,0,1-.653,4.9,8.252,8.252,0,0,0-5.051-1.2,11.694,11.694,0,0,1-.142-4.756A15.486,15.486,0,0,0,225.305,172.8Z" transform="translate(105.793 128.441)" fill="#fb242d"/>
      <path id="Path_90518-2" data-name="Path 90518" d="M-8.965-.826a6.023,6.023,0,0,1-1.958,3.345,6.475,6.475,0,0,0-3.286-2.4,9.157,9.157,0,0,1,1.34-3.479A12.146,12.146,0,0,0-8.965-.826Z" transform="translate(1087.236 35.77)" fill="#fb242d"/>
      <path id="Path_90519-2" data-name="Path 90519" d="M-81.3,3.354c-.49-.177-.722-.516-1.081-1.085A13.65,13.65,0,0,0-78.8-1.1a2.23,2.23,0,0,0,1.167.865A12.1,12.1,0,0,1-81.3,3.354Z" transform="translate(1499.279 35.977)" fill="#fb242d"/>
      <path id="Path_90520-2" data-name="Path 90520" d="M-122.034,258.121c.575.264.819.7,1.2,1.425a16.54,16.54,0,0,0-4.683,3.7,2.707,2.707,0,0,0-1.321-1.167A14.7,14.7,0,0,1-122.034,258.121Z" transform="translate(1591.023 168.462)" fill="#fb242d"/>
      <path id="Path_90521-2" data-name="Path 90521" d="M-129.049,207.491a5.452,5.452,0,0,1-.771-4.555,33.656,33.656,0,0,0,7.369-2.945,5.007,5.007,0,0,0,.877,2.4A29.994,29.994,0,0,0-129.049,207.491Z" transform="translate(306.189 -62.711)" fill="#fb242d"/>
      <path id="Path_90522-2" data-name="Path 90522" d="M105.191-25.166a3.358,3.358,0,0,1-.969-2.679,20.714,20.714,0,0,0,4.146-2.6,3.1,3.1,0,0,0,.8,1.359A18.455,18.455,0,0,0,105.191-25.166Z" transform="translate(591.226 33.289)" fill="#fb242d"/>
      <path id="Path_90523-2" data-name="Path 90523" d="M170.8,96.685c.922.91,1.125,2.007,1.013,3.794a15.541,15.541,0,0,0-6.887,1.724c.012-1.308-.4-2.188-1.534-3.768A18.6,18.6,0,0,1,170.8,96.685Z" transform="translate(335.173 93.429)" fill="#00d6ad"/>
      <path id="Path_90524-2" data-name="Path 90524" d="M-12.39,93.214c.426,1.16.155,2.19-.668,3.685A14.823,14.823,0,0,0-19.7,95.588c.541-1.123.546-2.05.208-3.875A17.75,17.75,0,0,1-12.39,93.214Z" transform="translate(1106.842 91.079)" fill="#00d6ad"/>
      <path id="Path_90525-2" data-name="Path 90525" d="M173.9,74.035a2.344,2.344,0,0,1,.462,2.293,3.551,3.551,0,0,1-2.268.456,5.315,5.315,0,0,0-1.868-2.277A9.244,9.244,0,0,0,173.9,74.035Z" transform="translate(316.094 82.637)" fill="#00d6ad"/>
      <path id="Path_90526-2" data-name="Path 90526" d="M173.729,24.333a3.066,3.066,0,0,1,1.34-2.754,4.638,4.638,0,0,1,2.724,1.325,6.965,6.965,0,0,0,.138,3.854A12.083,12.083,0,0,0,173.729,24.333Z" transform="translate(301.537 38.054)" fill="#00d6ad"/>
      <path id="Path_90527-2" data-name="Path 90527" d="M112.536,32.267a24.07,24.07,0,0,1,8.141,2.069,9.641,9.641,0,0,1-3.273,3.921c-1.43-1.068-2.807-1.251-4.966-1.351A5.407,5.407,0,0,0,112.536,32.267Z" transform="translate(549.968 39.033)" fill="#00d6ad"/>
      <path id="Path_90528-2" data-name="Path 90528" d="M-140.075,215.777a11.3,11.3,0,0,1,.214,3.953,4.538,4.538,0,0,1-2.224-.92,3.779,3.779,0,0,0-.091-2.423A2.549,2.549,0,0,0-140.075,215.777Z" transform="translate(1626.7 148.52)" fill="#00d6ad"/>
      <path id="Path_90529-2" data-name="Path 90529" d="M166.308-.655a6.716,6.716,0,0,0,1.515-2.41A20.914,20.914,0,0,0,171.984.774a3.781,3.781,0,0,1-1.2,2.471A24.763,24.763,0,0,1,166.308-.655Z" transform="translate(329.263 35.797)" fill="#00d6ad"/>
      <path id="Path_90530-2" data-name="Path 90530" d="M-80.957,220.077a9.876,9.876,0,0,0-1.628,3.844,30.6,30.6,0,0,0-6.919-4.581,5.536,5.536,0,0,1,1.159-3.858A36.366,36.366,0,0,1-80.957,220.077Z" transform="translate(1510.389 149.349)" fill="#00d6ad"/>
      <path id="Path_90531-2" data-name="Path 90531" d="M-129.49,301.772a5.739,5.739,0,0,1,2.937,2.109,8.508,8.508,0,0,0-.038,2.612c-.7-.5-1.292-.433-2.415.055A14.818,14.818,0,0,0-129.49,301.772Z" transform="translate(1599.628 211.879)" fill="#00d6ad"/>
      <path id="Path_90532-2" data-name="Path 90532" d="M237.836,108.48a11.092,11.092,0,0,1-2.988-6.323,16.472,16.472,0,0,0,2.516-4.381c.722,1.5,1.779,1.944,4.134,2.173C239.821,102.267,238.963,104.9,237.836,108.48Z" transform="translate(-141.337 94.531)" fill="#00d6ad"/>
      <path id="Path_90533-2" data-name="Path 90533" d="M205.16,44.328a10.12,10.12,0,0,0,3.4-2.021,3.243,3.243,0,0,1,.907,1.852,13.383,13.383,0,0,1-3.35,2.3C206.105,45.339,205.919,44.771,205.16,44.328Z" transform="translate(169.61 39.952)" fill="#00d6ad"/>
      <path id="Path_90534-2" data-name="Path 90534" d="M247.784,78.484a8.589,8.589,0,0,0,1.577,2.961,2.75,2.75,0,0,1-1.606.694,11.349,11.349,0,0,1-1.815-2.929C246.889,79.245,247.379,79.109,247.784,78.484Z" transform="translate(-161.307 84.78)" fill="#00d6ad"/>
      <path id="Path_90535-2" data-name="Path 90535" d="M284.439,255.518a2.32,2.32,0,0,0,2.36.084,7.567,7.567,0,0,1-1.074,3.261,2.112,2.112,0,0,1-2.088-.239A5.525,5.525,0,0,0,284.439,255.518Z" transform="translate(-239.896 166.855)" fill="#00d6ad"/>
      <path id="Path_90536-2" data-name="Path 90536" d="M-124.035,328.992a2.388,2.388,0,0,0,1.657,1.778,7.785,7.785,0,0,1-3.155,1.592,2.172,2.172,0,0,1-1.346-1.693A5.7,5.7,0,0,0-124.035,328.992Z" transform="translate(1592.604 214.372)" fill="#00d6ad"/>
      <path id="Path_90537-2" data-name="Path 90537" d="M-3.686,33.109a11.849,11.849,0,0,1-.608,6.315,5.794,5.794,0,0,1-3.819-.439,10.842,10.842,0,0,0,.546-6.223C-6.043,33.506-5.038,33.714-3.686,33.109Z" transform="translate(1062.718 39.078)" fill="#00d6ad"/>
      <path id="Path_90538-2" data-name="Path 90538" d="M181.044,57.2a6.686,6.686,0,0,1-.322,3.57,3.276,3.276,0,0,1-2.158-.235,6.12,6.12,0,0,0,.286-3.517A2.284,2.284,0,0,0,181.044,57.2Z" transform="translate(285.067 74.835)" fill="#00d6ad"/>
      <path id="Path_90539-2" data-name="Path 90539" d="M281.617,42.988a6.652,6.652,0,0,0,3.586-3.129c1.65,2.674,2.994,5.54,3.175,6.986a10.615,10.615,0,0,1-4.292,1.575C283.9,46.781,283.085,45.349,281.617,42.988Z" transform="translate(-239.27 67.175)" fill="#00d6ad"/>
      <path id="Path_90540-2" data-name="Path 90540" d="M161.932,38.454a5.662,5.662,0,0,0-3.519-1.994,19.694,19.694,0,0,1,4.709-4.515,9.071,9.071,0,0,1,2.472,3C164.331,35.552,163.413,36.613,161.932,38.454Z" transform="translate(358.992 39.003)" fill="#00d6ad"/>
      <path id="Path_90541-2" data-name="Path 90541" d="M283.511,212.614a1.527,1.527,0,0,0-.97.823,12.249,12.249,0,0,1-2.146-2.815,2.908,2.908,0,0,1,1.176-1.032A7,7,0,0,0,283.511,212.614Z" transform="translate(-233.067 145.626)" fill="#00d6ad"/>
      <path id="Path_90542-2" data-name="Path 90542" d="M292.991,24.058a2.109,2.109,0,0,0-1.58-.77,16.946,16.946,0,0,1,2.37-4.278,4.021,4.021,0,0,1,1.957.914A9.68,9.68,0,0,0,292.991,24.058Z" transform="translate(-257.32 37.819)" fill="#00d6ad"/>
      <path id="Path_90543-2" data-name="Path 90543" d="M174.937-30.25a5.94,5.94,0,0,0-.337,3.466,1.622,1.622,0,0,0-1.256.335,7.128,7.128,0,0,1,.037-3.883A2.976,2.976,0,0,1,174.937-30.25Z" transform="translate(309.618 33.293)" fill="#00d6ad"/>
      <path id="Path_90544-2" data-name="Path 90544" d="M70.793-2.679c-2.114-1.587-3.3-2.277-5.519-2.576a2.832,2.832,0,0,0,.178-2.266A12.442,12.442,0,0,1,71.833-5.2,5.207,5.207,0,0,1,70.793-2.679Z" transform="translate(751.478 35.388)" fill="#00d6ad"/>
      <path id="Path_90545-2" data-name="Path 90545" d="M-116.279,354.677c.606-.9.841-2.057.386-4.662a5.57,5.57,0,0,1,3.33,1.083,9.919,9.919,0,0,1-.812,4.942A5.075,5.075,0,0,0-116.279,354.677Z" transform="translate(292.453 -328.943)" fill="#00d6ad"/>
      <path id="Path_90546-2" data-name="Path 90546" d="M-57.206,6.065c.776-.293,1.432-.9,2.3-2.725a4.251,4.251,0,0,1,1.59,2.146A7.57,7.57,0,0,1-56,8.2,3.881,3.881,0,0,0-57.206,6.065Z" transform="translate(1447.484 36.383)" fill="#00d6ad"/>
      <path id="Path_90547-2" data-name="Path 90547" d="M292.558,158.451a6.69,6.69,0,0,1-2.349,3.6,7.181,7.181,0,0,0-3.513-2.832,10.164,10.164,0,0,1,1.67-3.783A13.448,13.448,0,0,0,292.558,158.451Z" transform="translate(-248.993 120.952)" fill="#00d6ad"/>
      <path id="Path_90548-2" data-name="Path 90548" d="M-82.276,171.409a6.82,6.82,0,0,1-3.423-2.743,7.333,7.333,0,0,0,3.225-3.286,10.379,10.379,0,0,1,3.675,2.074A13.73,13.73,0,0,0-82.276,171.409Z" transform="translate(1504.073 125.488)" fill="#00d6ad"/>
      <path id="Path_90549-2" data-name="Path 90549" d="M-81.724,192.361a4.129,4.129,0,0,1,2.621-1.267,25.894,25.894,0,0,0,3.814,8.522,4.23,4.23,0,0,0-2.276,1.558A23.019,23.019,0,0,1-81.724,192.361Z" transform="translate(1496.224 138.26)" fill="#00d6ad"/>
      <path id="Path_90550-2" data-name="Path 90550" d="M-86.39,260.233c-.671-.306-.958-.812-1.4-1.655a19.257,19.257,0,0,0,5.439-4.329A3.149,3.149,0,0,0-80.8,255.6,17.132,17.132,0,0,1-86.39,260.233Z" transform="translate(1508.36 166.876)" fill="#00d6ad"/>
      <path id="Path_90551-2" data-name="Path 90551" d="M122.281,157.952a3.028,3.028,0,0,1-.354-2.541,18.659,18.659,0,0,0,4.137-1.516,2.781,2.781,0,0,0,.448,1.346A16.671,16.671,0,0,0,122.281,157.952Z" transform="translate(518.019 119.82)" fill="#00d6ad"/>
      <path id="Path_90552-2" data-name="Path 90552" d="M213.726,151.036a5.479,5.479,0,0,1-4.61-.532,33.8,33.8,0,0,0-.78-7.934,5.029,5.029,0,0,0,2.56-.175A30.146,30.146,0,0,0,213.726,151.036Z" transform="translate(153.648 115.221)" fill="#00d6ad"/>
      <path id="Path_90553-2" data-name="Path 90553" d="M59.939-23.268c-1.04-1.092-1.238-2.374-1.045-4.445a18.049,18.049,0,0,0,8.061-1.764c-.059,1.518.386,2.557,1.652,4.434A21.692,21.692,0,0,1,59.939-23.268Z" transform="translate(772.608 33.377)" fill="#feb937"/>
      <path id="Path_90554-2" data-name="Path 90554" d="M319.628,104.636a3.272,3.272,0,0,1-2.925-.2,11.606,11.606,0,0,0,.437-5.282,4.364,4.364,0,0,0,3.034-.178A13.914,13.914,0,0,1,319.628,104.636Z" transform="translate(-309.455 94.543)" fill="#feb937"/>
      <path id="Path_90555-2" data-name="Path 90555" d="M179.088,155.775A2.889,2.889,0,0,1,176.7,157.4a4.371,4.371,0,0,1-1.607-2.361,6.556,6.556,0,0,0,1.7-3.217A11.406,11.406,0,0,0,179.088,155.775Z" transform="translate(296.299 119.099)" fill="#feb937"/>
      <path id="Path_90556-2" data-name="Path 90556" d="M319.974,140.622a4.39,4.39,0,0,1-4.193,1.284,6.657,6.657,0,0,1-1.271-4.147c1.707-.879,2.583-1.945,3.9-3.9A17.333,17.333,0,0,0,319.974,140.622Z" transform="translate(-306.751 111.107)" fill="#feb937"/>
      <path id="Path_90557-2" data-name="Path 90557" d="M194,22.625a17.333,17.333,0,0,1,5.514-2.5,6.977,6.977,0,0,1-.079,3.68,5.776,5.776,0,0,0-3.4,1.473A3.894,3.894,0,0,0,194,22.625Z" transform="translate(213.008 37.921)" fill="#feb937"/>
      <path id="Path_90558-2" data-name="Path 90558" d="M-117.623,280.718a11.584,11.584,0,0,1,3.5,2.037,4.652,4.652,0,0,1-2.035,1.382,3.866,3.866,0,0,0-2.121-1.284A2.6,2.6,0,0,0-117.623,280.718Z" transform="translate(1574.97 178.512)" fill="#feb937"/>
      <path id="Path_90559-2" data-name="Path 90559" d="M-137.735,183.286a5.957,5.957,0,0,0,1.778-1.792,18.526,18.526,0,0,0,2.857,4.129,3.349,3.349,0,0,1-1.52,1.907A22.021,22.021,0,0,1-137.735,183.286Z" transform="translate(1615.176 132.996)" fill="#feb937"/>
      <path id="Path_90560-2" data-name="Path 90560" d="M-96.931,334.6a8.224,8.224,0,0,0-2.954,1.85,25.555,25.555,0,0,0-2.541-6.446,4.627,4.627,0,0,1,2.639-2.085A30.369,30.369,0,0,1-96.931,334.6Z" transform="translate(1540.464 214.274)" fill="#feb937"/>
      <path id="Path_90561-2" data-name="Path 90561" d="M-82.917,183.441a5.819,5.819,0,0,1,3.657.293,8.66,8.66,0,0,0,1.336,2.29c-.87-.063-1.349.3-2.07,1.312A15.042,15.042,0,0,0-82.917,183.441Z" transform="translate(1500.161 133.46)" fill="#feb937"/>
      <path id="Path_90562-2" data-name="Path 90562" d="M25.982-20.926a10.974,10.974,0,0,1,6.352-2.738,16.312,16.312,0,0,0,4.246,2.636c-1.505.663-1.983,1.692-2.29,4.012C32.057-18.752,29.483-19.689,25.982-20.926Z" transform="translate(171.489 221.246)" fill="#feb937"/>
      <path id="Path_90563-2" data-name="Path 90563" d="M-64.069,127.7a7.714,7.714,0,0,0-2.086-2.188,2.469,2.469,0,0,1,1.226-.992,10.234,10.234,0,0,1,2.285,2.1C-63.476,126.822-63.869,127.058-64.069,127.7Z" transform="translate(1466.584 106.067)" fill="#feb937"/>
      <path id="Path_90564-2" data-name="Path 90564" d="M300.77,200.873a6.844,6.844,0,0,0,2.584.724,2.186,2.186,0,0,1-.486,1.313,9.056,9.056,0,0,1-2.7-.569C300.716,201.812,300.908,201.454,300.77,200.873Z" transform="translate(-274.499 141.221)" fill="#feb937"/>
      <path id="Path_90565-2" data-name="Path 90565" d="M-14.875,156.515a4.907,4.907,0,0,0-.761-4.936c2.467-.313,4.161.06,7.2.94.944,1.5.935,2.515.331,4.432C-10.718,156.221-12.641,155.881-14.875,156.515Z" transform="translate(1089.078 118.92)" fill="#feb937"/>
      <path id="Path_90566-2" data-name="Path 90566" d="M-112.6,141.872a3.927,3.927,0,0,0-.607,3.949,12.773,12.773,0,0,1-5.268-2.45,3.571,3.571,0,0,1,.814-3.463A9.353,9.353,0,0,0-112.6,141.872Z" transform="translate(1573.825 113.605)" fill="#feb937"/>
      <path id="Path_90567-2" data-name="Path 90567" d="M306.366,314.63A8.571,8.571,0,0,1,301.989,316a4.179,4.179,0,0,1-.784-2.668,7.821,7.821,0,0,0,4.3-1.39A2.923,2.923,0,0,0,306.366,314.63Z" transform="translate(-278.633 212.811)" fill="#feb937"/>
      <path id="Path_90568-2" data-name="Path 90568" d="M142.58-24.5a10.37,10.37,0,0,1,4.744-2.881,5.052,5.052,0,0,1,1.692,2.907A9.474,9.474,0,0,0,144.37-21.6,3.538,3.538,0,0,0,142.58-24.5Z" transform="translate(427.147 33.569)" fill="#feb937"/>
      <path id="Path_90569-2" data-name="Path 90569" d="M245.239,251.371a4.064,4.064,0,0,0-2.7-1.076,14.177,14.177,0,0,1,2.91-3.672,6.5,6.5,0,0,1,2.052,1.893A8.235,8.235,0,0,0,245.239,251.371Z" transform="translate(-155.74 163.025)" fill="#feb937"/>
      <path id="Path_90570-2" data-name="Path 90570" d="M316.346,169.927a7.973,7.973,0,0,0-5.253-2.2c2-3.183,4.372-6.139,5.829-7.1a12.72,12.72,0,0,1,3.957,3.778C319.213,165.467,318.109,167.1,316.346,169.927Z" transform="translate(-303.946 123.827)" fill="#feb937"/>
      <path id="Path_90571-2" data-name="Path 90571" d="M63.2,116.035a3.394,3.394,0,0,0,1.022-2.638,27.256,27.256,0,0,1,7.188,3.221,6.484,6.484,0,0,1-1.2,3.266A15.57,15.57,0,0,0,63.2,116.035Z" transform="translate(757.104 101.33)" fill="#feb937"/>
      <path id="Path_90572-2" data-name="Path 90572" d="M236.191,155.9a3.349,3.349,0,0,0-2.236-1.679,26.929,26.929,0,0,1,4.992-5.977,6.419,6.419,0,0,1,2.786,2.019A15.388,15.388,0,0,0,236.191,155.9Z" transform="translate(-140.596 117.76)" fill="#feb937"/>
      <path id="Path_90573-2" data-name="Path 90573" d="M222.7,112.49a5.389,5.389,0,0,0-2.464,1.966,1.46,1.46,0,0,0-1.01-.6,6.455,6.455,0,0,1,2.543-2.426A2.7,2.7,0,0,1,222.7,112.49Z" transform="translate(112.758 99.982)" fill="#feb937"/>
      <path id="Path_90574-2" data-name="Path 90574" d="M-46.922,73.481a7.283,7.283,0,0,0-4.172-.827,1.978,1.978,0,0,0-.258-1.566,8.711,8.711,0,0,1,4.716.512A3.642,3.642,0,0,1-46.922,73.481Z" transform="translate(1324.775 81.187)" fill="#feb937"/>
      <path id="Path_90575-2" data-name="Path 90575" d="M19.86,112.316c1.645.52,3.5.361,7.265-1.491a8.835,8.835,0,0,1-.164,5.55,15.693,15.693,0,0,1-7.878.967A8.065,8.065,0,0,0,19.86,112.316Z" transform="translate(942.326 100.153)" fill="#feb937"/>
      <path id="Path_90576-2" data-name="Path 90576" d="M272.83,247.371c-.32,1.264-.121,2.66,1.44,5.419a6.68,6.68,0,0,1-4.2.117A11.887,11.887,0,0,1,269,247,6.093,6.093,0,0,0,272.83,247.371Z" transform="translate(-211.356 163.548)" fill="#feb937"/>
      <path id="Path_90577-2" data-name="Path 90577" d="M300.423,281.744a8.009,8.009,0,0,1,1.8,4.829,8.608,8.608,0,0,0-5.233,1.374,12.2,12.2,0,0,1-2.459-4.305A16.131,16.131,0,0,0,300.423,281.744Z" transform="translate(-267.218 179.743)" fill="#feb937"/>
      <path id="Path_90578-2" data-name="Path 90578" d="M-96.937,118.4a7.782,7.782,0,0,1-5,.033,8.364,8.364,0,0,0,.493-5.228A11.826,11.826,0,0,1-96.7,112.4,15.623,15.623,0,0,0-96.937,118.4Z" transform="translate(225.565 -102.289)" fill="#feb937"/>
      <path id="Path_90579-2" data-name="Path 90579" d="M148.555,17.916a3.7,3.7,0,0,1,.98,2.424,23.29,23.29,0,0,0-7.867,2.912,3.8,3.8,0,0,0-1.261-2.133A20.718,20.718,0,0,1,148.555,17.916Z" transform="translate(430.389 37.718)" fill="#feb937"/>
      <path id="Path_90580-2" data-name="Path 90580" d="M302.21,149.189a3.852,3.852,0,0,1-2.3-1.457A24.251,24.251,0,0,0,304.8,140.5a3.962,3.962,0,0,0,2.361,1.04A21.584,21.584,0,0,1,302.21,149.189Z" transform="translate(-278.02 114.299)" fill="#feb937"/>
      <path id="Path_90581-2" data-name="Path 90581" d="M-128.961,116.644a4.192,4.192,0,0,1-2.824-2.162,25.915,25.915,0,0,0,2.606-5.525,3.87,3.87,0,0,0,1.752.891A23.069,23.069,0,0,0-128.961,116.644Z" transform="translate(487.622 115.492)" fill="#feb937"/>
      <path id="Path_90582-2" data-name="Path 90582" d="M78.173,22.942a5.246,5.246,0,0,1,1.79,4.072,32.419,32.419,0,0,0-6.187,4.481,4.816,4.816,0,0,0-1.382-2.033A28.849,28.849,0,0,0,78.173,22.942Z" transform="translate(719.667 38.179)" fill="#feb937"/>
      <path id="Path_90583-2" data-name="Path 90583" d="M215.436,29.3a3.263,3.263,0,0,1-.377,2.9,11.593,11.593,0,0,0-5.234-.76,4.353,4.353,0,0,0,.01-3.032A13.881,13.881,0,0,1,215.436,29.3Z" transform="translate(-4.662 43.999)" fill="#fb242d"/>
      <path id="Path_90584-2" data-name="Path 90584" d="M-55.555,156.333c-.159.658-.595,1.045-1.422,1.475A8.118,8.118,0,0,0-59.6,155.2a3.051,3.051,0,0,0,1.271-1.7A9.729,9.729,0,0,1-55.555,156.333Z" transform="translate(1452.343 119.675)" fill="#fb242d"/>
      <path id="Path_90585-2" data-name="Path 90585" d="M63.735,68.2a3.107,3.107,0,0,1-2.6,1.694,4.688,4.688,0,0,1-1.677-2.575A7.065,7.065,0,0,0,61.349,63.9,12.274,12.274,0,0,0,63.735,68.2Z" transform="translate(780.099 78.209)" fill="#fb242d"/>
      <path id="Path_90586-2" data-name="Path 90586" d="M190.707,80.812a2.417,2.417,0,0,1-2.3-.732,3.652,3.652,0,0,1,.724-2.278,5.488,5.488,0,0,0,2.993-.546A9.562,9.562,0,0,0,190.707,80.812Z" transform="translate(241.198 84.205)" fill="#fb242d"/>
      <path id="Path_90587-2" data-name="Path 90587" d="M4.83-23.139a12.891,12.891,0,0,1-4.482.392,5.166,5.166,0,0,1,.963-2.561,4.308,4.308,0,0,0,2.75-.193A2.89,2.89,0,0,0,4.83-23.139Z" transform="translate(1027.404 33.741)" fill="#fb242d"/>
      <path id="Path_90588-2" data-name="Path 90588" d="M268.594,24.814a20.668,20.668,0,0,1,3.025,6.546,8.285,8.285,0,0,1-4.385-.061c-.062-1.529-.683-2.547-1.785-4.041A4.64,4.64,0,0,0,268.594,24.814Z" transform="translate(-204.861 38.35)" fill="#fb242d"/>
      <path id="Path_90589-2" data-name="Path 90589" d="M-91.51,297.144a10.708,10.708,0,0,0,.859,4.454,33.231,33.231,0,0,0-9.017.058,6.022,6.022,0,0,1-1.29-4.182A39.492,39.492,0,0,1-91.51,297.144Z" transform="translate(696.9 -127.977)" fill="#fb242d"/>
      <path id="Path_90590-2" data-name="Path 90590" d="M280.662,183.749a6.9,6.9,0,0,0-2.784.9,21.449,21.449,0,0,0-.755-5.77,3.881,3.881,0,0,1,2.576-1.159A25.447,25.447,0,0,1,280.662,183.749Z" transform="translate(-226.648 131.403)" fill="#fb242d"/>
      <path id="Path_90591-2" data-name="Path 90591" d="M-97.483,346.331a5.028,5.028,0,0,1-2.805,1.466,7.454,7.454,0,0,0-2.027-1.059c.665-.354.847-.841.908-1.909A12.991,12.991,0,0,0-97.483,346.331Z" transform="translate(1540.894 215.823)" fill="#fb242d"/>
      <path id="Path_90592-2" data-name="Path 90592" d="M310.406,48.951a9.58,9.58,0,0,1,2.462,5.513,14.236,14.236,0,0,0-2.252,3.734c-.595-1.306-1.5-1.711-3.527-1.953C308.578,54.277,309.367,52.019,310.406,48.951Z" transform="translate(-291.564 71.48)" fill="#fb242d"/>
      <path id="Path_90593-2" data-name="Path 90593" d="M-117.437,229.79a14.931,14.931,0,0,0,2.969-5.045,4.8,4.8,0,0,1,2.5,1.755,19.815,19.815,0,0,1-2.706,5.372C-115.488,230.429-116.137,229.824-117.437,229.79Z" transform="translate(1571.888 153.388)" fill="#fb242d"/>
      <path id="Path_90594-2" data-name="Path 90594" d="M127.218,97.132a15.988,15.988,0,0,0-5.156,3.58,5.138,5.138,0,0,1-1.644-2.832,21.2,21.2,0,0,1,5.045-4.016C125.607,95.636,125.968,96.515,127.218,97.132Z" transform="translate(519.43 92.263)" fill="#fb242d"/>
      <path id="Path_90595-2" data-name="Path 90595" d="M220.53,55.838a1.991,1.991,0,0,0-1.742,1.03,6.473,6.473,0,0,1-.732-2.85,1.809,1.809,0,0,1,1.618-.792A4.746,4.746,0,0,0,220.53,55.838Z" transform="translate(120.138 73.064)" fill="#fb242d"/>
      <path id="Path_90597-2" data-name="Path 90597" d="M-135.74,243.034a6.8,6.8,0,0,1-2.021,3.027,3.322,3.322,0,0,1-1.812-1.259,6.216,6.216,0,0,0,1.965-3A2.324,2.324,0,0,0-135.74,243.034Z" transform="translate(1619.823 160.67)" fill="#fb242d"/>
      <path id="Path_90598-2" data-name="Path 90598" d="M85.66-33.05a5.278,5.278,0,0,1,1.161,2.577,2.58,2.58,0,0,1-1.574.676,4.832,4.832,0,0,0-1.165-2.528A1.8,1.8,0,0,0,85.66-33.05Z" transform="translate(679.9 33.05)" fill="#fb242d"/>
      <path id="Path_90599-2" data-name="Path 90599" d="M290.751,363.535a4.517,4.517,0,0,0,2.94,1.345,15.771,15.771,0,0,1-3.437,3.922,7.214,7.214,0,0,1-2.177-2.218A9.156,9.156,0,0,0,290.751,363.535Z" transform="translate(-251.634 217.536)" fill="#fb242d"/>
      <path id="Path_90600-2" data-name="Path 90600" d="M-134.074,147.377a3.707,3.707,0,0,0,1,2.455,12.9,12.9,0,0,1-4.255.41,5.916,5.916,0,0,1-.053-2.546A7.514,7.514,0,0,0-134.074,147.377Z" transform="translate(1614.886 116.62)" fill="#fb242d"/>
      <path id="Path_90601-2" data-name="Path 90601" d="M-95.374-5.869a2.751,2.751,0,0,0-.927-2.1,22.244,22.244,0,0,1,5.979-2.274,5.255,5.255,0,0,1,1.183,2.566A12.651,12.651,0,0,0-95.374-5.869Z" transform="translate(1525.986 35.139)" fill="#fb242d"/>
      <path id="Path_90602-2" data-name="Path 90602" d="M240.279,6.776a1.836,1.836,0,0,0,.917-1.23,14.833,14.833,0,0,1,3.291,2.73,3.514,3.514,0,0,1-1.1,1.533A8.461,8.461,0,0,0,240.279,6.776Z" transform="translate(-150.254 36.585)" fill="#fb242d"/>
      <path id="Path_90603-2" data-name="Path 90603" d="M257.787,275.871a8.593,8.593,0,0,0,5.036-.133,2.338,2.338,0,0,0,.706,1.742,10.3,10.3,0,0,1-5.58.64A4.3,4.3,0,0,1,257.787,275.871Z" transform="translate(-188.322 175.958)" fill="#fb242d"/>
      <path id="Path_90604-2" data-name="Path 90604" d="M130.856.933C129.048-1.1,128-2.04,125.817-2.8a2.91,2.91,0,0,0,.644-2.249,12.812,12.812,0,0,1,5.96,3.65A5.362,5.362,0,0,1,130.856.933Z" transform="translate(497.169 35.615)" fill="#fb242d"/>
      <path id="Path_90605-2" data-name="Path 90605" d="M317.46,207.544c.175.8.68,1.53,2.333,2.644a4.2,4.2,0,0,1-2.327,1.245,7.488,7.488,0,0,1-2.263-3.022A3.829,3.829,0,0,0,317.46,207.544Z" transform="translate(-307.345 144.686)" fill="#fb242d"/>
      <path id="Path_90606-2" data-name="Path 90606" d="M-122.986,174.483c-1.14-.5-2.486-.529-5.326.511a6.373,6.373,0,0,1,.544-3.969,11.338,11.338,0,0,1,5.726-.087A5.814,5.814,0,0,0-122.986,174.483Z" transform="translate(1593.957 127.635)" fill="#fb242d"/>
      <path id="Path_90607-2" data-name="Path 90607" d="M170.332,64.877a5.255,5.255,0,0,1,3.337-.534,5.651,5.651,0,0,0,.205,3.541,8.008,8.008,0,0,1-3.085,1.024A10.591,10.591,0,0,0,170.332,64.877Z" transform="translate(317.276 78.274)" fill="#fb242d"/>
      <path id="Path_90608-2" data-name="Path 90608" d="M196.979-23.656a3.7,3.7,0,0,1-.661,2.286A3.98,3.98,0,0,0,194-22.3a5.642,5.642,0,0,1,.274-2.273A7.423,7.423,0,0,0,196.979-23.656Z" transform="translate(219.575 33.826)" fill="#fb242d"/>
      <path id="Path_90609-2" data-name="Path 90609" d="M28.836,64.806c-.386,1.045-1.116,1.532-2.335,2.289a29.085,29.085,0,0,0-7.119-7.7,4.755,4.755,0,0,0,1.863-2.475A25.861,25.861,0,0,1,28.836,64.806Z" transform="translate(939.317 75.288)" fill="#fb242d"/>
      <path id="Path_90610-2" data-name="Path 90610" d="M241.517.718a2.767,2.767,0,0,1,.78,1.792,17.377,17.377,0,0,0-5.82,2.333,2.838,2.838,0,0,0-.985-1.569A15.465,15.465,0,0,1,241.517.718Z" transform="translate(-142.838 36.143)" fill="#fb242d"/>
      <path id="Path_90611-2" data-name="Path 90611" d="M21.742,12.919a6.324,6.324,0,0,1,5.248-1.084,38.994,38.994,0,0,0,3.722,8.419A5.8,5.8,0,0,0,27.97,21.37,34.783,34.783,0,0,0,21.742,12.919Z" transform="translate(916.565 48.877)" fill="#fb242d"/>
      <path id="Path_90612-2" data-name="Path 90612" d="M-45.84,44.333a3.609,3.609,0,0,1-1.479-2.676A22.22,22.22,0,0,0-43.364,38.2a3.316,3.316,0,0,0,1.073,1.306A19.858,19.858,0,0,0-45.84,44.333Z" transform="translate(1226.381 39.577)" fill="#fb242d"/>
      <path id="Path_90613-2" data-name="Path 90613" d="M-63.007,300.784a2.485,2.485,0,0,1,.783,2.088,8.839,8.839,0,0,0-3.8,1.357,3.318,3.318,0,0,0-1.075-2.046A10.564,10.564,0,0,1-63.007,300.784Z" transform="translate(1467.191 211.788)" fill="#00d6ad"/>
      <path id="Path_90614-2" data-name="Path 90614" d="M300.181,96.668c-.228,1.475-1.113,2.4-2.852,3.5a17.887,17.887,0,0,0-6.249-5.251c1.226-.87,1.77-1.846,2.477-3.97A21.467,21.467,0,0,1,300.181,96.668Z" transform="translate(-261.401 91.16)" fill="#00d6ad"/>
      <path id="Path_90615-2" data-name="Path 90615" d="M-89.882,117.686a2.81,2.81,0,0,1-1.342,2.47,4.257,4.257,0,0,1-2.444-1.326,6.4,6.4,0,0,0,.032-3.54A11.077,11.077,0,0,0-89.882,117.686Z" transform="translate(1523.855 102.005)" fill="#00d6ad"/>
      <path id="Path_90616-2" data-name="Path 90616" d="M73.242,10.53a2.708,2.708,0,0,1-.284,2.694,4.105,4.105,0,0,1-2.665-.279,6.156,6.156,0,0,0-1.277-3.163A10.678,10.678,0,0,0,73.242,10.53Z" transform="translate(739.703 36.973)" fill="#00d6ad"/>
      <path id="Path_90617-2" data-name="Path 90617" d="M313.4,187.414a13.013,13.013,0,0,1-1.279-4.355,5.215,5.215,0,0,1,2.724.443,4.338,4.338,0,0,0,.739,2.681A2.917,2.917,0,0,0,313.4,187.414Z" transform="translate(-299.775 133.407)" fill="#00d6ad"/>
      <path id="Path_90618-2" data-name="Path 90618" d="M213.266,124.54a25.042,25.042,0,0,1-8.365,2.547,10.064,10.064,0,0,1,.8-5.256c1.848.18,3.174-.4,5.15-1.474A5.627,5.627,0,0,0,213.266,124.54Z" transform="translate(160.837 104.607)" fill="#00d6ad"/>
      <path id="Path_90619-2" data-name="Path 90619" d="M22.395,149.319a11.562,11.562,0,0,0-2.38,4.294,36.086,36.086,0,0,0-7.53-6.218,6.516,6.516,0,0,1,1.835-4.371A42.8,42.8,0,0,1,22.395,149.319Z" transform="translate(967.608 115.776)" fill="#00d6ad"/>
      <path id="Path_90620-2" data-name="Path 90620" d="M-21.16,58.451a6.325,6.325,0,0,0-.972-2.5,19.722,19.722,0,0,0,5.233-.99,3.557,3.557,0,0,1,1.193,2.293A23.411,23.411,0,0,1-21.16,58.451Z" transform="translate(1118.688 73.859)" fill="#00d6ad"/>
      <path id="Path_90621-2" data-name="Path 90621" d="M-20.231,126.6a7.89,7.89,0,0,1,4.7-1.643,11.822,11.822,0,0,0,2.913,2.107c-1.113.4-1.509,1.113-1.846,2.762A20.45,20.45,0,0,0-20.231,126.6Z" transform="translate(1108.92 106.497)" fill="#00d6ad"/>
      <path id="Path_90622-2" data-name="Path 90622" d="M160.51,130.337a8.347,8.347,0,0,1,4.683-2.4,12.483,12.483,0,0,0,3.357,1.786c-1.109.579-1.42,1.385-1.536,3.161A21.608,21.608,0,0,0,160.51,130.337Z" transform="translate(348.236 107.895)" fill="#00d6ad"/>
      <path id="Path_90623-2" data-name="Path 90623" d="M-72.877,36.2a12.8,12.8,0,0,0,4.925.9,4.085,4.085,0,0,1-.677,2.523,16.92,16.92,0,0,1-5.112-.6C-72.819,37.957-72.522,37.258-72.877,36.2Z" transform="translate(219.079 124.317)" fill="#00d6ad"/>
      <path id="Path_90624-2" data-name="Path 90624" d="M64.259,98.037a7.016,7.016,0,0,0-1.2-2.475,2.256,2.256,0,0,1,1.336-.521,9.313,9.313,0,0,1,1.4,2.456C65.016,97.441,64.61,97.537,64.259,98.037Z" transform="translate(767.856 92.387)" fill="#00d6ad"/>
      <path id="Path_90625-2" data-name="Path 90625" d="M217.594-4.425a2,2,0,0,0-.5-1.969,6.486,6.486,0,0,1,2.954.1,1.812,1.812,0,0,1,.309,1.781A4.765,4.765,0,0,0,217.594-4.425Z" transform="translate(121.985 35.48)" fill="#00d6ad"/>
      <path id="Path_90626-2" data-name="Path 90626" d="M-98.591,205.6a2.8,2.8,0,0,0-.975,2.682,9.112,9.112,0,0,1-3.351-2.45,2.552,2.552,0,0,1,1.051-2.312A6.7,6.7,0,0,0-98.591,205.6Z" transform="translate(1542.669 142.995)" fill="#00d6ad"/>
      <path id="Path_90627-2" data-name="Path 90627" d="M20.279,79.792a9.994,9.994,0,0,1,4.459,2.96,4.882,4.882,0,0,1-1.844,2.669,9.144,9.144,0,0,0-4.416-2.877A3.417,3.417,0,0,0,20.279,79.792Z" transform="translate(948.467 85.578)" fill="#00d6ad"/>
      <path id="Path_90628-2" data-name="Path 90628" d="M-96.622,201.555a5.371,5.371,0,0,1,1.206-2.615,2.63,2.63,0,0,1,1.571.761,4.913,4.913,0,0,0-1.166,2.585A1.837,1.837,0,0,0-96.622,201.555Z" transform="translate(1531.042 140.586)" fill="#00d6ad"/>
      <path id="Path_90629-2" data-name="Path 90629" d="M263.883,291.314a7.527,7.527,0,0,0-.245-5.374c3.527.422,7.008,1.249,8.415,2.107a12.031,12.031,0,0,1-1.626,4.906C268.848,291.958,267,291.675,263.883,291.314Z" transform="translate(-203.319 181.922)" fill="#00d6ad"/>
      <path id="Path_90630-2" data-name="Path 90630" d="M303.068,230.886a3.919,3.919,0,0,0,2.057-1.9,13.625,13.625,0,0,1,1.988,4.056,6.28,6.28,0,0,1-2.5,1A7.907,7.907,0,0,0,303.068,230.886Z" transform="translate(-281.419 154.897)" fill="#00d6ad"/>
      <path id="Path_90631-2" data-name="Path 90631" d="M311.852,260.814a3.708,3.708,0,0,0,3.049.512,29.9,29.9,0,0,1-1.864,8.4,7.1,7.1,0,0,1-3.761-.567A17.057,17.057,0,0,0,311.852,260.814Z" transform="translate(-295.985 170.693)" fill="#00d6ad"/>
      <path id="Path_90632-2" data-name="Path 90632" d="M-99.274,218.308a2.87,2.87,0,0,0,2.083,1.178,23.133,23.133,0,0,1-3.578,5.623,5.482,5.482,0,0,1-2.587-1.407A13.2,13.2,0,0,0-99.274,218.308Z" transform="translate(1541.741 150.312)" fill="#00d6ad"/>
      <path id="Path_90633-2" data-name="Path 90633" d="M268.172-9.232a7.1,7.1,0,0,0-3.979,1.221,1.926,1.926,0,0,0-.948-1.23,8.5,8.5,0,0,1,4.3-1.747A3.544,3.544,0,0,1,268.172-9.232Z" transform="translate(-199.01 35.071)" fill="#00d6ad"/>
      <path id="Path_90634-2" data-name="Path 90634" d="M256.4,229.335a5.653,5.653,0,0,0,3.18-.93,1.54,1.54,0,0,0,.741.99,6.77,6.77,0,0,1-3.442,1.344A2.832,2.832,0,0,1,256.4,229.335Z" transform="translate(-183.692 154.018)" fill="#00d6ad"/>
      <path id="Path_90635-2" data-name="Path 90635" d="M255.025,114.2c-1.613-.455-3.417-.246-7.016,1.668a8.589,8.589,0,0,1-.009-5.4,15.29,15.29,0,0,1,7.629-1.178A7.852,7.852,0,0,0,255.025,114.2Z" transform="translate(-169.356 99.398)" fill="#00d6ad"/>
      <path id="Path_90636-2" data-name="Path 90636" d="M299.485,343.11c1.015-.848,1.681-2.116,2.037-5.311a6.763,6.763,0,0,1,3.52,2.4,12.046,12.046,0,0,1-2.63,5.492A6.191,6.191,0,0,0,299.485,343.11Z" transform="translate(-275.438 215.179)" fill="#00d6ad"/>
      <path id="Path_90637-2" data-name="Path 90637" d="M-85.149,147.623a3.913,3.913,0,0,1-.309,2.5,4.21,4.21,0,0,0-2.579-.585,5.97,5.97,0,0,1-.095-2.423A7.879,7.879,0,0,0-85.149,147.623Z" transform="translate(1513.084 116.511)" fill="#00d6ad"/>
      <path id="Path_90638-2" data-name="Path 90638" d="M171.968,48.666a8.23,8.23,0,0,1-2.649-4.58,8.85,8.85,0,0,0,5.063-2.287,12.538,12.538,0,0,1,3.226,3.94A16.563,16.563,0,0,0,171.968,48.666Z" transform="translate(310.619 67.973)" fill="#00d6ad"/>
      <path id="Path_90639-2" data-name="Path 90639" d="M25.728,40.317a4.231,4.231,0,0,1,1.7-2.453,26.519,26.519,0,0,0,7.7,5.671,4.331,4.331,0,0,0-1.242,2.538A23.59,23.59,0,0,1,25.728,40.317Z" transform="translate(912.685 39.545)" fill="#00d6ad"/>
      <path id="Path_90640-2" data-name="Path 90640" d="M288.75,349.658c-1.167.039-1.929-.477-3.147-1.362,2.034-2.583,3.421-5.932,4.667-9.96a4.988,4.988,0,0,0,3.141.832A27.1,27.1,0,0,1,288.75,349.658Z" transform="translate(-248.653 215.228)" fill="#00d6ad"/>
      <path id="Path_90641-2" data-name="Path 90641" d="M91.959,70.366A5.981,5.981,0,0,1,89.389,66a36.928,36.928,0,0,0,6.4-5.9,5.489,5.489,0,0,0,1.836,2.116A32.887,32.887,0,0,0,91.959,70.366Z" transform="translate(646.919 76.788)" fill="#00d6ad"/>
      <path id="Path_90642-2" data-name="Path 90642" d="M271.8,312.68a3.92,3.92,0,0,1,3.213-.849,24.208,24.208,0,0,0,2.593,5.087,3.606,3.606,0,0,0-1.661.785A21.557,21.557,0,0,0,271.8,312.68Z" transform="translate(-217.778 212.795)" fill="#00d6ad"/>
    </g>
  </g>
</svg>
