<svg xmlns="http://www.w3.org/2000/svg" width="203.899" height="56.028" viewBox="0 0 203.899 56.028">
  <g id="Tefun-logo" transform="translate(-424.532 -286.202)">
    <path id="Path_106106" data-name="Path 106106" d="M6.411-40.8H32.763l3.879,3.914v3.914H23.466V-6.444H15.707V-32.97H2.532v-3.914ZM78.843-32.97H52.491v5.557H78.843v7.759H52.491v5.382H78.843v7.829H48.612l-3.879-3.914V-36.884L48.612-40.8H78.843v7.829Zm11.9-7.829h30.231v7.829H94.622v5.592h26.351v7.759H94.622V-6.444H86.863V-36.884Zm64.673,0h7.759v30.441l-3.879,3.914H132.943l-3.879-3.914V-40.8h7.759v26.526h18.593Zm42.131,0H205.3V-6.444h-7.759L178.953-28.881V-6.444h-7.759V-40.8h7.759L197.546-18.99Z" transform="translate(422 327)" fill="#0fa76f"/>
    <path id="Path_106107" data-name="Path 106107" d="M.28-9.687H3.2V-1.8h1.45V-9.687H7.589v-1.344H.28ZM13.295-4.535a3.846,3.846,0,0,0,.024-.436,3.372,3.372,0,0,0-.813-2.358,2.88,2.88,0,0,0-2.252-.9A2.983,2.983,0,0,0,7.99-7.27a3.242,3.242,0,0,0-.908,2.311,3.2,3.2,0,0,0,.943,2.346,3.236,3.236,0,0,0,2.358.931A2.985,2.985,0,0,0,13.071-3.2l-1.014-.672a1.776,1.776,0,0,1-1.7.978,1.922,1.922,0,0,1-1.273-.46A1.552,1.552,0,0,1,8.52-4.535ZM10.253-7.022A1.514,1.514,0,0,1,11.892-5.6h-3.3A1.628,1.628,0,0,1,10.253-7.022Zm7.309,5.329a2.958,2.958,0,0,0,1.874-.566,2.925,2.925,0,0,0,1-1.332l-1.226-.542a1.623,1.623,0,0,1-1.627,1.167,1.755,1.755,0,0,1-1.332-.566,2.035,2.035,0,0,1-.531-1.45A1.949,1.949,0,0,1,16.254-6.4a1.8,1.8,0,0,1,1.32-.554A1.585,1.585,0,0,1,19.189-5.8l1.2-.542a2.834,2.834,0,0,0-2.829-1.886,3.1,3.1,0,0,0-2.334.967,3.208,3.208,0,0,0-.943,2.3,3.173,3.173,0,0,0,.943,2.334A3.163,3.163,0,0,0,17.563-1.694ZM27.394-1.8V-5.678a2.264,2.264,0,0,0-2.358-2.546,2.28,2.28,0,0,0-1.886.931v-4.1h-1.4v9.6h1.4V-5.3A1.434,1.434,0,0,1,24.6-6.893c.931,0,1.391.625,1.391,1.568V-1.8Zm7.415,0V-5.678a2.264,2.264,0,0,0-2.358-2.546,2.282,2.282,0,0,0-1.922.978V-8.1H29.163v6.3h1.4V-5.3a1.434,1.434,0,0,1,1.45-1.592c.931,0,1.391.625,1.391,1.568V-1.8Zm4.668-6.425a3.285,3.285,0,0,0-2.358.943,3.107,3.107,0,0,0-.978,2.322,3.1,3.1,0,0,0,.967,2.322,3.285,3.285,0,0,0,2.358.943,3.219,3.219,0,0,0,2.346-.943,3.148,3.148,0,0,0,.967-2.346,3.071,3.071,0,0,0-.967-2.311A3.239,3.239,0,0,0,39.478-8.225ZM38.1-6.374a1.765,1.765,0,0,1,1.368-.578,1.723,1.723,0,0,1,1.356.578,2.028,2.028,0,0,1,.531,1.415,2.073,2.073,0,0,1-.519,1.415,1.723,1.723,0,0,1-1.356.578,1.775,1.775,0,0,1-1.368-.589,2.078,2.078,0,0,1-.53-1.426A1.993,1.993,0,0,1,38.1-6.374ZM44.194-1.8h1.4v-9.6h-1.4Zm6.13-6.425a3.285,3.285,0,0,0-2.358.943,3.107,3.107,0,0,0-.978,2.322,3.1,3.1,0,0,0,.967,2.322,3.285,3.285,0,0,0,2.358.943,3.219,3.219,0,0,0,2.346-.943,3.148,3.148,0,0,0,.967-2.346,3.071,3.071,0,0,0-.967-2.311A3.239,3.239,0,0,0,50.324-8.225ZM48.945-6.374a1.765,1.765,0,0,1,1.368-.578,1.723,1.723,0,0,1,1.356.578A2.028,2.028,0,0,1,52.2-4.959a2.073,2.073,0,0,1-.519,1.415,1.723,1.723,0,0,1-1.356.578,1.775,1.775,0,0,1-1.368-.589,2.078,2.078,0,0,1-.53-1.426A1.993,1.993,0,0,1,48.945-6.374Zm8.724,4.621a2.826,2.826,0,0,0,1.108-.259,2,2,0,0,0,.955-.8v.99A1.779,1.779,0,0,1,57.822.1a2.113,2.113,0,0,1-1.981-1.332l-1.167.672a3.179,3.179,0,0,0,3.171,1.91A3.29,3.29,0,0,0,60.227.475a3.126,3.126,0,0,0,.908-2.358V-8.1H59.767v.955a2.071,2.071,0,0,0-.943-.79A2.768,2.768,0,0,0,57.715-8.2a2.864,2.864,0,0,0-2.263.99,3.342,3.342,0,0,0-.849,2.24,3.251,3.251,0,0,0,.861,2.263A2.857,2.857,0,0,0,57.668-1.753Zm2.087-3.242a2.028,2.028,0,0,1-.531,1.415,1.728,1.728,0,0,1-1.344.566,1.77,1.77,0,0,1-1.356-.566,2.073,2.073,0,0,1-.519-1.415,1.973,1.973,0,0,1,.519-1.391,1.753,1.753,0,0,1,1.356-.566,1.753,1.753,0,0,1,1.356.566A1.993,1.993,0,0,1,59.755-4.995Zm4.067-3.1h-1.6l2.806,5.588L63.292,1.3h1.5l4.327-9.4H67.595L65.779-3.969ZM78.735-5.678V-7.011H74.644V-9.687h4.433v-1.344H73.194V-1.8h1.45V-5.678ZM80.291-8.1v3.867A2.286,2.286,0,0,0,82.649-1.67a2.282,2.282,0,0,0,1.922-.978V-1.8h1.368V-8.1h-1.4v3.5A1.434,1.434,0,0,1,83.085-3c-.931,0-1.391-.625-1.391-1.568V-8.1ZM93.424-1.8V-5.678a2.264,2.264,0,0,0-2.358-2.546,2.281,2.281,0,0,0-1.922.978V-8.1H87.777v6.3h1.4V-5.3a1.434,1.434,0,0,1,1.45-1.592c.931,0,1.391.625,1.391,1.568V-1.8Zm1.332-3.159a3.3,3.3,0,0,0,.884,2.287,2.87,2.87,0,0,0,2.216.967,2.977,2.977,0,0,0,1.132-.259,1.974,1.974,0,0,0,.978-.813V-1.8h1.368v-9.6h-1.4v4.2A1.865,1.865,0,0,0,99-7.954a2.739,2.739,0,0,0-1.108-.259,2.889,2.889,0,0,0-2.275.99A3.334,3.334,0,0,0,94.756-4.959Zm3.313-1.992a1.74,1.74,0,0,1,1.356.578,2.028,2.028,0,0,1,.531,1.415,2.028,2.028,0,0,1-.531,1.415,1.753,1.753,0,0,1-1.356.566A1.8,1.8,0,0,1,96.7-3.545a2.073,2.073,0,0,1-.519-1.415A2.073,2.073,0,0,1,96.7-6.374,1.765,1.765,0,0,1,98.069-6.952Zm8.7.884c0,.354-.2.53-.589.53H105.4c-1.108,0-2.617.46-2.617,1.922v.071a1.674,1.674,0,0,0,.6,1.332,2.265,2.265,0,0,0,1.521.519,1.991,1.991,0,0,0,1.851-.967V-1.8h1.379V-5.808a2.77,2.77,0,0,0-.212-1.132,2.322,2.322,0,0,0-2.358-1.285,2.693,2.693,0,0,0-2.676,1.6l1.073.613a1.622,1.622,0,0,1,1.568-1C106.321-7.011,106.769-6.586,106.769-6.067Zm-.012,1.721a1.446,1.446,0,0,1-1.568,1.533.886.886,0,0,1-1-.861.719.719,0,0,1,.377-.637,1.634,1.634,0,0,1,.837-.236h1.356ZM115.434-1.8V-5.313A1.4,1.4,0,0,1,116.825-6.9c.931,0,1.344.6,1.344,1.556V-1.8h1.4V-5.69c0-1.509-.766-2.546-2.287-2.546A2.722,2.722,0,0,0,115.092-7.2a2.046,2.046,0,0,0-1.945-1.037,2.256,2.256,0,0,0-1.874.99V-8.1H109.9v6.3h1.4V-5.3a1.412,1.412,0,0,1,1.379-1.6c.931,0,1.356.625,1.356,1.568V-1.8Zm11.695-2.735a3.848,3.848,0,0,0,.024-.436,3.372,3.372,0,0,0-.813-2.358,2.88,2.88,0,0,0-2.252-.9,2.983,2.983,0,0,0-2.263.955,3.242,3.242,0,0,0-.908,2.311,3.2,3.2,0,0,0,.943,2.346,3.236,3.236,0,0,0,2.358.931A2.985,2.985,0,0,0,126.9-3.2l-1.014-.672a1.776,1.776,0,0,1-1.7.978,1.922,1.922,0,0,1-1.273-.46,1.552,1.552,0,0,1-.566-1.179Zm-3.042-2.487A1.514,1.514,0,0,1,125.726-5.6h-3.3A1.628,1.628,0,0,1,124.087-7.022ZM134.19-1.8V-5.678a2.264,2.264,0,0,0-2.358-2.546,2.281,2.281,0,0,0-1.922.978V-8.1h-1.368v6.3h1.4V-5.3a1.434,1.434,0,0,1,1.45-1.592c.931,0,1.391.625,1.391,1.568V-1.8Zm5.2-5.034V-8.1h-1.544V-10.04h-1.4V-8.1h-1.155v1.261h1.155v3.006a1.936,1.936,0,0,0,2.181,2.1,2.2,2.2,0,0,0,.755-.13V-3.049a2,2,0,0,1-.448.047c-.719,0-1.085-.295-1.085-1.049V-6.834Zm5.022.766c0,.354-.2.53-.589.53h-.778c-1.108,0-2.617.46-2.617,1.922v.071a1.674,1.674,0,0,0,.6,1.332,2.265,2.265,0,0,0,1.521.519A1.991,1.991,0,0,0,144.4-2.66V-1.8h1.379V-5.808a2.77,2.77,0,0,0-.212-1.132,2.322,2.322,0,0,0-2.358-1.285,2.693,2.693,0,0,0-2.676,1.6l1.073.613a1.622,1.622,0,0,1,1.568-1C143.963-7.011,144.411-6.586,144.411-6.067ZM144.4-4.346a1.446,1.446,0,0,1-1.568,1.533.886.886,0,0,1-1-.861.719.719,0,0,1,.377-.637,1.634,1.634,0,0,1,.837-.236H144.4ZM147.547-1.8h1.4v-9.6h-1.4Zm13.027-6.366a2.8,2.8,0,0,0-.813-2.028,3.215,3.215,0,0,0-2.417-.837h-3.266V-1.8h1.45V-5.219h1.639a3.537,3.537,0,0,0,2.5-.837A2.791,2.791,0,0,0,160.574-8.166Zm-3.36-1.521a1.909,1.909,0,0,1,1.45.46,1.522,1.522,0,0,1,.436,1.1c0,.849-.6,1.58-1.886,1.58h-1.686V-9.687Zm8.075,1.568a1.259,1.259,0,0,0-.342-.035,1.869,1.869,0,0,0-1.733,1.061v-1h-1.368v6.3h1.4V-4.995a1.515,1.515,0,0,1,1.639-1.721,2.027,2.027,0,0,1,.4.035Zm3.9-.106a3.285,3.285,0,0,0-2.358.943,3.107,3.107,0,0,0-.978,2.322,3.1,3.1,0,0,0,.967,2.322,3.285,3.285,0,0,0,2.358.943,3.219,3.219,0,0,0,2.346-.943,3.148,3.148,0,0,0,.967-2.346,3.071,3.071,0,0,0-.967-2.311A3.239,3.239,0,0,0,169.191-8.225Zm-1.379,1.851a1.765,1.765,0,0,1,1.368-.578,1.723,1.723,0,0,1,1.356.578,2.028,2.028,0,0,1,.53,1.415,2.073,2.073,0,0,1-.519,1.415,1.723,1.723,0,0,1-1.356.578,1.775,1.775,0,0,1-1.368-.589,2.078,2.078,0,0,1-.531-1.426A1.993,1.993,0,0,1,167.812-6.374Zm8.724,4.621a2.826,2.826,0,0,0,1.108-.259,2,2,0,0,0,.955-.8v.99A1.779,1.779,0,0,1,176.689.1a2.113,2.113,0,0,1-1.981-1.332l-1.167.672a3.179,3.179,0,0,0,3.171,1.91,3.29,3.29,0,0,0,2.381-.872A3.126,3.126,0,0,0,180-1.882V-8.1h-1.368v.955a2.071,2.071,0,0,0-.943-.79,2.768,2.768,0,0,0-1.108-.271,2.864,2.864,0,0,0-2.263.99,3.342,3.342,0,0,0-.849,2.24,3.251,3.251,0,0,0,.861,2.263A2.857,2.857,0,0,0,176.536-1.753Zm2.087-3.242a2.028,2.028,0,0,1-.531,1.415,1.728,1.728,0,0,1-1.344.566,1.771,1.771,0,0,1-1.356-.566,2.073,2.073,0,0,1-.519-1.415,1.973,1.973,0,0,1,.519-1.391,1.753,1.753,0,0,1,1.356-.566,1.753,1.753,0,0,1,1.356.566A1.994,1.994,0,0,1,178.622-4.995Zm6.661-3.124a1.259,1.259,0,0,0-.342-.035,1.869,1.869,0,0,0-1.733,1.061v-1h-1.368v6.3h1.4V-4.995a1.515,1.515,0,0,1,1.639-1.721,2.026,2.026,0,0,1,.4.035ZM189.9-6.067c0,.354-.2.53-.589.53h-.778c-1.108,0-2.617.46-2.617,1.922v.071a1.674,1.674,0,0,0,.6,1.332,2.265,2.265,0,0,0,1.521.519,1.991,1.991,0,0,0,1.851-.967V-1.8h1.379V-5.808a2.77,2.77,0,0,0-.212-1.132A2.322,2.322,0,0,0,188.7-8.225a2.693,2.693,0,0,0-2.676,1.6l1.073.613a1.622,1.622,0,0,1,1.568-1C189.456-7.011,189.9-6.586,189.9-6.067Zm-.012,1.721a1.446,1.446,0,0,1-1.568,1.533.886.886,0,0,1-1-.861.719.719,0,0,1,.377-.637,1.634,1.634,0,0,1,.837-.236h1.356ZM198.569-1.8V-5.313A1.4,1.4,0,0,1,199.96-6.9c.931,0,1.344.6,1.344,1.556V-1.8h1.4V-5.69c0-1.509-.766-2.546-2.287-2.546A2.722,2.722,0,0,0,198.227-7.2a2.046,2.046,0,0,0-1.945-1.037,2.256,2.256,0,0,0-1.874.99V-8.1H193.04v6.3h1.4V-5.3a1.412,1.412,0,0,1,1.379-1.6c.931,0,1.356.625,1.356,1.568V-1.8Z" transform="translate(425.724 340.882)" fill="#567a7b"/>
  </g>
</svg>
