<svg xmlns="http://www.w3.org/2000/svg" width="21" height="21" viewBox="0 0 21 21">
  <path id="max" d="M-1995.761-2401.419v6.209a.875.875,0,0,0,.875.875h0a.875.875,0,0,0,.875-.875h0v-4.459a.791.791,0,0,1,.79-.791h4.46a.875.875,0,0,0,.875-.875h0a.875.875,0,0,0-.875-.875h-6.21a.791.791,0,0,0-.79.791Zm13.125.084h0a.875.875,0,0,0,.875.875h4.459a.79.79,0,0,1,.79.791h0v4.459a.875.875,0,0,0,.875.875h0a.874.874,0,0,0,.875-.875h0v-6.209a.79.79,0,0,0-.79-.791h-6.21A.876.876,0,0,0-1982.636-2401.335Zm-13.125,13.125v6.21a.79.79,0,0,0,.79.79h6.21a.875.875,0,0,0,.875-.875h0a.875.875,0,0,0-.875-.875h-4.46a.79.79,0,0,1-.79-.79h0v-4.46a.875.875,0,0,0-.875-.875h0a.875.875,0,0,0-.875.875Zm19.25,0v4.46a.789.789,0,0,1-.79.79h-4.46a.875.875,0,0,0-.875.875h0a.875.875,0,0,0,.875.875h6.21a.789.789,0,0,0,.79-.79h0v-6.21a.875.875,0,0,0-.875-.875h0a.875.875,0,0,0-.875.875Z" transform="translate(1995.761 2402.21)" fill="#fff" opacity="0.9" style="isolation: isolate"/>
</svg>
