<svg xmlns="http://www.w3.org/2000/svg" width="22.692" height="17.608" viewBox="0 0 22.692 17.608">
  <g id="Speaker" transform="translate(0.598 23.652) rotate(-90)">
    <g id="Group_38697" data-name="Group 38697" transform="translate(23.652 -0.602) rotate(90)">
      <path id="Path_94277" data-name="Path 94277" d="M5.335,9.929a.7.7,0,0,0-.081.384A12.62,12.62,0,0,1,2.218,17.2a1.053,1.053,0,0,1-1.473.184,1.017,1.017,0,0,1-.306-1.544,13.283,13.283,0,0,0,1.416-2.094,10.343,10.343,0,0,0,1.1-3.446,10.3,10.3,0,0,0-2-7.666c-.2-.27-.42-.523-.639-.779A1.028,1.028,0,0,1,.508.239a1.081,1.081,0,0,1,1.54.2A12.684,12.684,0,0,1,5.131,6.7c.071.383.1.771.158,1.156.006.045-.028.105.045.128v.3a.432.432,0,0,0,0,.3v.736c-.043.05-.015.11-.023.165,0,.027,0,.055,0,.084s0,.054,0,.081-.008.074.023.1Z" transform="translate(17.351 0)" fill="#fff"/>
      <path id="Path_94278" data-name="Path 94278" d="M.054.316A.26.26,0,0,1,.054,0Z" transform="translate(22.642 8.328)" fill="#fff"/>
      <path id="Path_94279" data-name="Path 94279" d="M.007.183C0,.119-.022.05.045,0V.181C.032.2.021.2.007.183Z" transform="translate(22.65 9.376)" fill="#fff"/>
      <path id="Path_94280" data-name="Path 94280" d="M0,0,.038,0V.09C.026.109.014.109,0,.093Z" transform="translate(22.658 9.551)" fill="#fff"/>
      <path id="Path_94281" data-name="Path 94281" d="M0,0,.038,0V.091C.024.11.012.11,0,.092Z" transform="translate(22.658 9.639)" fill="#fff"/>
      <path id="Path_94282" data-name="Path 94282" d="M.006,0,.044,0V.091C-.014.08,0,.039.006,0Z" transform="translate(22.653 9.727)" fill="#fff"/>
      <path id="Path_94283" data-name="Path 94283" d="M11.509,7.758q0,3.325,0,6.65a1.02,1.02,0,0,1-.932,1.1,1.1,1.1,0,0,1-.844-.274Q7,13.063,4.273,10.893a.616.616,0,0,0-.422-.15c-.9.007-1.8,0-2.7,0A1.031,1.031,0,0,1,0,9.638Q0,7.757,0,5.873A1.042,1.042,0,0,1,1.175,4.759c.9,0,1.8,0,2.693,0a.561.561,0,0,0,.384-.129Q6.979,2.459,9.712.294A1.093,1.093,0,0,1,10.9.1a1.007,1.007,0,0,1,.612,1.013Q11.5,4.434,11.509,7.758Z" transform="translate(0.004 1.163)" fill="#fff"/>
      <path id="Path_94284" data-name="Path 94284" d="M3.864,5.124A7.624,7.624,0,0,1,2.24,9.981a1.09,1.09,0,0,1-1.447.267,1.011,1.011,0,0,1-.44-1.454A6.478,6.478,0,0,0,1.3,7.061,5.363,5.363,0,0,0,.323,1.844a1.033,1.033,0,0,1-.3-.909,1.187,1.187,0,0,1,.908-.9A1.074,1.074,0,0,1,2.08.468,7.634,7.634,0,0,1,3.739,3.942,6.3,6.3,0,0,1,3.864,5.124Z" transform="translate(13.852 3.59)" fill="#fff"/>
    </g>
  </g>
</svg>
