<svg xmlns="http://www.w3.org/2000/svg" width="49.474" height="55.973" viewBox="0 0 49.474 55.973">
  <g id="forward" transform="translate(0)">
    <g id="Group_42502" data-name="Group 42502" transform="translate(0)">
      <g id="Path_94287" data-name="Path 94287" transform="translate(0 0.009)">
        <g id="Path_94293" data-name="Path 94293">
          <path id="Path_99920" data-name="Path 99920" d="M5735.812,5241.347l-.8-3.207-.56-1.808c-.186-.475-.382-.959-.6-1.426s-.447-.932-.689-1.389l-.028-.056a1.039,1.039,0,0,1-.1-.177c-.242-.437-.5-.866-.746-1.258l-1.025-1.481c-.251-.327-.512-.68-.783-1.007l-.243-.289a1.422,1.422,0,0,0-1.985-.14,1.438,1.438,0,0,0-.177,2,21.9,21.9,0,1,1-17.168-7.726l1.733-.038-3.886,3.9a1.406,1.406,0,0,0-.42.971,1.426,1.426,0,0,0,.438,1.033,1.41,1.41,0,0,0,1,.4,1.335,1.335,0,0,0,1-.411l6.31-6.311a1.448,1.448,0,0,0,.261-1.66l-.251-.345-6.32-6.319a1.427,1.427,0,0,0-2.013.009,1.393,1.393,0,0,0,.009,1.986l3.934,3.933-1.659.018a24.8,24.8,0,0,0-24.382,24.7v.019a24.76,24.76,0,0,0,24.587,24.888h.149a24.744,24.744,0,0,0,24.737-24.589v-.531l-.084-1.016v-.075l-.037-.438-.037-.531-.028-.307-.019-.261-.01-.1" transform="translate(-5686.655 -5214.204)" fill="#fff"/>
        </g>
      </g>
      <g id="Path_94286" data-name="Path 94286" transform="translate(31.326)">
        <g id="Path_94295" data-name="Path 94295">
          <path id="Path_99921" data-name="Path 99921" d="M5696.726,5227.253a1.375,1.375,0,0,0,.019,2,1.408,1.408,0,0,0,.988.411,1.443,1.443,0,0,0,1.007-.411l6.319-6.32a1.412,1.412,0,0,0,.4-1.015,1.323,1.323,0,0,0-.41-.989l-6.31-6.319a1.429,1.429,0,0,0-2.013.009,1.385,1.385,0,0,0,.009,2l5.3,5.3-5.3,5.331Z" transform="translate(-5696.306 -5214.194)" fill="#fff"/>
          <path id="Path_99922" data-name="Path 99922" d="M5696.735,5227.244l5.3-5.331-5.3-5.3a1.385,1.385,0,0,1-.009-2,1.429,1.429,0,0,1,2.013-.009l6.31,6.319a1.323,1.323,0,0,1,.41.989,1.412,1.412,0,0,1-.4,1.015l-6.319,6.32a1.443,1.443,0,0,1-1.007.411,1.408,1.408,0,0,1-.988-.411,1.375,1.375,0,0,1-.019-2Z" transform="translate(-5696.306 -5214.194)" fill="#fff"/>
        </g>
      </g>
    </g>
    <path id="Path_99924" data-name="Path 99924" d="M.168-16.286l1.019,1.68L4.331-16.5V-4.866h2.2V-18.859H4.439Zm8.9,4.414a7.975,7.975,0,0,0,1.626,5.129,5.18,5.18,0,0,0,4.235,2.037A5.181,5.181,0,0,0,19.18-6.761a8.036,8.036,0,0,0,1.644-5.147A7.873,7.873,0,0,0,19.2-17a5.148,5.148,0,0,0-4.235-2.055,5.221,5.221,0,0,0-4.253,2.073A7.968,7.968,0,0,0,9.067-11.872Zm9.488,0a6.443,6.443,0,0,1-.983,3.664,3.013,3.013,0,0,1-2.609,1.483,3.021,3.021,0,0,1-2.627-1.5,6.544,6.544,0,0,1-.983-3.681,6.519,6.519,0,0,1,.965-3.646,3.013,3.013,0,0,1,2.609-1.483,3.021,3.021,0,0,1,2.627,1.5A6.49,6.49,0,0,1,18.555-11.872Z" transform="translate(14.131 43.312)" fill="#fff"/>
  </g>
</svg>
