<svg xmlns="http://www.w3.org/2000/svg" width="276.298" height="73.008" viewBox="0 0 276.298 73.008">
  <g id="Group_44988" data-name="Group 44988" transform="translate(-424.532 -286.202)">
    <path id="Path_106106" data-name="Path 106106" d="M7.789-40.8H43.5l5.257,5.3v5.3H30.9V5.755H20.386V-30.19H2.532v-5.3Zm98.15,10.608H70.23v7.53h35.708v10.514H70.23v7.293h35.708V5.755H64.974L59.717.451V-35.494l5.257-5.3h40.965V-30.19ZM122.064-40.8h40.965V-30.19H127.321v7.577h35.708V-12.1H127.321V5.755H116.807V-35.494Zm87.636,0h10.514V.451l-5.257,5.3H179.249l-5.257-5.3V-40.8h10.514V-4.853H209.7Zm57.09,0H277.3V5.755H266.791L241.6-24.649v30.4H231.082V-40.8H241.6l25.195,29.552Z" transform="translate(422 327)" fill="#0fa76f"/>
    <path id="Path_106107" data-name="Path 106107" d="M.28-9.08H4.242V1.607H6.207V-9.08h3.978V-10.9H.28ZM17.916-2.1a5.211,5.211,0,0,0,.032-.591,4.57,4.57,0,0,0-1.1-3.195A3.9,3.9,0,0,0,13.795-7.1,4.042,4.042,0,0,0,10.728-5.8,4.393,4.393,0,0,0,9.5-2.674,4.336,4.336,0,0,0,10.775.505,4.385,4.385,0,0,0,13.97,1.767,4.045,4.045,0,0,0,17.613-.294L16.239-1.2a2.406,2.406,0,0,1-2.3,1.326A2.6,2.6,0,0,1,12.213-.5a2.1,2.1,0,0,1-.767-1.6ZM13.795-5.469a2.052,2.052,0,0,1,2.22,1.933H11.542A2.206,2.206,0,0,1,13.795-5.469Zm9.9,7.221a4.008,4.008,0,0,0,2.54-.767A3.964,3.964,0,0,0,27.6-.821l-1.661-.735a2.2,2.2,0,0,1-2.2,1.582,2.378,2.378,0,0,1-1.805-.767,2.758,2.758,0,0,1-.719-1.965,2.642,2.642,0,0,1,.719-1.917,2.438,2.438,0,0,1,1.789-.751A2.148,2.148,0,0,1,25.9-3.808l1.629-.735A3.84,3.84,0,0,0,23.7-7.1a4.206,4.206,0,0,0-3.163,1.31,4.347,4.347,0,0,0-1.278,3.115A4.3,4.3,0,0,0,20.536.489,4.287,4.287,0,0,0,23.7,1.751Zm13.323-.144V-3.648c0-2.045-1.1-3.451-3.195-3.451a3.09,3.09,0,0,0-2.556,1.262V-11.4h-1.9v13h1.9V-3.137a1.943,1.943,0,0,1,1.965-2.157c1.262,0,1.885.847,1.885,2.125V1.607Zm10.048,0V-3.648c0-2.045-1.1-3.451-3.195-3.451a3.092,3.092,0,0,0-2.6,1.326v-1.15H39.418V1.607h1.9V-3.137a1.943,1.943,0,0,1,1.965-2.157c1.262,0,1.885.847,1.885,2.125V1.607ZM53.4-7.1A4.451,4.451,0,0,0,50.2-5.821a4.21,4.21,0,0,0-1.326,3.147A4.2,4.2,0,0,0,50.185.473,4.451,4.451,0,0,0,53.38,1.751,4.362,4.362,0,0,0,56.559.473a4.266,4.266,0,0,0,1.31-3.179,4.161,4.161,0,0,0-1.31-3.131A4.389,4.389,0,0,0,53.4-7.1ZM51.527-4.591a2.391,2.391,0,0,1,1.853-.783,2.335,2.335,0,0,1,1.837.783,2.748,2.748,0,0,1,.719,1.917,2.81,2.81,0,0,1-.7,1.917A2.335,2.335,0,0,1,53.4.026a2.4,2.4,0,0,1-1.853-.8,2.816,2.816,0,0,1-.719-1.933A2.7,2.7,0,0,1,51.527-4.591Zm8.259,6.2h1.9v-13h-1.9ZM68.093-7.1A4.451,4.451,0,0,0,64.9-5.821a4.21,4.21,0,0,0-1.326,3.147A4.2,4.2,0,0,0,64.882.473a4.451,4.451,0,0,0,3.195,1.278A4.362,4.362,0,0,0,71.256.473a4.266,4.266,0,0,0,1.31-3.179,4.161,4.161,0,0,0-1.31-3.131A4.389,4.389,0,0,0,68.093-7.1ZM66.224-4.591a2.392,2.392,0,0,1,1.853-.783,2.335,2.335,0,0,1,1.837.783,2.748,2.748,0,0,1,.719,1.917,2.81,2.81,0,0,1-.7,1.917,2.335,2.335,0,0,1-1.837.783,2.4,2.4,0,0,1-1.853-.8,2.816,2.816,0,0,1-.719-1.933A2.7,2.7,0,0,1,66.224-4.591ZM78.045,1.671a3.83,3.83,0,0,0,1.5-.351A2.709,2.709,0,0,0,80.841.234V1.576a2.411,2.411,0,0,1-2.588,2.6,2.863,2.863,0,0,1-2.684-1.805l-1.582.911a4.308,4.308,0,0,0,4.3,2.588,4.458,4.458,0,0,0,3.227-1.182A4.235,4.235,0,0,0,82.742,1.5V-6.923H80.889v1.294A2.807,2.807,0,0,0,79.611-6.7a3.751,3.751,0,0,0-1.5-.367,3.882,3.882,0,0,0-3.067,1.342,4.529,4.529,0,0,0-1.15,3.035A4.4,4.4,0,0,0,75.058.377,3.872,3.872,0,0,0,78.045,1.671Zm2.828-4.393A2.748,2.748,0,0,1,80.154-.8a2.341,2.341,0,0,1-1.821.767A2.4,2.4,0,0,1,76.5-.8a2.81,2.81,0,0,1-.7-1.917,2.674,2.674,0,0,1,.7-1.885,2.376,2.376,0,0,1,1.837-.767,2.376,2.376,0,0,1,1.837.767A2.7,2.7,0,0,1,80.873-2.722Zm5.511-4.2H84.212l3.8,7.572-2.348,5.16h2.029L93.557-6.923H91.5l-2.46,5.591Zm20.208,3.275V-5.453h-5.543V-9.08h6.007V-10.9H99.084V1.607h1.965V-3.648ZM108.7-6.923v5.24c0,2.045,1.134,3.467,3.195,3.467A3.092,3.092,0,0,0,114.5.457v1.15h1.853V-6.923h-1.9v4.745a1.943,1.943,0,0,1-1.965,2.157c-1.262,0-1.885-.847-1.885-2.125V-6.923Zm17.8,8.531V-3.648c0-2.045-1.1-3.451-3.195-3.451a3.092,3.092,0,0,0-2.6,1.326v-1.15h-1.853V1.607h1.9V-3.137a1.943,1.943,0,0,1,1.965-2.157c1.262,0,1.885.847,1.885,2.125V1.607ZM128.3-2.674a4.467,4.467,0,0,0,1.2,3.1,3.889,3.889,0,0,0,3,1.31,4.035,4.035,0,0,0,1.534-.351,2.675,2.675,0,0,0,1.326-1.1V1.607h1.853v-13h-1.9v5.687a2.527,2.527,0,0,0-1.262-1.022,3.711,3.711,0,0,0-1.5-.351,3.914,3.914,0,0,0-3.083,1.342A4.518,4.518,0,0,0,128.3-2.674Zm4.489-2.7a2.358,2.358,0,0,1,1.837.783,2.748,2.748,0,0,1,.719,1.917,2.748,2.748,0,0,1-.719,1.917,2.376,2.376,0,0,1-1.837.767,2.434,2.434,0,0,1-1.853-.767,2.81,2.81,0,0,1-.7-1.917,2.81,2.81,0,0,1,.7-1.917A2.391,2.391,0,0,1,132.791-5.373Zm11.789,1.2c0,.479-.272.719-.8.719h-1.054c-1.5,0-3.546.623-3.546,2.6v.1A2.268,2.268,0,0,0,140,1.048a3.069,3.069,0,0,0,2.061.7,2.7,2.7,0,0,0,2.508-1.31V1.607h1.869V-3.824a3.753,3.753,0,0,0-.288-1.534A3.146,3.146,0,0,0,142.951-7.1a3.649,3.649,0,0,0-3.626,2.173l1.454.831A2.2,2.2,0,0,1,142.9-5.453C143.973-5.453,144.58-4.878,144.58-4.175Zm-.016,2.332A1.959,1.959,0,0,1,142.44.234a1.2,1.2,0,0,1-1.358-1.166.975.975,0,0,1,.511-.863,2.214,2.214,0,0,1,1.134-.319h1.837Zm11.757,3.451v-4.76a1.9,1.9,0,0,1,1.885-2.157c1.262,0,1.821.815,1.821,2.109V1.607h1.9V-3.664c0-2.045-1.038-3.451-3.1-3.451a3.688,3.688,0,0,0-2.971,1.406,2.773,2.773,0,0,0-2.636-1.406,3.057,3.057,0,0,0-2.54,1.342v-1.15H148.83V1.607h1.9V-3.137A1.913,1.913,0,0,1,152.6-5.31c1.262,0,1.837.847,1.837,2.125V1.607ZM172.169-2.1a5.211,5.211,0,0,0,.032-.591,4.57,4.57,0,0,0-1.1-3.195A3.9,3.9,0,0,0,168.047-7.1,4.042,4.042,0,0,0,164.98-5.8a4.393,4.393,0,0,0-1.23,3.131A4.336,4.336,0,0,0,165.028.505a4.385,4.385,0,0,0,3.195,1.262,4.045,4.045,0,0,0,3.642-2.061L170.492-1.2a2.406,2.406,0,0,1-2.3,1.326A2.6,2.6,0,0,1,166.466-.5a2.1,2.1,0,0,1-.767-1.6Zm-4.121-3.371a2.052,2.052,0,0,1,2.22,1.933h-4.473A2.206,2.206,0,0,1,168.047-5.469Zm13.69,7.077V-3.648c0-2.045-1.1-3.451-3.195-3.451a3.092,3.092,0,0,0-2.6,1.326v-1.15h-1.853V1.607h1.9V-3.137a1.943,1.943,0,0,1,1.965-2.157c1.262,0,1.885.847,1.885,2.125V1.607Zm7.045-6.821V-6.923H186.69V-9.559h-1.9v2.636h-1.566v1.709h1.566V-1.14A2.624,2.624,0,0,0,187.744,1.7a2.983,2.983,0,0,0,1.022-.176V-.086a2.707,2.707,0,0,1-.607.064c-.974,0-1.47-.4-1.47-1.422v-3.77Zm6.805,1.038c0,.479-.272.719-.8.719h-1.054c-1.5,0-3.546.623-3.546,2.6v.1A2.268,2.268,0,0,0,191,1.048a3.069,3.069,0,0,0,2.061.7,2.7,2.7,0,0,0,2.508-1.31V1.607h1.869V-3.824a3.753,3.753,0,0,0-.288-1.534A3.146,3.146,0,0,0,193.959-7.1a3.649,3.649,0,0,0-3.626,2.173l1.454.831a2.2,2.2,0,0,1,2.125-1.358C194.981-5.453,195.588-4.878,195.588-4.175Zm-.016,2.332A1.959,1.959,0,0,1,193.447.234,1.2,1.2,0,0,1,192.09-.932.975.975,0,0,1,192.6-1.8a2.214,2.214,0,0,1,1.134-.319h1.837Zm4.265,3.451h1.9v-13h-1.9Zm17.652-8.626a3.8,3.8,0,0,0-1.1-2.748,4.356,4.356,0,0,0-3.275-1.134h-4.425V1.607h1.965V-3.025h2.22a4.793,4.793,0,0,0,3.387-1.134A3.782,3.782,0,0,0,217.489-7.019ZM212.937-9.08a2.586,2.586,0,0,1,1.965.623,2.062,2.062,0,0,1,.591,1.486c0,1.15-.815,2.141-2.556,2.141h-2.284V-9.08Zm10.943,2.125A1.707,1.707,0,0,0,223.416-7a2.533,2.533,0,0,0-2.348,1.438V-6.923h-1.853V1.607h1.9V-2.722a2.053,2.053,0,0,1,2.22-2.332,2.746,2.746,0,0,1,.543.048Zm5.288-.144a4.451,4.451,0,0,0-3.195,1.278,4.21,4.21,0,0,0-1.326,3.147,4.2,4.2,0,0,0,1.31,3.147,4.451,4.451,0,0,0,3.195,1.278A4.362,4.362,0,0,0,232.33.473a4.266,4.266,0,0,0,1.31-3.179,4.161,4.161,0,0,0-1.31-3.131A4.389,4.389,0,0,0,229.167-7.1ZM227.3-4.591a2.392,2.392,0,0,1,1.853-.783,2.335,2.335,0,0,1,1.837.783,2.748,2.748,0,0,1,.719,1.917A2.809,2.809,0,0,1,231-.757a2.335,2.335,0,0,1-1.837.783,2.4,2.4,0,0,1-1.853-.8,2.816,2.816,0,0,1-.719-1.933A2.7,2.7,0,0,1,227.3-4.591Zm11.821,6.262a3.83,3.83,0,0,0,1.5-.351A2.709,2.709,0,0,0,241.915.234V1.576a2.411,2.411,0,0,1-2.588,2.6,2.863,2.863,0,0,1-2.684-1.805l-1.582.911a4.308,4.308,0,0,0,4.3,2.588,4.458,4.458,0,0,0,3.227-1.182,4.235,4.235,0,0,0,1.23-3.195V-6.923h-1.853v1.294a2.807,2.807,0,0,0-1.278-1.07,3.751,3.751,0,0,0-1.5-.367,3.882,3.882,0,0,0-3.067,1.342,4.529,4.529,0,0,0-1.15,3.035A4.4,4.4,0,0,0,236.132.377,3.872,3.872,0,0,0,239.119,1.671Zm2.828-4.393A2.748,2.748,0,0,1,241.228-.8a2.341,2.341,0,0,1-1.821.767A2.4,2.4,0,0,1,237.57-.8a2.809,2.809,0,0,1-.7-1.917,2.674,2.674,0,0,1,.7-1.885,2.376,2.376,0,0,1,1.837-.767,2.376,2.376,0,0,1,1.837.767A2.7,2.7,0,0,1,241.947-2.722Zm9.026-4.233A1.706,1.706,0,0,0,250.509-7a2.533,2.533,0,0,0-2.348,1.438V-6.923h-1.853V1.607h1.9V-2.722a2.053,2.053,0,0,1,2.221-2.332,2.746,2.746,0,0,1,.543.048Zm6.262,2.78c0,.479-.272.719-.8.719h-1.054c-1.5,0-3.546.623-3.546,2.6v.1a2.268,2.268,0,0,0,.815,1.805,3.069,3.069,0,0,0,2.061.7,2.7,2.7,0,0,0,2.508-1.31V1.607h1.869V-3.824a3.753,3.753,0,0,0-.288-1.534A3.146,3.146,0,0,0,255.605-7.1a3.649,3.649,0,0,0-3.626,2.173l1.454.831a2.2,2.2,0,0,1,2.125-1.358C256.628-5.453,257.235-4.878,257.235-4.175Zm-.016,2.332A1.959,1.959,0,0,1,255.094.234a1.2,1.2,0,0,1-1.358-1.166.975.975,0,0,1,.511-.863,2.214,2.214,0,0,1,1.134-.319h1.837Zm11.757,3.451v-4.76a1.9,1.9,0,0,1,1.885-2.157c1.262,0,1.821.815,1.821,2.109V1.607h1.9V-3.664c0-2.045-1.038-3.451-3.1-3.451a3.688,3.688,0,0,0-2.971,1.406,2.773,2.773,0,0,0-2.636-1.406,3.057,3.057,0,0,0-2.54,1.342v-1.15h-1.853V1.607h1.9V-3.137a1.913,1.913,0,0,1,1.869-2.173c1.262,0,1.837.847,1.837,2.125V1.607Z" transform="translate(426.247 353.337)" fill="#fff"/>
  </g>
</svg>
